<?xml version="1.0" encoding="UTF-8" ?>
<svg version="1.1" width="25" height="480" xmlns="http://www.w3.org/2000/svg" shape-rendering="crispEdges">
<rect x="15" y="15" width="5" height="5" fill="#789F44" />
<rect x="15" y="20" width="5" height="5" fill="#789F44" />
<rect x="15" y="25" width="5" height="5" fill="#789F44" />
<rect x="20" y="25" width="5" height="5" fill="#789F44" />
<rect x="15" y="30" width="5" height="5" fill="#789F44" />
<rect x="20" y="30" width="5" height="5" fill="#789F44" />
<rect x="15" y="35" width="5" height="5" fill="#789F44" />
<rect x="20" y="35" width="5" height="5" fill="#789F44" />
<rect x="15" y="40" width="5" height="5" fill="#789F44" />
<rect x="20" y="40" width="5" height="5" fill="#789F44" />
<rect x="15" y="45" width="5" height="5" fill="#789F44" />
<rect x="20" y="45" width="5" height="5" fill="#789F44" />
<rect x="15" y="50" width="5" height="5" fill="#789F44" />
<rect x="20" y="50" width="5" height="5" fill="#789F44" />
<rect x="15" y="55" width="5" height="5" fill="#789F44" />
<rect x="20" y="55" width="5" height="5" fill="#789F44" />
<rect x="15" y="60" width="5" height="5" fill="#789F44" />
<rect x="20" y="60" width="5" height="5" fill="#789F44" />
<rect x="15" y="65" width="5" height="5" fill="#789F44" />
<rect x="20" y="65" width="5" height="5" fill="#789F44" />
<rect x="0" y="70" width="5" height="5" fill="#789F44" />
<rect x="15" y="70" width="5" height="5" fill="#789F44" />
<rect x="20" y="70" width="5" height="5" fill="#789F44" />
<rect x="0" y="75" width="5" height="5" fill="#789F44" />
<rect x="15" y="75" width="5" height="5" fill="#789F44" />
<rect x="20" y="75" width="5" height="5" fill="#789F44" />
<rect x="0" y="80" width="5" height="5" fill="#789F44" />
<rect x="15" y="80" width="5" height="5" fill="#789F44" />
<rect x="20" y="80" width="5" height="5" fill="#789F44" />
<rect x="0" y="85" width="5" height="5" fill="#789F44" />
<rect x="15" y="85" width="5" height="5" fill="#789F44" />
<rect x="20" y="85" width="5" height="5" fill="#789F44" />
<rect x="0" y="90" width="5" height="5" fill="#789F44" />
<rect x="15" y="90" width="5" height="5" fill="#789F44" />
<rect x="20" y="90" width="5" height="5" fill="#789F44" />
<rect x="0" y="95" width="5" height="5" fill="#789F44" />
<rect x="15" y="95" width="5" height="5" fill="#789F44" />
<rect x="20" y="95" width="5" height="5" fill="#789F44" />
<rect x="0" y="100" width="5" height="5" fill="#789F44" />
<rect x="15" y="100" width="5" height="5" fill="#789F44" />
<rect x="20" y="100" width="5" height="5" fill="#789F44" />
<rect x="0" y="105" width="5" height="5" fill="#789F44" />
<rect x="15" y="105" width="5" height="5" fill="#789F44" />
<rect x="20" y="105" width="5" height="5" fill="#789F44" />
<rect x="0" y="110" width="5" height="5" fill="#789F44" />
<rect x="15" y="110" width="5" height="5" fill="#789F44" />
<rect x="20" y="110" width="5" height="5" fill="#789F44" />
<rect x="0" y="115" width="5" height="5" fill="#789F44" />
<rect x="15" y="115" width="5" height="5" fill="#789F44" />
<rect x="20" y="115" width="5" height="5" fill="#789F44" />
<rect x="0" y="120" width="5" height="5" fill="#789F44" />
<rect x="15" y="120" width="5" height="5" fill="#789F44" />
<rect x="20" y="120" width="5" height="5" fill="#789F44" />
<rect x="0" y="125" width="5" height="5" fill="#789F44" />
<rect x="15" y="125" width="5" height="5" fill="#789F44" />
<rect x="20" y="125" width="5" height="5" fill="#789F44" />
<rect x="0" y="130" width="5" height="5" fill="#789F44" />
<rect x="15" y="130" width="5" height="5" fill="#789F44" />
<rect x="20" y="130" width="5" height="5" fill="#789F44" />
<rect x="0" y="135" width="5" height="5" fill="#789F44" />
<rect x="15" y="135" width="5" height="5" fill="#789F44" />
<rect x="20" y="135" width="5" height="5" fill="#789F44" />
<rect x="0" y="140" width="5" height="5" fill="#789F44" />
<rect x="15" y="140" width="5" height="5" fill="#789F44" />
<rect x="20" y="140" width="5" height="5" fill="#789F44" />
<rect x="0" y="145" width="5" height="5" fill="#789F44" />
<rect x="5" y="145" width="5" height="5" fill="#789F44" />
<rect x="15" y="145" width="5" height="5" fill="#789F44" />
<rect x="20" y="145" width="5" height="5" fill="#789F44" />
<rect x="0" y="150" width="5" height="5" fill="#789F44" />
<rect x="5" y="150" width="5" height="5" fill="#789F44" />
<rect x="15" y="150" width="5" height="5" fill="#789F44" />
<rect x="20" y="150" width="5" height="5" fill="#789F44" />
<rect x="0" y="155" width="5" height="5" fill="#789F44" />
<rect x="5" y="155" width="5" height="5" fill="#789F44" />
<rect x="15" y="155" width="5" height="5" fill="#789F44" />
<rect x="20" y="155" width="5" height="5" fill="#789F44" />
<rect x="0" y="160" width="5" height="5" fill="#789F44" />
<rect x="5" y="160" width="5" height="5" fill="#789F44" />
<rect x="15" y="160" width="5" height="5" fill="#789F44" />
<rect x="20" y="160" width="5" height="5" fill="#789F44" />
<rect x="0" y="165" width="5" height="5" fill="#789F44" />
<rect x="5" y="165" width="5" height="5" fill="#789F44" />
<rect x="15" y="165" width="5" height="5" fill="#789F44" />
<rect x="20" y="165" width="5" height="5" fill="#789F44" />
<rect x="0" y="170" width="5" height="5" fill="#789F44" />
<rect x="5" y="170" width="5" height="5" fill="#789F44" />
<rect x="15" y="170" width="5" height="5" fill="#789F44" />
<rect x="20" y="170" width="5" height="5" fill="#789F44" />
<rect x="0" y="175" width="5" height="5" fill="#789F44" />
<rect x="5" y="175" width="5" height="5" fill="#789F44" />
<rect x="15" y="175" width="5" height="5" fill="#789F44" />
<rect x="20" y="175" width="5" height="5" fill="#789F44" />
<rect x="0" y="180" width="5" height="5" fill="#789F44" />
<rect x="5" y="180" width="5" height="5" fill="#789F44" />
<rect x="15" y="180" width="5" height="5" fill="#789F44" />
<rect x="20" y="180" width="5" height="5" fill="#789F44" />
<rect x="0" y="185" width="5" height="5" fill="#789F44" />
<rect x="5" y="185" width="5" height="5" fill="#789F44" />
<rect x="15" y="185" width="5" height="5" fill="#789F44" />
<rect x="20" y="185" width="5" height="5" fill="#789F44" />
<rect x="0" y="190" width="5" height="5" fill="#789F44" />
<rect x="5" y="190" width="5" height="5" fill="#789F44" />
<rect x="15" y="190" width="5" height="5" fill="#789F44" />
<rect x="20" y="190" width="5" height="5" fill="#789F44" />
<rect x="0" y="195" width="5" height="5" fill="#789F44" />
<rect x="5" y="195" width="5" height="5" fill="#789F44" />
<rect x="15" y="195" width="5" height="5" fill="#789F44" />
<rect x="20" y="195" width="5" height="5" fill="#789F44" />
<rect x="0" y="200" width="5" height="5" fill="#789F44" />
<rect x="5" y="200" width="5" height="5" fill="#789F44" />
<rect x="15" y="200" width="5" height="5" fill="#789F44" />
<rect x="20" y="200" width="5" height="5" fill="#789F44" />
<rect x="0" y="205" width="5" height="5" fill="#789F44" />
<rect x="5" y="205" width="5" height="5" fill="#789F44" />
<rect x="15" y="205" width="5" height="5" fill="#789F44" />
<rect x="20" y="205" width="5" height="5" fill="#789F44" />
<rect x="0" y="210" width="5" height="5" fill="#789F44" />
<rect x="5" y="210" width="5" height="5" fill="#789F44" />
<rect x="15" y="210" width="5" height="5" fill="#789F44" />
<rect x="20" y="210" width="5" height="5" fill="#789F44" />
<rect x="0" y="215" width="5" height="5" fill="#789F44" />
<rect x="5" y="215" width="5" height="5" fill="#789F44" />
<rect x="15" y="215" width="5" height="5" fill="#789F44" />
<rect x="20" y="215" width="5" height="5" fill="#789F44" />
<rect x="0" y="220" width="5" height="5" fill="#789F44" />
<rect x="5" y="220" width="5" height="5" fill="#789F44" />
<rect x="15" y="220" width="5" height="5" fill="#789F44" />
<rect x="20" y="220" width="5" height="5" fill="#789F44" />
<rect x="0" y="225" width="5" height="5" fill="#789F44" />
<rect x="5" y="225" width="5" height="5" fill="#789F44" />
<rect x="15" y="225" width="5" height="5" fill="#789F44" />
<rect x="20" y="225" width="5" height="5" fill="#789F44" />
<rect x="0" y="230" width="5" height="5" fill="#789F44" />
<rect x="5" y="230" width="5" height="5" fill="#789F44" />
<rect x="15" y="230" width="5" height="5" fill="#789F44" />
<rect x="20" y="230" width="5" height="5" fill="#789F44" />
<rect x="0" y="235" width="5" height="5" fill="#789F44" />
<rect x="5" y="235" width="5" height="5" fill="#789F44" />
<rect x="15" y="235" width="5" height="5" fill="#789F44" />
<rect x="20" y="235" width="5" height="5" fill="#789F44" />
<rect x="0" y="240" width="5" height="5" fill="#789F44" />
<rect x="5" y="240" width="5" height="5" fill="#789F44" />
<rect x="15" y="240" width="5" height="5" fill="#789F44" />
<rect x="20" y="240" width="5" height="5" fill="#789F44" />
<rect x="0" y="245" width="5" height="5" fill="#789F44" />
<rect x="5" y="245" width="5" height="5" fill="#789F44" />
<rect x="10" y="245" width="5" height="5" fill="#789F44" />
<rect x="15" y="245" width="5" height="5" fill="#789F44" />
<rect x="20" y="245" width="5" height="5" fill="#789F44" />
<rect x="0" y="250" width="5" height="5" fill="#789F44" />
<rect x="5" y="250" width="5" height="5" fill="#789F44" />
<rect x="10" y="250" width="5" height="5" fill="#789F44" />
<rect x="15" y="250" width="5" height="5" fill="#789F44" />
<rect x="20" y="250" width="5" height="5" fill="#789F44" />
<rect x="0" y="255" width="5" height="5" fill="#789F44" />
<rect x="5" y="255" width="5" height="5" fill="#789F44" />
<rect x="10" y="255" width="5" height="5" fill="#789F44" />
<rect x="15" y="255" width="5" height="5" fill="#789F44" />
<rect x="20" y="255" width="5" height="5" fill="#789F44" />
<rect x="0" y="260" width="5" height="5" fill="#789F44" />
<rect x="5" y="260" width="5" height="5" fill="#789F44" />
<rect x="10" y="260" width="5" height="5" fill="#789F44" />
<rect x="15" y="260" width="5" height="5" fill="#789F44" />
<rect x="20" y="260" width="5" height="5" fill="#789F44" />
<rect x="0" y="265" width="5" height="5" fill="#789F44" />
<rect x="5" y="265" width="5" height="5" fill="#789F44" />
<rect x="10" y="265" width="5" height="5" fill="#789F44" />
<rect x="15" y="265" width="5" height="5" fill="#789F44" />
<rect x="20" y="265" width="5" height="5" fill="#789F44" />
<rect x="0" y="270" width="5" height="5" fill="#789F44" />
<rect x="5" y="270" width="5" height="5" fill="#789F44" />
<rect x="10" y="270" width="5" height="5" fill="#789F44" />
<rect x="15" y="270" width="5" height="5" fill="#789F44" />
<rect x="20" y="270" width="5" height="5" fill="#789F44" />
<rect x="0" y="275" width="5" height="5" fill="#789F44" />
<rect x="5" y="275" width="5" height="5" fill="#789F44" />
<rect x="10" y="275" width="5" height="5" fill="#789F44" />
<rect x="15" y="275" width="5" height="5" fill="#789F44" />
<rect x="20" y="275" width="5" height="5" fill="#789F44" />
<rect x="0" y="280" width="5" height="5" fill="#789F44" />
<rect x="5" y="280" width="5" height="5" fill="#789F44" />
<rect x="10" y="280" width="5" height="5" fill="#789F44" />
<rect x="15" y="280" width="5" height="5" fill="#789F44" />
<rect x="20" y="280" width="5" height="5" fill="#789F44" />
<rect x="0" y="285" width="5" height="5" fill="#789F44" />
<rect x="5" y="285" width="5" height="5" fill="#789F44" />
<rect x="10" y="285" width="5" height="5" fill="#789F44" />
<rect x="15" y="285" width="5" height="5" fill="#789F44" />
<rect x="20" y="285" width="5" height="5" fill="#789F44" />
<rect x="0" y="290" width="5" height="5" fill="#789F44" />
<rect x="5" y="290" width="5" height="5" fill="#789F44" />
<rect x="10" y="290" width="5" height="5" fill="#789F44" />
<rect x="15" y="290" width="5" height="5" fill="#789F44" />
<rect x="20" y="290" width="5" height="5" fill="#789F44" />
<rect x="0" y="295" width="5" height="5" fill="#789F44" />
<rect x="5" y="295" width="5" height="5" fill="#789F44" />
<rect x="10" y="295" width="5" height="5" fill="#789F44" />
<rect x="15" y="295" width="5" height="5" fill="#789F44" />
<rect x="20" y="295" width="5" height="5" fill="#789F44" />
<rect x="0" y="300" width="5" height="5" fill="#789F44" />
<rect x="5" y="300" width="5" height="5" fill="#789F44" />
<rect x="10" y="300" width="5" height="5" fill="#789F44" />
<rect x="15" y="300" width="5" height="5" fill="#789F44" />
<rect x="20" y="300" width="5" height="5" fill="#789F44" />
<rect x="0" y="305" width="5" height="5" fill="#789F44" />
<rect x="5" y="305" width="5" height="5" fill="#789F44" />
<rect x="10" y="305" width="5" height="5" fill="#789F44" />
<rect x="15" y="305" width="5" height="5" fill="#789F44" />
<rect x="0" y="310" width="5" height="5" fill="#789F44" />
<rect x="5" y="310" width="5" height="5" fill="#789F44" />
<rect x="10" y="310" width="5" height="5" fill="#789F44" />
<rect x="15" y="310" width="5" height="5" fill="#789F44" />
<rect x="0" y="315" width="5" height="5" fill="#789F44" />
<rect x="5" y="315" width="5" height="5" fill="#789F44" />
<rect x="10" y="315" width="5" height="5" fill="#789F44" />
<rect x="15" y="315" width="5" height="5" fill="#789F44" />
<rect x="0" y="320" width="5" height="5" fill="#789F44" />
<rect x="5" y="320" width="5" height="5" fill="#789F44" />
<rect x="10" y="320" width="5" height="5" fill="#789F44" />
<rect x="15" y="320" width="5" height="5" fill="#789F44" />
<rect x="0" y="325" width="5" height="5" fill="#789F44" />
<rect x="5" y="325" width="5" height="5" fill="#789F44" />
<rect x="10" y="325" width="5" height="5" fill="#789F44" />
<rect x="15" y="325" width="5" height="5" fill="#789F44" />
<rect x="0" y="330" width="5" height="5" fill="#789F44" />
<rect x="5" y="330" width="5" height="5" fill="#789F44" />
<rect x="10" y="330" width="5" height="5" fill="#789F44" />
<rect x="15" y="330" width="5" height="5" fill="#789F44" />
<rect x="0" y="335" width="5" height="5" fill="#789F44" />
<rect x="5" y="335" width="5" height="5" fill="#789F44" />
<rect x="10" y="335" width="5" height="5" fill="#789F44" />
<rect x="15" y="335" width="5" height="5" fill="#789F44" />
<rect x="0" y="340" width="5" height="5" fill="#789F44" />
<rect x="5" y="340" width="5" height="5" fill="#789F44" />
<rect x="10" y="340" width="5" height="5" fill="#789F44" />
<rect x="15" y="340" width="5" height="5" fill="#789F44" />
<rect x="0" y="345" width="5" height="5" fill="#789F44" />
<rect x="5" y="345" width="5" height="5" fill="#789F44" />
<rect x="10" y="345" width="5" height="5" fill="#789F44" />
<rect x="15" y="345" width="5" height="5" fill="#789F44" />
<rect x="0" y="350" width="5" height="5" fill="#789F44" />
<rect x="5" y="350" width="5" height="5" fill="#789F44" />
<rect x="10" y="350" width="5" height="5" fill="#789F44" />
<rect x="15" y="350" width="5" height="5" fill="#789F44" />
<rect x="0" y="355" width="5" height="5" fill="#789F44" />
<rect x="5" y="355" width="5" height="5" fill="#789F44" />
<rect x="10" y="355" width="5" height="5" fill="#789F44" />
<rect x="15" y="355" width="5" height="5" fill="#789F44" />
<rect x="0" y="360" width="5" height="5" fill="#789F44" />
<rect x="5" y="360" width="5" height="5" fill="#789F44" />
<rect x="10" y="360" width="5" height="5" fill="#789F44" />
<rect x="15" y="360" width="5" height="5" fill="#789F44" />
<rect x="0" y="365" width="5" height="5" fill="#789F44" />
<rect x="5" y="365" width="5" height="5" fill="#789F44" />
<rect x="10" y="365" width="5" height="5" fill="#789F44" />
<rect x="15" y="365" width="5" height="5" fill="#789F44" />
<rect x="0" y="370" width="5" height="5" fill="#789F44" />
<rect x="5" y="370" width="5" height="5" fill="#789F44" />
<rect x="10" y="370" width="5" height="5" fill="#789F44" />
<rect x="15" y="370" width="5" height="5" fill="#789F44" />
<rect x="0" y="375" width="5" height="5" fill="#789F44" />
<rect x="5" y="375" width="5" height="5" fill="#789F44" />
<rect x="10" y="375" width="5" height="5" fill="#789F44" />
<rect x="15" y="375" width="5" height="5" fill="#789F44" />
<rect x="0" y="380" width="5" height="5" fill="#789F44" />
<rect x="5" y="380" width="5" height="5" fill="#789F44" />
<rect x="10" y="380" width="5" height="5" fill="#789F44" />
<rect x="15" y="380" width="5" height="5" fill="#789F44" />
<rect x="0" y="385" width="5" height="5" fill="#789F44" />
<rect x="5" y="385" width="5" height="5" fill="#789F44" />
<rect x="10" y="385" width="5" height="5" fill="#789F44" />
<rect x="15" y="385" width="5" height="5" fill="#789F44" />
<rect x="0" y="390" width="5" height="5" fill="#789F44" />
<rect x="5" y="390" width="5" height="5" fill="#789F44" />
<rect x="10" y="390" width="5" height="5" fill="#789F44" />
<rect x="15" y="390" width="5" height="5" fill="#789F44" />
<rect x="0" y="395" width="5" height="5" fill="#789F44" />
<rect x="5" y="395" width="5" height="5" fill="#789F44" />
<rect x="10" y="395" width="5" height="5" fill="#789F44" />
<rect x="15" y="395" width="5" height="5" fill="#789F44" />
<rect x="20" y="395" width="5" height="5" fill="#789F44" />
<rect x="0" y="400" width="5" height="5" fill="#789F44" />
<rect x="5" y="400" width="5" height="5" fill="#789F44" />
<rect x="10" y="400" width="5" height="5" fill="#789F44" />
<rect x="15" y="400" width="5" height="5" fill="#789F44" />
<rect x="20" y="400" width="5" height="5" fill="#789F44" />
<rect x="0" y="405" width="5" height="5" fill="#789F44" />
<rect x="5" y="405" width="5" height="5" fill="#789F44" />
<rect x="10" y="405" width="5" height="5" fill="#789F44" />
<rect x="15" y="405" width="5" height="5" fill="#789F44" />
<rect x="20" y="405" width="5" height="5" fill="#789F44" />
<rect x="0" y="410" width="5" height="5" fill="#789F44" />
<rect x="5" y="410" width="5" height="5" fill="#789F44" />
<rect x="10" y="410" width="5" height="5" fill="#789F44" />
<rect x="15" y="410" width="5" height="5" fill="#789F44" />
<rect x="20" y="410" width="5" height="5" fill="#789F44" />
<rect x="0" y="415" width="5" height="5" fill="#789F44" />
<rect x="5" y="415" width="5" height="5" fill="#789F44" />
<rect x="10" y="415" width="5" height="5" fill="#789F44" />
<rect x="15" y="415" width="5" height="5" fill="#789F44" />
<rect x="20" y="415" width="5" height="5" fill="#789F44" />
<rect x="0" y="420" width="5" height="5" fill="#789F44" />
<rect x="5" y="420" width="5" height="5" fill="#789F44" />
<rect x="10" y="420" width="5" height="5" fill="#789F44" />
<rect x="15" y="420" width="5" height="5" fill="#789F44" />
<rect x="20" y="420" width="5" height="5" fill="#789F44" />
<rect x="0" y="425" width="5" height="5" fill="#789F44" />
<rect x="5" y="425" width="5" height="5" fill="#789F44" />
<rect x="10" y="425" width="5" height="5" fill="#789F44" />
<rect x="15" y="425" width="5" height="5" fill="#789F44" />
<rect x="20" y="425" width="5" height="5" fill="#789F44" />
<rect x="0" y="430" width="5" height="5" fill="#789F44" />
<rect x="5" y="430" width="5" height="5" fill="#789F44" />
<rect x="10" y="430" width="5" height="5" fill="#789F44" />
<rect x="15" y="430" width="5" height="5" fill="#789F44" />
<rect x="20" y="430" width="5" height="5" fill="#789F44" />
<rect x="0" y="435" width="5" height="5" fill="#789F44" />
<rect x="5" y="435" width="5" height="5" fill="#789F44" />
<rect x="10" y="435" width="5" height="5" fill="#789F44" />
<rect x="15" y="435" width="5" height="5" fill="#789F44" />
<rect x="20" y="435" width="5" height="5" fill="#789F44" />
<rect x="0" y="440" width="5" height="5" fill="#789F44" />
<rect x="5" y="440" width="5" height="5" fill="#789F44" />
<rect x="10" y="440" width="5" height="5" fill="#789F44" />
<rect x="15" y="440" width="5" height="5" fill="#789F44" />
<rect x="20" y="440" width="5" height="5" fill="#789F44" />
<rect x="0" y="445" width="5" height="5" fill="#789F44" />
<rect x="5" y="445" width="5" height="5" fill="#789F44" />
<rect x="10" y="445" width="5" height="5" fill="#789F44" />
<rect x="15" y="445" width="5" height="5" fill="#789F44" />
<rect x="20" y="445" width="5" height="5" fill="#789F44" />
<rect x="0" y="450" width="5" height="5" fill="#789F44" />
<rect x="5" y="450" width="5" height="5" fill="#789F44" />
<rect x="10" y="450" width="5" height="5" fill="#789F44" />
<rect x="15" y="450" width="5" height="5" fill="#789F44" />
<rect x="20" y="450" width="5" height="5" fill="#789F44" />
<rect x="0" y="455" width="5" height="5" fill="#789F44" />
<rect x="5" y="455" width="5" height="5" fill="#789F44" />
<rect x="10" y="455" width="5" height="5" fill="#789F44" />
<rect x="15" y="455" width="5" height="5" fill="#789F44" />
<rect x="20" y="455" width="5" height="5" fill="#789F44" />
<rect x="0" y="460" width="5" height="5" fill="#789F44" />
<rect x="5" y="460" width="5" height="5" fill="#789F44" />
<rect x="10" y="460" width="5" height="5" fill="#789F44" />
<rect x="15" y="460" width="5" height="5" fill="#789F44" />
<rect x="20" y="460" width="5" height="5" fill="#789F44" />
<rect x="0" y="465" width="5" height="5" fill="#789F44" />
<rect x="5" y="465" width="5" height="5" fill="#789F44" />
<rect x="10" y="465" width="5" height="5" fill="#789F44" />
<rect x="15" y="465" width="5" height="5" fill="#789F44" />
<rect x="20" y="465" width="5" height="5" fill="#789F44" />
<rect x="0" y="470" width="5" height="5" fill="#789F44" />
<rect x="5" y="470" width="5" height="5" fill="#789F44" />
<rect x="10" y="470" width="5" height="5" fill="#789F44" />
<rect x="15" y="470" width="5" height="5" fill="#789F44" />
<rect x="20" y="470" width="5" height="5" fill="#789F44" />
<rect x="0" y="475" width="5" height="5" fill="#789F44" />
<rect x="5" y="475" width="5" height="5" fill="#789F44" />
<rect x="10" y="475" width="5" height="5" fill="#789F44" />
<rect x="15" y="475" width="5" height="5" fill="#789F44" />
<rect x="20" y="475" width="5" height="5" fill="#789F44" />
</svg>