<?xml version="1.0" encoding="UTF-8" ?>
<svg version="1.1" width="25" height="480" xmlns="http://www.w3.org/2000/svg" shape-rendering="crispEdges">
<rect x="5" y="200" width="5" height="5" fill="#789F44" />
<rect x="10" y="200" width="5" height="5" fill="#789F44" />
<rect x="5" y="205" width="5" height="5" fill="#789F44" />
<rect x="10" y="205" width="5" height="5" fill="#789F44" />
<rect x="5" y="210" width="5" height="5" fill="#789F44" />
<rect x="10" y="210" width="5" height="5" fill="#789F44" />
<rect x="5" y="215" width="5" height="5" fill="#789F44" />
<rect x="10" y="215" width="5" height="5" fill="#789F44" />
<rect x="5" y="220" width="5" height="5" fill="#789F44" />
<rect x="10" y="220" width="5" height="5" fill="#789F44" />
<rect x="5" y="225" width="5" height="5" fill="#789F44" />
<rect x="10" y="225" width="5" height="5" fill="#789F44" />
<rect x="5" y="230" width="5" height="5" fill="#789F44" />
<rect x="10" y="230" width="5" height="5" fill="#789F44" />
<rect x="5" y="235" width="5" height="5" fill="#789F44" />
<rect x="10" y="235" width="5" height="5" fill="#789F44" />
<rect x="5" y="240" width="5" height="5" fill="#789F44" />
<rect x="10" y="240" width="5" height="5" fill="#789F44" />
<rect x="5" y="245" width="5" height="5" fill="#789F44" />
<rect x="10" y="245" width="5" height="5" fill="#789F44" />
<rect x="5" y="250" width="5" height="5" fill="#789F44" />
<rect x="10" y="250" width="5" height="5" fill="#789F44" />
<rect x="5" y="255" width="5" height="5" fill="#789F44" />
<rect x="10" y="255" width="5" height="5" fill="#789F44" />
<rect x="5" y="260" width="5" height="5" fill="#789F44" />
<rect x="10" y="260" width="5" height="5" fill="#789F44" />
<rect x="5" y="265" width="5" height="5" fill="#789F44" />
<rect x="10" y="265" width="5" height="5" fill="#789F44" />
<rect x="5" y="270" width="5" height="5" fill="#789F44" />
<rect x="10" y="270" width="5" height="5" fill="#789F44" />
<rect x="5" y="275" width="5" height="5" fill="#789F44" />
<rect x="10" y="275" width="5" height="5" fill="#789F44" />
<rect x="5" y="280" width="5" height="5" fill="#789F44" />
<rect x="10" y="280" width="5" height="5" fill="#789F44" />
<rect x="5" y="285" width="5" height="5" fill="#789F44" />
<rect x="10" y="285" width="5" height="5" fill="#789F44" />
<rect x="5" y="290" width="5" height="5" fill="#789F44" />
<rect x="10" y="290" width="5" height="5" fill="#789F44" />
<rect x="5" y="295" width="5" height="5" fill="#789F44" />
<rect x="10" y="295" width="5" height="5" fill="#789F44" />
<rect x="5" y="300" width="5" height="5" fill="#789F44" />
<rect x="10" y="300" width="5" height="5" fill="#789F44" />
<rect x="5" y="305" width="5" height="5" fill="#789F44" />
<rect x="10" y="305" width="5" height="5" fill="#789F44" />
<rect x="15" y="305" width="5" height="5" fill="#789F44" />
<rect x="5" y="310" width="5" height="5" fill="#789F44" />
<rect x="10" y="310" width="5" height="5" fill="#789F44" />
<rect x="15" y="310" width="5" height="5" fill="#789F44" />
<rect x="5" y="315" width="5" height="5" fill="#789F44" />
<rect x="10" y="315" width="5" height="5" fill="#789F44" />
<rect x="15" y="315" width="5" height="5" fill="#789F44" />
<rect x="5" y="320" width="5" height="5" fill="#789F44" />
<rect x="10" y="320" width="5" height="5" fill="#789F44" />
<rect x="15" y="320" width="5" height="5" fill="#789F44" />
<rect x="5" y="325" width="5" height="5" fill="#789F44" />
<rect x="10" y="325" width="5" height="5" fill="#789F44" />
<rect x="15" y="325" width="5" height="5" fill="#789F44" />
<rect x="5" y="330" width="5" height="5" fill="#789F44" />
<rect x="10" y="330" width="5" height="5" fill="#789F44" />
<rect x="15" y="330" width="5" height="5" fill="#789F44" />
<rect x="5" y="335" width="5" height="5" fill="#789F44" />
<rect x="10" y="335" width="5" height="5" fill="#789F44" />
<rect x="15" y="335" width="5" height="5" fill="#789F44" />
<rect x="5" y="340" width="5" height="5" fill="#789F44" />
<rect x="10" y="340" width="5" height="5" fill="#789F44" />
<rect x="15" y="340" width="5" height="5" fill="#789F44" />
<rect x="5" y="345" width="5" height="5" fill="#789F44" />
<rect x="10" y="345" width="5" height="5" fill="#789F44" />
<rect x="15" y="345" width="5" height="5" fill="#789F44" />
<rect x="0" y="350" width="5" height="5" fill="#789F44" />
<rect x="5" y="350" width="5" height="5" fill="#789F44" />
<rect x="10" y="350" width="5" height="5" fill="#789F44" />
<rect x="15" y="350" width="5" height="5" fill="#789F44" />
<rect x="0" y="355" width="5" height="5" fill="#789F44" />
<rect x="5" y="355" width="5" height="5" fill="#789F44" />
<rect x="10" y="355" width="5" height="5" fill="#789F44" />
<rect x="15" y="355" width="5" height="5" fill="#789F44" />
<rect x="0" y="360" width="5" height="5" fill="#789F44" />
<rect x="5" y="360" width="5" height="5" fill="#789F44" />
<rect x="10" y="360" width="5" height="5" fill="#789F44" />
<rect x="15" y="360" width="5" height="5" fill="#789F44" />
<rect x="0" y="365" width="5" height="5" fill="#789F44" />
<rect x="5" y="365" width="5" height="5" fill="#789F44" />
<rect x="10" y="365" width="5" height="5" fill="#789F44" />
<rect x="15" y="365" width="5" height="5" fill="#789F44" />
<rect x="0" y="370" width="5" height="5" fill="#789F44" />
<rect x="5" y="370" width="5" height="5" fill="#789F44" />
<rect x="10" y="370" width="5" height="5" fill="#789F44" />
<rect x="15" y="370" width="5" height="5" fill="#789F44" />
<rect x="20" y="370" width="5" height="5" fill="#789F44" />
<rect x="0" y="375" width="5" height="5" fill="#789F44" />
<rect x="5" y="375" width="5" height="5" fill="#789F44" />
<rect x="10" y="375" width="5" height="5" fill="#789F44" />
<rect x="15" y="375" width="5" height="5" fill="#789F44" />
<rect x="20" y="375" width="5" height="5" fill="#789F44" />
<rect x="0" y="380" width="5" height="5" fill="#789F44" />
<rect x="5" y="380" width="5" height="5" fill="#789F44" />
<rect x="10" y="380" width="5" height="5" fill="#789F44" />
<rect x="15" y="380" width="5" height="5" fill="#789F44" />
<rect x="20" y="380" width="5" height="5" fill="#789F44" />
<rect x="0" y="385" width="5" height="5" fill="#789F44" />
<rect x="5" y="385" width="5" height="5" fill="#789F44" />
<rect x="10" y="385" width="5" height="5" fill="#789F44" />
<rect x="15" y="385" width="5" height="5" fill="#789F44" />
<rect x="20" y="385" width="5" height="5" fill="#789F44" />
<rect x="0" y="390" width="5" height="5" fill="#789F44" />
<rect x="5" y="390" width="5" height="5" fill="#789F44" />
<rect x="10" y="390" width="5" height="5" fill="#789F44" />
<rect x="15" y="390" width="5" height="5" fill="#789F44" />
<rect x="20" y="390" width="5" height="5" fill="#789F44" />
<rect x="0" y="395" width="5" height="5" fill="#789F44" />
<rect x="5" y="395" width="5" height="5" fill="#789F44" />
<rect x="10" y="395" width="5" height="5" fill="#789F44" />
<rect x="15" y="395" width="5" height="5" fill="#789F44" />
<rect x="20" y="395" width="5" height="5" fill="#789F44" />
<rect x="0" y="400" width="5" height="5" fill="#789F44" />
<rect x="5" y="400" width="5" height="5" fill="#789F44" />
<rect x="10" y="400" width="5" height="5" fill="#789F44" />
<rect x="15" y="400" width="5" height="5" fill="#789F44" />
<rect x="20" y="400" width="5" height="5" fill="#789F44" />
<rect x="0" y="405" width="5" height="5" fill="#789F44" />
<rect x="5" y="405" width="5" height="5" fill="#789F44" />
<rect x="10" y="405" width="5" height="5" fill="#789F44" />
<rect x="15" y="405" width="5" height="5" fill="#789F44" />
<rect x="20" y="405" width="5" height="5" fill="#789F44" />
<rect x="0" y="410" width="5" height="5" fill="#789F44" />
<rect x="5" y="410" width="5" height="5" fill="#789F44" />
<rect x="10" y="410" width="5" height="5" fill="#789F44" />
<rect x="15" y="410" width="5" height="5" fill="#789F44" />
<rect x="20" y="410" width="5" height="5" fill="#789F44" />
<rect x="0" y="415" width="5" height="5" fill="#789F44" />
<rect x="5" y="415" width="5" height="5" fill="#789F44" />
<rect x="10" y="415" width="5" height="5" fill="#789F44" />
<rect x="15" y="415" width="5" height="5" fill="#789F44" />
<rect x="20" y="415" width="5" height="5" fill="#789F44" />
<rect x="0" y="420" width="5" height="5" fill="#789F44" />
<rect x="5" y="420" width="5" height="5" fill="#789F44" />
<rect x="10" y="420" width="5" height="5" fill="#789F44" />
<rect x="15" y="420" width="5" height="5" fill="#789F44" />
<rect x="20" y="420" width="5" height="5" fill="#789F44" />
<rect x="0" y="425" width="5" height="5" fill="#789F44" />
<rect x="5" y="425" width="5" height="5" fill="#789F44" />
<rect x="10" y="425" width="5" height="5" fill="#789F44" />
<rect x="15" y="425" width="5" height="5" fill="#789F44" />
<rect x="20" y="425" width="5" height="5" fill="#789F44" />
<rect x="0" y="430" width="5" height="5" fill="#789F44" />
<rect x="5" y="430" width="5" height="5" fill="#789F44" />
<rect x="10" y="430" width="5" height="5" fill="#789F44" />
<rect x="15" y="430" width="5" height="5" fill="#789F44" />
<rect x="20" y="430" width="5" height="5" fill="#789F44" />
<rect x="0" y="435" width="5" height="5" fill="#789F44" />
<rect x="5" y="435" width="5" height="5" fill="#789F44" />
<rect x="10" y="435" width="5" height="5" fill="#789F44" />
<rect x="15" y="435" width="5" height="5" fill="#789F44" />
<rect x="20" y="435" width="5" height="5" fill="#789F44" />
<rect x="0" y="440" width="5" height="5" fill="#789F44" />
<rect x="5" y="440" width="5" height="5" fill="#789F44" />
<rect x="10" y="440" width="5" height="5" fill="#789F44" />
<rect x="15" y="440" width="5" height="5" fill="#789F44" />
<rect x="20" y="440" width="5" height="5" fill="#789F44" />
<rect x="0" y="445" width="5" height="5" fill="#789F44" />
<rect x="5" y="445" width="5" height="5" fill="#789F44" />
<rect x="10" y="445" width="5" height="5" fill="#789F44" />
<rect x="15" y="445" width="5" height="5" fill="#789F44" />
<rect x="20" y="445" width="5" height="5" fill="#789F44" />
<rect x="0" y="450" width="5" height="5" fill="#789F44" />
<rect x="5" y="450" width="5" height="5" fill="#789F44" />
<rect x="10" y="450" width="5" height="5" fill="#789F44" />
<rect x="15" y="450" width="5" height="5" fill="#789F44" />
<rect x="20" y="450" width="5" height="5" fill="#789F44" />
<rect x="0" y="455" width="5" height="5" fill="#789F44" />
<rect x="5" y="455" width="5" height="5" fill="#789F44" />
<rect x="10" y="455" width="5" height="5" fill="#789F44" />
<rect x="15" y="455" width="5" height="5" fill="#789F44" />
<rect x="20" y="455" width="5" height="5" fill="#789F44" />
<rect x="0" y="460" width="5" height="5" fill="#789F44" />
<rect x="5" y="460" width="5" height="5" fill="#789F44" />
<rect x="10" y="460" width="5" height="5" fill="#789F44" />
<rect x="15" y="460" width="5" height="5" fill="#789F44" />
<rect x="20" y="460" width="5" height="5" fill="#789F44" />
<rect x="0" y="465" width="5" height="5" fill="#789F44" />
<rect x="5" y="465" width="5" height="5" fill="#789F44" />
<rect x="10" y="465" width="5" height="5" fill="#789F44" />
<rect x="15" y="465" width="5" height="5" fill="#789F44" />
<rect x="20" y="465" width="5" height="5" fill="#789F44" />
<rect x="0" y="470" width="5" height="5" fill="#789F44" />
<rect x="5" y="470" width="5" height="5" fill="#789F44" />
<rect x="10" y="470" width="5" height="5" fill="#789F44" />
<rect x="15" y="470" width="5" height="5" fill="#789F44" />
<rect x="20" y="470" width="5" height="5" fill="#789F44" />
<rect x="0" y="475" width="5" height="5" fill="#789F44" />
<rect x="5" y="475" width="5" height="5" fill="#789F44" />
<rect x="10" y="475" width="5" height="5" fill="#789F44" />
<rect x="15" y="475" width="5" height="5" fill="#789F44" />
<rect x="20" y="475" width="5" height="5" fill="#789F44" />
</svg>