<?xml version="1.0" encoding="UTF-8" ?>
<svg version="1.1" width="25" height="280" xmlns="http://www.w3.org/2000/svg" shape-rendering="crispEdges">
<rect x="5" y="0" width="5" height="5" fill="#789F44" />
<rect x="10" y="0" width="5" height="5" fill="#789F44" />
<rect x="5" y="5" width="5" height="5" fill="#789F44" />
<rect x="10" y="5" width="5" height="5" fill="#789F44" />
<rect x="5" y="10" width="5" height="5" fill="#789F44" />
<rect x="10" y="10" width="5" height="5" fill="#789F44" />
<rect x="5" y="15" width="5" height="5" fill="#789F44" />
<rect x="10" y="15" width="5" height="5" fill="#789F44" />
<rect x="5" y="20" width="5" height="5" fill="#789F44" />
<rect x="10" y="20" width="5" height="5" fill="#789F44" />
<rect x="5" y="25" width="5" height="5" fill="#789F44" />
<rect x="10" y="25" width="5" height="5" fill="#789F44" />
<rect x="5" y="30" width="5" height="5" fill="#789F44" />
<rect x="10" y="30" width="5" height="5" fill="#789F44" />
<rect x="5" y="35" width="5" height="5" fill="#789F44" />
<rect x="10" y="35" width="5" height="5" fill="#789F44" />
<rect x="5" y="40" width="5" height="5" fill="#789F44" />
<rect x="10" y="40" width="5" height="5" fill="#789F44" />
<rect x="5" y="45" width="5" height="5" fill="#789F44" />
<rect x="10" y="45" width="5" height="5" fill="#789F44" />
<rect x="5" y="50" width="5" height="5" fill="#789F44" />
<rect x="10" y="50" width="5" height="5" fill="#789F44" />
<rect x="5" y="55" width="5" height="5" fill="#789F44" />
<rect x="10" y="55" width="5" height="5" fill="#789F44" />
<rect x="5" y="60" width="5" height="5" fill="#789F44" />
<rect x="10" y="60" width="5" height="5" fill="#789F44" />
<rect x="5" y="65" width="5" height="5" fill="#789F44" />
<rect x="10" y="65" width="5" height="5" fill="#789F44" />
<rect x="5" y="70" width="5" height="5" fill="#789F44" />
<rect x="10" y="70" width="5" height="5" fill="#789F44" />
<rect x="5" y="75" width="5" height="5" fill="#789F44" />
<rect x="10" y="75" width="5" height="5" fill="#789F44" />
<rect x="5" y="80" width="5" height="5" fill="#789F44" />
<rect x="10" y="80" width="5" height="5" fill="#789F44" />
<rect x="5" y="85" width="5" height="5" fill="#789F44" />
<rect x="10" y="85" width="5" height="5" fill="#789F44" />
<rect x="5" y="90" width="5" height="5" fill="#789F44" />
<rect x="10" y="90" width="5" height="5" fill="#789F44" />
<rect x="5" y="95" width="5" height="5" fill="#789F44" />
<rect x="10" y="95" width="5" height="5" fill="#789F44" />
<rect x="5" y="100" width="5" height="5" fill="#789F44" />
<rect x="10" y="100" width="5" height="5" fill="#789F44" />
<rect x="15" y="100" width="5" height="5" fill="#789F44" />
<rect x="5" y="105" width="5" height="5" fill="#789F44" />
<rect x="10" y="105" width="5" height="5" fill="#789F44" />
<rect x="15" y="105" width="5" height="5" fill="#789F44" />
<rect x="5" y="110" width="5" height="5" fill="#789F44" />
<rect x="10" y="110" width="5" height="5" fill="#789F44" />
<rect x="15" y="110" width="5" height="5" fill="#789F44" />
<rect x="5" y="115" width="5" height="5" fill="#789F44" />
<rect x="10" y="115" width="5" height="5" fill="#789F44" />
<rect x="15" y="115" width="5" height="5" fill="#789F44" />
<rect x="5" y="120" width="5" height="5" fill="#789F44" />
<rect x="10" y="120" width="5" height="5" fill="#789F44" />
<rect x="15" y="120" width="5" height="5" fill="#789F44" />
<rect x="5" y="125" width="5" height="5" fill="#789F44" />
<rect x="10" y="125" width="5" height="5" fill="#789F44" />
<rect x="15" y="125" width="5" height="5" fill="#789F44" />
<rect x="5" y="130" width="5" height="5" fill="#789F44" />
<rect x="10" y="130" width="5" height="5" fill="#789F44" />
<rect x="15" y="130" width="5" height="5" fill="#789F44" />
<rect x="5" y="135" width="5" height="5" fill="#789F44" />
<rect x="10" y="135" width="5" height="5" fill="#789F44" />
<rect x="15" y="135" width="5" height="5" fill="#789F44" />
<rect x="5" y="140" width="5" height="5" fill="#789F44" />
<rect x="10" y="140" width="5" height="5" fill="#789F44" />
<rect x="15" y="140" width="5" height="5" fill="#789F44" />
<rect x="5" y="145" width="5" height="5" fill="#789F44" />
<rect x="10" y="145" width="5" height="5" fill="#789F44" />
<rect x="15" y="145" width="5" height="5" fill="#789F44" />
<rect x="0" y="150" width="5" height="5" fill="#789F44" />
<rect x="5" y="150" width="5" height="5" fill="#789F44" />
<rect x="10" y="150" width="5" height="5" fill="#789F44" />
<rect x="15" y="150" width="5" height="5" fill="#789F44" />
<rect x="0" y="155" width="5" height="5" fill="#789F44" />
<rect x="5" y="155" width="5" height="5" fill="#789F44" />
<rect x="10" y="155" width="5" height="5" fill="#789F44" />
<rect x="15" y="155" width="5" height="5" fill="#789F44" />
<rect x="0" y="160" width="5" height="5" fill="#789F44" />
<rect x="5" y="160" width="5" height="5" fill="#789F44" />
<rect x="10" y="160" width="5" height="5" fill="#789F44" />
<rect x="15" y="160" width="5" height="5" fill="#789F44" />
<rect x="0" y="165" width="5" height="5" fill="#789F44" />
<rect x="5" y="165" width="5" height="5" fill="#789F44" />
<rect x="10" y="165" width="5" height="5" fill="#789F44" />
<rect x="15" y="165" width="5" height="5" fill="#789F44" />
<rect x="0" y="170" width="5" height="5" fill="#789F44" />
<rect x="5" y="170" width="5" height="5" fill="#789F44" />
<rect x="10" y="170" width="5" height="5" fill="#789F44" />
<rect x="15" y="170" width="5" height="5" fill="#789F44" />
<rect x="20" y="170" width="5" height="5" fill="#789F44" />
<rect x="0" y="175" width="5" height="5" fill="#789F44" />
<rect x="5" y="175" width="5" height="5" fill="#789F44" />
<rect x="10" y="175" width="5" height="5" fill="#789F44" />
<rect x="15" y="175" width="5" height="5" fill="#789F44" />
<rect x="20" y="175" width="5" height="5" fill="#789F44" />
<rect x="0" y="180" width="5" height="5" fill="#789F44" />
<rect x="5" y="180" width="5" height="5" fill="#789F44" />
<rect x="10" y="180" width="5" height="5" fill="#789F44" />
<rect x="15" y="180" width="5" height="5" fill="#789F44" />
<rect x="20" y="180" width="5" height="5" fill="#789F44" />
<rect x="0" y="185" width="5" height="5" fill="#789F44" />
<rect x="5" y="185" width="5" height="5" fill="#789F44" />
<rect x="10" y="185" width="5" height="5" fill="#789F44" />
<rect x="15" y="185" width="5" height="5" fill="#789F44" />
<rect x="20" y="185" width="5" height="5" fill="#789F44" />
<rect x="0" y="190" width="5" height="5" fill="#789F44" />
<rect x="5" y="190" width="5" height="5" fill="#789F44" />
<rect x="10" y="190" width="5" height="5" fill="#789F44" />
<rect x="15" y="190" width="5" height="5" fill="#789F44" />
<rect x="20" y="190" width="5" height="5" fill="#789F44" />
<rect x="0" y="195" width="5" height="5" fill="#789F44" />
<rect x="5" y="195" width="5" height="5" fill="#789F44" />
<rect x="10" y="195" width="5" height="5" fill="#789F44" />
<rect x="15" y="195" width="5" height="5" fill="#789F44" />
<rect x="20" y="195" width="5" height="5" fill="#789F44" />
<rect x="0" y="200" width="5" height="5" fill="#789F44" />
<rect x="5" y="200" width="5" height="5" fill="#789F44" />
<rect x="10" y="200" width="5" height="5" fill="#789F44" />
<rect x="15" y="200" width="5" height="5" fill="#789F44" />
<rect x="20" y="200" width="5" height="5" fill="#789F44" />
<rect x="0" y="205" width="5" height="5" fill="#789F44" />
<rect x="5" y="205" width="5" height="5" fill="#789F44" />
<rect x="10" y="205" width="5" height="5" fill="#789F44" />
<rect x="15" y="205" width="5" height="5" fill="#789F44" />
<rect x="20" y="205" width="5" height="5" fill="#789F44" />
<rect x="0" y="210" width="5" height="5" fill="#789F44" />
<rect x="5" y="210" width="5" height="5" fill="#789F44" />
<rect x="10" y="210" width="5" height="5" fill="#789F44" />
<rect x="15" y="210" width="5" height="5" fill="#789F44" />
<rect x="20" y="210" width="5" height="5" fill="#789F44" />
<rect x="0" y="215" width="5" height="5" fill="#789F44" />
<rect x="5" y="215" width="5" height="5" fill="#789F44" />
<rect x="10" y="215" width="5" height="5" fill="#789F44" />
<rect x="15" y="215" width="5" height="5" fill="#789F44" />
<rect x="20" y="215" width="5" height="5" fill="#789F44" />
<rect x="0" y="220" width="5" height="5" fill="#789F44" />
<rect x="5" y="220" width="5" height="5" fill="#789F44" />
<rect x="10" y="220" width="5" height="5" fill="#789F44" />
<rect x="15" y="220" width="5" height="5" fill="#789F44" />
<rect x="20" y="220" width="5" height="5" fill="#789F44" />
<rect x="0" y="225" width="5" height="5" fill="#789F44" />
<rect x="5" y="225" width="5" height="5" fill="#789F44" />
<rect x="10" y="225" width="5" height="5" fill="#789F44" />
<rect x="15" y="225" width="5" height="5" fill="#789F44" />
<rect x="20" y="225" width="5" height="5" fill="#789F44" />
<rect x="0" y="230" width="5" height="5" fill="#789F44" />
<rect x="5" y="230" width="5" height="5" fill="#789F44" />
<rect x="10" y="230" width="5" height="5" fill="#789F44" />
<rect x="15" y="230" width="5" height="5" fill="#789F44" />
<rect x="20" y="230" width="5" height="5" fill="#789F44" />
<rect x="0" y="235" width="5" height="5" fill="#789F44" />
<rect x="5" y="235" width="5" height="5" fill="#789F44" />
<rect x="10" y="235" width="5" height="5" fill="#789F44" />
<rect x="15" y="235" width="5" height="5" fill="#789F44" />
<rect x="20" y="235" width="5" height="5" fill="#789F44" />
<rect x="0" y="240" width="5" height="5" fill="#789F44" />
<rect x="5" y="240" width="5" height="5" fill="#789F44" />
<rect x="10" y="240" width="5" height="5" fill="#789F44" />
<rect x="15" y="240" width="5" height="5" fill="#789F44" />
<rect x="20" y="240" width="5" height="5" fill="#789F44" />
<rect x="0" y="245" width="5" height="5" fill="#789F44" />
<rect x="5" y="245" width="5" height="5" fill="#789F44" />
<rect x="10" y="245" width="5" height="5" fill="#789F44" />
<rect x="15" y="245" width="5" height="5" fill="#789F44" />
<rect x="20" y="245" width="5" height="5" fill="#789F44" />
<rect x="0" y="250" width="5" height="5" fill="#789F44" />
<rect x="5" y="250" width="5" height="5" fill="#789F44" />
<rect x="10" y="250" width="5" height="5" fill="#789F44" />
<rect x="15" y="250" width="5" height="5" fill="#789F44" />
<rect x="20" y="250" width="5" height="5" fill="#789F44" />
<rect x="0" y="255" width="5" height="5" fill="#789F44" />
<rect x="5" y="255" width="5" height="5" fill="#789F44" />
<rect x="10" y="255" width="5" height="5" fill="#789F44" />
<rect x="15" y="255" width="5" height="5" fill="#789F44" />
<rect x="20" y="255" width="5" height="5" fill="#789F44" />
<rect x="0" y="260" width="5" height="5" fill="#789F44" />
<rect x="5" y="260" width="5" height="5" fill="#789F44" />
<rect x="10" y="260" width="5" height="5" fill="#789F44" />
<rect x="15" y="260" width="5" height="5" fill="#789F44" />
<rect x="20" y="260" width="5" height="5" fill="#789F44" />
<rect x="0" y="265" width="5" height="5" fill="#789F44" />
<rect x="5" y="265" width="5" height="5" fill="#789F44" />
<rect x="10" y="265" width="5" height="5" fill="#789F44" />
<rect x="15" y="265" width="5" height="5" fill="#789F44" />
<rect x="20" y="265" width="5" height="5" fill="#789F44" />
<rect x="0" y="270" width="5" height="5" fill="#789F44" />
<rect x="5" y="270" width="5" height="5" fill="#789F44" />
<rect x="10" y="270" width="5" height="5" fill="#789F44" />
<rect x="15" y="270" width="5" height="5" fill="#789F44" />
<rect x="20" y="270" width="5" height="5" fill="#789F44" />
<rect x="0" y="275" width="5" height="5" fill="#789F44" />
<rect x="5" y="275" width="5" height="5" fill="#789F44" />
<rect x="10" y="275" width="5" height="5" fill="#789F44" />
<rect x="15" y="275" width="5" height="5" fill="#789F44" />
<rect x="20" y="275" width="5" height="5" fill="#789F44" />
</svg>