<?xml version="1.0" encoding="UTF-8" ?>
<svg version="1.1" width="25" height="350" xmlns="http://www.w3.org/2000/svg" shape-rendering="crispEdges">
<rect x="15" y="35" width="5" height="5" fill="#789F44" />
<rect x="15" y="40" width="5" height="5" fill="#789F44" />
<rect x="15" y="45" width="5" height="5" fill="#789F44" />
<rect x="15" y="50" width="5" height="5" fill="#789F44" />
<rect x="15" y="55" width="5" height="5" fill="#789F44" />
<rect x="10" y="60" width="5" height="5" fill="#789F44" />
<rect x="15" y="60" width="5" height="5" fill="#789F44" />
<rect x="10" y="65" width="5" height="5" fill="#789F44" />
<rect x="15" y="65" width="5" height="5" fill="#789F44" />
<rect x="10" y="70" width="5" height="5" fill="#789F44" />
<rect x="15" y="70" width="5" height="5" fill="#789F44" />
<rect x="10" y="75" width="5" height="5" fill="#789F44" />
<rect x="15" y="75" width="5" height="5" fill="#789F44" />
<rect x="10" y="80" width="5" height="5" fill="#789F44" />
<rect x="15" y="80" width="5" height="5" fill="#789F44" />
<rect x="5" y="85" width="5" height="5" fill="#789F44" />
<rect x="10" y="85" width="5" height="5" fill="#789F44" />
<rect x="15" y="85" width="5" height="5" fill="#789F44" />
<rect x="5" y="90" width="5" height="5" fill="#789F44" />
<rect x="10" y="90" width="5" height="5" fill="#789F44" />
<rect x="15" y="90" width="5" height="5" fill="#789F44" />
<rect x="5" y="95" width="5" height="5" fill="#789F44" />
<rect x="10" y="95" width="5" height="5" fill="#789F44" />
<rect x="15" y="95" width="5" height="5" fill="#789F44" />
<rect x="5" y="100" width="5" height="5" fill="#789F44" />
<rect x="10" y="100" width="5" height="5" fill="#789F44" />
<rect x="15" y="100" width="5" height="5" fill="#789F44" />
<rect x="5" y="105" width="5" height="5" fill="#789F44" />
<rect x="10" y="105" width="5" height="5" fill="#789F44" />
<rect x="15" y="105" width="5" height="5" fill="#789F44" />
<rect x="5" y="110" width="5" height="5" fill="#789F44" />
<rect x="10" y="110" width="5" height="5" fill="#789F44" />
<rect x="15" y="110" width="5" height="5" fill="#789F44" />
<rect x="5" y="115" width="5" height="5" fill="#789F44" />
<rect x="10" y="115" width="5" height="5" fill="#789F44" />
<rect x="5" y="120" width="5" height="5" fill="#789F44" />
<rect x="10" y="120" width="5" height="5" fill="#789F44" />
<rect x="5" y="125" width="5" height="5" fill="#789F44" />
<rect x="10" y="125" width="5" height="5" fill="#789F44" />
<rect x="0" y="130" width="5" height="5" fill="#789F44" />
<rect x="5" y="130" width="5" height="5" fill="#789F44" />
<rect x="10" y="130" width="5" height="5" fill="#789F44" />
<rect x="0" y="135" width="5" height="5" fill="#789F44" />
<rect x="5" y="135" width="5" height="5" fill="#789F44" />
<rect x="10" y="135" width="5" height="5" fill="#789F44" />
<rect x="0" y="140" width="5" height="5" fill="#789F44" />
<rect x="5" y="140" width="5" height="5" fill="#789F44" />
<rect x="10" y="140" width="5" height="5" fill="#789F44" />
<rect x="0" y="145" width="5" height="5" fill="#789F44" />
<rect x="5" y="145" width="5" height="5" fill="#789F44" />
<rect x="10" y="145" width="5" height="5" fill="#789F44" />
<rect x="0" y="150" width="5" height="5" fill="#789F44" />
<rect x="5" y="150" width="5" height="5" fill="#789F44" />
<rect x="10" y="150" width="5" height="5" fill="#789F44" />
<rect x="0" y="155" width="5" height="5" fill="#789F44" />
<rect x="5" y="155" width="5" height="5" fill="#789F44" />
<rect x="10" y="155" width="5" height="5" fill="#789F44" />
<rect x="0" y="160" width="5" height="5" fill="#789F44" />
<rect x="5" y="160" width="5" height="5" fill="#789F44" />
<rect x="10" y="160" width="5" height="5" fill="#789F44" />
<rect x="0" y="165" width="5" height="5" fill="#789F44" />
<rect x="5" y="165" width="5" height="5" fill="#789F44" />
<rect x="10" y="165" width="5" height="5" fill="#789F44" />
<rect x="0" y="170" width="5" height="5" fill="#789F44" />
<rect x="5" y="170" width="5" height="5" fill="#789F44" />
<rect x="10" y="170" width="5" height="5" fill="#789F44" />
<rect x="0" y="175" width="5" height="5" fill="#789F44" />
<rect x="5" y="175" width="5" height="5" fill="#789F44" />
<rect x="10" y="175" width="5" height="5" fill="#789F44" />
<rect x="0" y="180" width="5" height="5" fill="#789F44" />
<rect x="5" y="180" width="5" height="5" fill="#789F44" />
<rect x="10" y="180" width="5" height="5" fill="#789F44" />
<rect x="0" y="185" width="5" height="5" fill="#789F44" />
<rect x="5" y="185" width="5" height="5" fill="#789F44" />
<rect x="10" y="185" width="5" height="5" fill="#789F44" />
<rect x="0" y="190" width="5" height="5" fill="#789F44" />
<rect x="5" y="190" width="5" height="5" fill="#789F44" />
<rect x="10" y="190" width="5" height="5" fill="#789F44" />
<rect x="0" y="195" width="5" height="5" fill="#789F44" />
<rect x="5" y="195" width="5" height="5" fill="#789F44" />
<rect x="10" y="195" width="5" height="5" fill="#789F44" />
<rect x="15" y="195" width="5" height="5" fill="#789F44" />
<rect x="0" y="200" width="5" height="5" fill="#789F44" />
<rect x="5" y="200" width="5" height="5" fill="#789F44" />
<rect x="10" y="200" width="5" height="5" fill="#789F44" />
<rect x="15" y="200" width="5" height="5" fill="#789F44" />
<rect x="0" y="205" width="5" height="5" fill="#789F44" />
<rect x="5" y="205" width="5" height="5" fill="#789F44" />
<rect x="10" y="205" width="5" height="5" fill="#789F44" />
<rect x="15" y="205" width="5" height="5" fill="#789F44" />
<rect x="0" y="210" width="5" height="5" fill="#789F44" />
<rect x="5" y="210" width="5" height="5" fill="#789F44" />
<rect x="10" y="210" width="5" height="5" fill="#789F44" />
<rect x="15" y="210" width="5" height="5" fill="#789F44" />
<rect x="0" y="215" width="5" height="5" fill="#789F44" />
<rect x="5" y="215" width="5" height="5" fill="#789F44" />
<rect x="10" y="215" width="5" height="5" fill="#789F44" />
<rect x="15" y="215" width="5" height="5" fill="#789F44" />
<rect x="0" y="220" width="5" height="5" fill="#789F44" />
<rect x="5" y="220" width="5" height="5" fill="#789F44" />
<rect x="10" y="220" width="5" height="5" fill="#789F44" />
<rect x="15" y="220" width="5" height="5" fill="#789F44" />
<rect x="0" y="225" width="5" height="5" fill="#789F44" />
<rect x="5" y="225" width="5" height="5" fill="#789F44" />
<rect x="10" y="225" width="5" height="5" fill="#789F44" />
<rect x="15" y="225" width="5" height="5" fill="#789F44" />
<rect x="0" y="230" width="5" height="5" fill="#789F44" />
<rect x="5" y="230" width="5" height="5" fill="#789F44" />
<rect x="10" y="230" width="5" height="5" fill="#789F44" />
<rect x="15" y="230" width="5" height="5" fill="#789F44" />
<rect x="0" y="235" width="5" height="5" fill="#789F44" />
<rect x="5" y="235" width="5" height="5" fill="#789F44" />
<rect x="10" y="235" width="5" height="5" fill="#789F44" />
<rect x="15" y="235" width="5" height="5" fill="#789F44" />
<rect x="20" y="235" width="5" height="5" fill="#789F44" />
<rect x="0" y="240" width="5" height="5" fill="#789F44" />
<rect x="5" y="240" width="5" height="5" fill="#789F44" />
<rect x="10" y="240" width="5" height="5" fill="#789F44" />
<rect x="15" y="240" width="5" height="5" fill="#789F44" />
<rect x="20" y="240" width="5" height="5" fill="#789F44" />
<rect x="0" y="245" width="5" height="5" fill="#789F44" />
<rect x="5" y="245" width="5" height="5" fill="#789F44" />
<rect x="10" y="245" width="5" height="5" fill="#789F44" />
<rect x="15" y="245" width="5" height="5" fill="#789F44" />
<rect x="20" y="245" width="5" height="5" fill="#789F44" />
<rect x="0" y="250" width="5" height="5" fill="#789F44" />
<rect x="5" y="250" width="5" height="5" fill="#789F44" />
<rect x="10" y="250" width="5" height="5" fill="#789F44" />
<rect x="15" y="250" width="5" height="5" fill="#789F44" />
<rect x="20" y="250" width="5" height="5" fill="#789F44" />
<rect x="0" y="255" width="5" height="5" fill="#789F44" />
<rect x="5" y="255" width="5" height="5" fill="#789F44" />
<rect x="10" y="255" width="5" height="5" fill="#789F44" />
<rect x="15" y="255" width="5" height="5" fill="#789F44" />
<rect x="20" y="255" width="5" height="5" fill="#789F44" />
<rect x="0" y="260" width="5" height="5" fill="#789F44" />
<rect x="5" y="260" width="5" height="5" fill="#789F44" />
<rect x="10" y="260" width="5" height="5" fill="#789F44" />
<rect x="15" y="260" width="5" height="5" fill="#789F44" />
<rect x="20" y="260" width="5" height="5" fill="#789F44" />
<rect x="0" y="265" width="5" height="5" fill="#789F44" />
<rect x="5" y="265" width="5" height="5" fill="#789F44" />
<rect x="10" y="265" width="5" height="5" fill="#789F44" />
<rect x="15" y="265" width="5" height="5" fill="#789F44" />
<rect x="20" y="265" width="5" height="5" fill="#789F44" />
<rect x="0" y="270" width="5" height="5" fill="#789F44" />
<rect x="5" y="270" width="5" height="5" fill="#789F44" />
<rect x="10" y="270" width="5" height="5" fill="#789F44" />
<rect x="15" y="270" width="5" height="5" fill="#789F44" />
<rect x="20" y="270" width="5" height="5" fill="#789F44" />
<rect x="0" y="275" width="5" height="5" fill="#789F44" />
<rect x="5" y="275" width="5" height="5" fill="#789F44" />
<rect x="10" y="275" width="5" height="5" fill="#789F44" />
<rect x="15" y="275" width="5" height="5" fill="#789F44" />
<rect x="20" y="275" width="5" height="5" fill="#789F44" />
<rect x="0" y="280" width="5" height="5" fill="#789F44" />
<rect x="5" y="280" width="5" height="5" fill="#789F44" />
<rect x="10" y="280" width="5" height="5" fill="#789F44" />
<rect x="15" y="280" width="5" height="5" fill="#789F44" />
<rect x="20" y="280" width="5" height="5" fill="#789F44" />
<rect x="0" y="285" width="5" height="5" fill="#789F44" />
<rect x="5" y="285" width="5" height="5" fill="#789F44" />
<rect x="10" y="285" width="5" height="5" fill="#789F44" />
<rect x="15" y="285" width="5" height="5" fill="#789F44" />
<rect x="20" y="285" width="5" height="5" fill="#789F44" />
<rect x="0" y="290" width="5" height="5" fill="#789F44" />
<rect x="5" y="290" width="5" height="5" fill="#789F44" />
<rect x="10" y="290" width="5" height="5" fill="#789F44" />
<rect x="15" y="290" width="5" height="5" fill="#789F44" />
<rect x="20" y="290" width="5" height="5" fill="#789F44" />
<rect x="0" y="295" width="5" height="5" fill="#789F44" />
<rect x="5" y="295" width="5" height="5" fill="#789F44" />
<rect x="10" y="295" width="5" height="5" fill="#789F44" />
<rect x="15" y="295" width="5" height="5" fill="#789F44" />
<rect x="20" y="295" width="5" height="5" fill="#789F44" />
<rect x="0" y="300" width="5" height="5" fill="#789F44" />
<rect x="5" y="300" width="5" height="5" fill="#789F44" />
<rect x="10" y="300" width="5" height="5" fill="#789F44" />
<rect x="15" y="300" width="5" height="5" fill="#789F44" />
<rect x="20" y="300" width="5" height="5" fill="#789F44" />
<rect x="0" y="305" width="5" height="5" fill="#789F44" />
<rect x="5" y="305" width="5" height="5" fill="#789F44" />
<rect x="10" y="305" width="5" height="5" fill="#789F44" />
<rect x="15" y="305" width="5" height="5" fill="#789F44" />
<rect x="20" y="305" width="5" height="5" fill="#789F44" />
<rect x="0" y="310" width="5" height="5" fill="#789F44" />
<rect x="5" y="310" width="5" height="5" fill="#789F44" />
<rect x="10" y="310" width="5" height="5" fill="#789F44" />
<rect x="15" y="310" width="5" height="5" fill="#789F44" />
<rect x="20" y="310" width="5" height="5" fill="#789F44" />
<rect x="0" y="315" width="5" height="5" fill="#789F44" />
<rect x="5" y="315" width="5" height="5" fill="#789F44" />
<rect x="10" y="315" width="5" height="5" fill="#789F44" />
<rect x="15" y="315" width="5" height="5" fill="#789F44" />
<rect x="20" y="315" width="5" height="5" fill="#789F44" />
<rect x="0" y="320" width="5" height="5" fill="#789F44" />
<rect x="5" y="320" width="5" height="5" fill="#789F44" />
<rect x="10" y="320" width="5" height="5" fill="#789F44" />
<rect x="15" y="320" width="5" height="5" fill="#789F44" />
<rect x="20" y="320" width="5" height="5" fill="#789F44" />
<rect x="0" y="325" width="5" height="5" fill="#789F44" />
<rect x="5" y="325" width="5" height="5" fill="#789F44" />
<rect x="10" y="325" width="5" height="5" fill="#789F44" />
<rect x="15" y="325" width="5" height="5" fill="#789F44" />
<rect x="20" y="325" width="5" height="5" fill="#789F44" />
<rect x="0" y="330" width="5" height="5" fill="#789F44" />
<rect x="5" y="330" width="5" height="5" fill="#789F44" />
<rect x="10" y="330" width="5" height="5" fill="#789F44" />
<rect x="15" y="330" width="5" height="5" fill="#789F44" />
<rect x="20" y="330" width="5" height="5" fill="#789F44" />
<rect x="0" y="335" width="5" height="5" fill="#789F44" />
<rect x="5" y="335" width="5" height="5" fill="#789F44" />
<rect x="10" y="335" width="5" height="5" fill="#789F44" />
<rect x="15" y="335" width="5" height="5" fill="#789F44" />
<rect x="20" y="335" width="5" height="5" fill="#789F44" />
<rect x="0" y="340" width="5" height="5" fill="#789F44" />
<rect x="5" y="340" width="5" height="5" fill="#789F44" />
<rect x="10" y="340" width="5" height="5" fill="#789F44" />
<rect x="15" y="340" width="5" height="5" fill="#789F44" />
<rect x="20" y="340" width="5" height="5" fill="#789F44" />
<rect x="0" y="345" width="5" height="5" fill="#789F44" />
<rect x="5" y="345" width="5" height="5" fill="#789F44" />
<rect x="10" y="345" width="5" height="5" fill="#789F44" />
<rect x="15" y="345" width="5" height="5" fill="#789F44" />
<rect x="20" y="345" width="5" height="5" fill="#789F44" />
</svg>