<?xml version="1.0" encoding="UTF-8" ?>
<svg version="1.1" width="500" height="500" xmlns="http://www.w3.org/2000/svg" shape-rendering="crispEdges">
<rect x="220" y="40" width="10" height="10" fill="#FBF2F2" />
<rect x="260" y="40" width="10" height="10" fill="#FBF2F2" />
<rect x="210" y="50" width="10" height="10" fill="#FBF2F2" />
<rect x="220" y="50" width="10" height="10" fill="#FBF2F2" />
<rect x="250" y="50" width="10" height="10" fill="#FBF2F2" />
<rect x="260" y="50" width="10" height="10" fill="#FBF2F2" />
<rect x="270" y="50" width="10" height="10" fill="#FBF2F2" />
<rect x="230" y="60" width="10" height="10" fill="#539D31" />
<rect x="260" y="60" width="10" height="10" fill="#FBF2F2" />
<rect x="240" y="70" width="10" height="10" fill="#539D31" />
<rect x="260" y="70" width="10" height="10" fill="#8CB53B" />
<rect x="240" y="80" width="10" height="10" fill="#539D31" />
<rect x="250" y="80" width="10" height="10" fill="#8CB53B" />
<rect x="260" y="80" width="10" height="10" fill="#8CB53B" />
<rect x="200" y="90" width="10" height="10" fill="#8CB53B" />
<rect x="250" y="90" width="10" height="10" fill="#8CB53B" />
<rect x="200" y="100" width="10" height="10" fill="#8CB53B" />
<rect x="210" y="100" width="10" height="10" fill="#539D31" />
<rect x="250" y="100" width="10" height="10" fill="#8CB53B" />
<rect x="290" y="100" width="10" height="10" fill="#8CB53B" />
<rect x="200" y="110" width="10" height="10" fill="#8CB53B" />
<rect x="210" y="110" width="10" height="10" fill="#539D31" />
<rect x="250" y="110" width="10" height="10" fill="#8CB53B" />
<rect x="290" y="110" width="10" height="10" fill="#539D31" />
<rect x="210" y="120" width="10" height="10" fill="#8CB53B" />
<rect x="220" y="120" width="10" height="10" fill="#539D31" />
<rect x="240" y="120" width="10" height="10" fill="#8CB53B" />
<rect x="270" y="120" width="10" height="10" fill="#8CB53B" />
<rect x="280" y="120" width="10" height="10" fill="#539D31" />
<rect x="210" y="130" width="10" height="10" fill="#8CB53B" />
<rect x="220" y="130" width="10" height="10" fill="#539D31" />
<rect x="240" y="130" width="10" height="10" fill="#8CB53B" />
<rect x="250" y="130" width="10" height="10" fill="#8CB53B" />
<rect x="260" y="130" width="10" height="10" fill="#539D31" />
<rect x="220" y="140" width="10" height="10" fill="#8CB53B" />
<rect x="230" y="140" width="10" height="10" fill="#8CB53B" />
<rect x="240" y="140" width="10" height="10" fill="#8CB53B" />
<rect x="240" y="150" width="10" height="10" fill="#8CB53B" />
<rect x="240" y="160" width="10" height="10" fill="#8CB53B" />
<rect x="240" y="170" width="10" height="10" fill="#8CB53B" />
<rect x="240" y="180" width="10" height="10" fill="#8CB53B" />
<rect x="240" y="190" width="10" height="10" fill="#8CB53B" />
<rect x="240" y="200" width="10" height="10" fill="#8CB53B" />
<rect x="180" y="210" width="10" height="10" fill="#8CB53B" />
<rect x="190" y="210" width="10" height="10" fill="#8CB53B" />
<rect x="240" y="210" width="10" height="10" fill="#8CB53B" />
<rect x="190" y="220" width="10" height="10" fill="#8CB53B" />
<rect x="200" y="220" width="10" height="10" fill="#8CB53B" />
<rect x="240" y="220" width="10" height="10" fill="#8CB53B" />
<rect x="200" y="230" width="10" height="10" fill="#8CB53B" />
<rect x="240" y="230" width="10" height="10" fill="#8CB53B" />
<rect x="200" y="240" width="10" height="10" fill="#539D31" />
<rect x="210" y="240" width="10" height="10" fill="#8CB53B" />
<rect x="220" y="240" width="10" height="10" fill="#8CB53B" />
<rect x="230" y="240" width="10" height="10" fill="#8CB53B" />
<rect x="240" y="240" width="10" height="10" fill="#8CB53B" />
<rect x="320" y="240" width="10" height="10" fill="#8CB53B" />
<rect x="330" y="240" width="10" height="10" fill="#8CB53B" />
<rect x="240" y="250" width="10" height="10" fill="#8CB53B" />
<rect x="320" y="250" width="10" height="10" fill="#8CB53B" />
<rect x="240" y="260" width="10" height="10" fill="#8CB53B" />
<rect x="310" y="260" width="10" height="10" fill="#8CB53B" />
<rect x="320" y="260" width="10" height="10" fill="#539D31" />
<rect x="240" y="270" width="10" height="10" fill="#8CB53B" />
<rect x="270" y="270" width="10" height="10" fill="#8CB53B" />
<rect x="280" y="270" width="10" height="10" fill="#8CB53B" />
<rect x="290" y="270" width="10" height="10" fill="#8CB53B" />
<rect x="300" y="270" width="10" height="10" fill="#8CB53B" />
<rect x="310" y="270" width="10" height="10" fill="#539D31" />
<rect x="240" y="280" width="10" height="10" fill="#8CB53B" />
<rect x="250" y="280" width="10" height="10" fill="#8CB53B" />
<rect x="260" y="280" width="10" height="10" fill="#8CB53B" />
<rect x="270" y="280" width="10" height="10" fill="#8CB53B" />
<rect x="240" y="290" width="10" height="10" fill="#8CB53B" />
<rect x="220" y="300" width="10" height="10" fill="#8CB53B" />
<rect x="240" y="300" width="10" height="10" fill="#8CB53B" />
<rect x="220" y="310" width="10" height="10" fill="#8CB53B" />
<rect x="240" y="310" width="10" height="10" fill="#8CB53B" />
<rect x="230" y="320" width="10" height="10" fill="#8CB53B" />
<rect x="240" y="320" width="10" height="10" fill="#8CB53B" />
<rect x="240" y="330" width="10" height="10" fill="#8CB53B" />
<rect x="260" y="330" width="10" height="10" fill="#539D31" />
<rect x="240" y="340" width="10" height="10" fill="#8CB53B" />
<rect x="250" y="340" width="10" height="10" fill="#539D31" />
<rect x="240" y="350" width="10" height="10" fill="#8CB53B" />
<rect x="240" y="360" width="10" height="10" fill="#8CB53B" />
<rect x="240" y="370" width="10" height="10" fill="#8CB53B" />
<rect x="240" y="380" width="10" height="10" fill="#8CB53B" />
<rect x="180" y="390" width="10" height="10" fill="#8CB53B" />
<rect x="190" y="390" width="10" height="10" fill="#8CB53B" />
<rect x="200" y="390" width="10" height="10" fill="#8CB53B" />
<rect x="210" y="390" width="10" height="10" fill="#8CB53B" />
<rect x="240" y="390" width="10" height="10" fill="#8CB53B" />
<rect x="270" y="390" width="10" height="10" fill="#8CB53B" />
<rect x="280" y="390" width="10" height="10" fill="#5FAE3A" />
<rect x="290" y="390" width="10" height="10" fill="#8CB53B" />
<rect x="160" y="400" width="10" height="10" fill="#539D31" />
<rect x="170" y="400" width="10" height="10" fill="#539D31" />
<rect x="180" y="400" width="10" height="10" fill="#539D31" />
<rect x="190" y="400" width="10" height="10" fill="#539D31" />
<rect x="200" y="400" width="10" height="10" fill="#539D31" />
<rect x="210" y="400" width="10" height="10" fill="#8CB53B" />
<rect x="220" y="400" width="10" height="10" fill="#8CB53B" />
<rect x="240" y="400" width="10" height="10" fill="#8CB53B" />
<rect x="260" y="400" width="10" height="10" fill="#5FAE3A" />
<rect x="270" y="400" width="10" height="10" fill="#5FAE3A" />
<rect x="280" y="400" width="10" height="10" fill="#8CB53B" />
<rect x="290" y="400" width="10" height="10" fill="#539D31" />
<rect x="160" y="410" width="10" height="10" fill="#539D31" />
<rect x="170" y="410" width="10" height="10" fill="#539D31" />
<rect x="200" y="410" width="10" height="10" fill="#539D31" />
<rect x="210" y="410" width="10" height="10" fill="#539D31" />
<rect x="220" y="410" width="10" height="10" fill="#8CB53B" />
<rect x="230" y="410" width="10" height="10" fill="#8CB53B" />
<rect x="240" y="410" width="10" height="10" fill="#8CB53B" />
<rect x="250" y="410" width="10" height="10" fill="#5FAE3A" />
<rect x="260" y="410" width="10" height="10" fill="#5FAE3A" />
<rect x="270" y="410" width="10" height="10" fill="#8CB53B" />
<rect x="280" y="410" width="10" height="10" fill="#539D31" />
<rect x="290" y="410" width="10" height="10" fill="#539D31" />
<rect x="160" y="420" width="10" height="10" fill="#8CB53B" />
<rect x="170" y="420" width="10" height="10" fill="#5FAE3A" />
<rect x="180" y="420" width="10" height="10" fill="#5FAE3A" />
<rect x="190" y="420" width="10" height="10" fill="#5FAE3A" />
<rect x="200" y="420" width="10" height="10" fill="#5FAE3A" />
<rect x="210" y="420" width="10" height="10" fill="#5FAE3A" />
<rect x="220" y="420" width="10" height="10" fill="#8CB53B" />
<rect x="230" y="420" width="10" height="10" fill="#8CB53B" />
<rect x="240" y="420" width="10" height="10" fill="#8CB53B" />
<rect x="250" y="420" width="10" height="10" fill="#5FAE3A" />
<rect x="260" y="420" width="10" height="10" fill="#8CB53B" />
<rect x="300" y="420" width="10" height="10" fill="#8CB53B" />
<rect x="310" y="420" width="10" height="10" fill="#8CB53B" />
<rect x="140" y="430" width="10" height="10" fill="#8CB53B" />
<rect x="150" y="430" width="10" height="10" fill="#5FAE3A" />
<rect x="160" y="430" width="10" height="10" fill="#5FAE3A" />
<rect x="170" y="430" width="10" height="10" fill="#8CB53B" />
<rect x="180" y="430" width="10" height="10" fill="#8CB53B" />
<rect x="190" y="430" width="10" height="10" fill="#539D31" />
<rect x="200" y="430" width="10" height="10" fill="#539D31" />
<rect x="210" y="430" width="10" height="10" fill="#539D31" />
<rect x="220" y="430" width="10" height="10" fill="#539D31" />
<rect x="230" y="430" width="10" height="10" fill="#5FAE3A" />
<rect x="240" y="430" width="10" height="10" fill="#5FAE3A" />
<rect x="250" y="430" width="10" height="10" fill="#539D31" />
<rect x="260" y="430" width="10" height="10" fill="#539D31" />
<rect x="270" y="430" width="10" height="10" fill="#539D31" />
<rect x="280" y="430" width="10" height="10" fill="#8CB53B" />
<rect x="290" y="430" width="10" height="10" fill="#8CB53B" />
<rect x="300" y="430" width="10" height="10" fill="#8CB53B" />
<rect x="310" y="430" width="10" height="10" fill="#5FAE3A" />
<rect x="320" y="430" width="10" height="10" fill="#8CB53B" />
<rect x="330" y="430" width="10" height="10" fill="#8CB53B" />
<rect x="130" y="440" width="10" height="10" fill="#8CB53B" />
<rect x="140" y="440" width="10" height="10" fill="#5FAE3A" />
<rect x="150" y="440" width="10" height="10" fill="#8CB53B" />
<rect x="160" y="440" width="10" height="10" fill="#8CB53B" />
<rect x="170" y="440" width="10" height="10" fill="#539D31" />
<rect x="180" y="440" width="10" height="10" fill="#539D31" />
<rect x="220" y="440" width="10" height="10" fill="#8CB53B" />
<rect x="230" y="440" width="10" height="10" fill="#5FAE3A" />
<rect x="240" y="440" width="10" height="10" fill="#8CB53B" />
<rect x="270" y="440" width="10" height="10" fill="#539D31" />
<rect x="280" y="440" width="10" height="10" fill="#539D31" />
<rect x="290" y="440" width="10" height="10" fill="#539D31" />
<rect x="300" y="440" width="10" height="10" fill="#539D31" />
<rect x="310" y="440" width="10" height="10" fill="#8CB53B" />
<rect x="320" y="440" width="10" height="10" fill="#5FAE3A" />
<rect x="330" y="440" width="10" height="10" fill="#8CB53B" />
<rect x="140" y="450" width="10" height="10" fill="#8CB53B" />
<rect x="150" y="450" width="10" height="10" fill="#539D31" />
<rect x="160" y="450" width="10" height="10" fill="#539D31" />
<rect x="170" y="450" width="10" height="10" fill="#539D31" />
<rect x="210" y="450" width="10" height="10" fill="#8CB53B" />
<rect x="220" y="450" width="10" height="10" fill="#5FAE3A" />
<rect x="230" y="450" width="10" height="10" fill="#8CB53B" />
<rect x="240" y="450" width="10" height="10" fill="#8CB53B" />
<rect x="310" y="450" width="10" height="10" fill="#8CB53B" />
<rect x="320" y="450" width="10" height="10" fill="#8CB53B" />
<rect x="330" y="450" width="10" height="10" fill="#539D31" />
<rect x="140" y="460" width="10" height="10" fill="#8CB53B" />
<rect x="150" y="460" width="10" height="10" fill="#539D31" />
<rect x="210" y="460" width="10" height="10" fill="#8CB53B" />
<rect x="220" y="460" width="10" height="10" fill="#5FAE3A" />
<rect x="230" y="460" width="10" height="10" fill="#8CB53B" />
<rect x="240" y="460" width="10" height="10" fill="#8CB53B" />
<rect x="210" y="470" width="10" height="10" fill="#8CB53B" />
<rect x="220" y="470" width="10" height="10" fill="#5FAE3A" />
<rect x="230" y="470" width="10" height="10" fill="#8CB53B" />
<rect x="240" y="470" width="10" height="10" fill="#8CB53B" />
<rect x="220" y="480" width="10" height="10" fill="#5FAE3A" />
<rect x="230" y="480" width="10" height="10" fill="#8CB53B" />
</svg>