<?xml version="1.0" encoding="UTF-8" ?>
<svg version="1.1" width="500" height="500" xmlns="http://www.w3.org/2000/svg" shape-rendering="crispEdges">
<rect x="240" y="20" width="10" height="10" fill="#539D31" />
<rect x="230" y="30" width="10" height="10" fill="#539D31" />
<rect x="220" y="40" width="10" height="10" fill="#F2EAE1" />
<rect x="230" y="40" width="10" height="10" fill="#539D31" />
<rect x="210" y="50" width="10" height="10" fill="#F2EAE1" />
<rect x="220" y="50" width="10" height="10" fill="#F2EAE1" />
<rect x="230" y="50" width="10" height="10" fill="#539D31" />
<rect x="250" y="50" width="10" height="10" fill="#539D31" />
<rect x="260" y="50" width="10" height="10" fill="#539D31" />
<rect x="210" y="60" width="10" height="10" fill="#5FAE3A" />
<rect x="220" y="60" width="10" height="10" fill="#F2EAE1" />
<rect x="230" y="60" width="10" height="10" fill="#539D31" />
<rect x="240" y="60" width="10" height="10" fill="#5FAE3A" />
<rect x="250" y="60" width="10" height="10" fill="#539D31" />
<rect x="210" y="70" width="10" height="10" fill="#5FAE3A" />
<rect x="220" y="70" width="10" height="10" fill="#5FAE3A" />
<rect x="230" y="70" width="10" height="10" fill="#539D31" />
<rect x="240" y="70" width="10" height="10" fill="#5FAE3A" />
<rect x="250" y="70" width="10" height="10" fill="#539D31" />
<rect x="210" y="80" width="10" height="10" fill="#5FAE3A" />
<rect x="220" y="80" width="10" height="10" fill="#5FAE3A" />
<rect x="230" y="80" width="10" height="10" fill="#539D31" />
<rect x="240" y="80" width="10" height="10" fill="#539D31" />
<rect x="260" y="80" width="10" height="10" fill="#539D31" />
<rect x="270" y="80" width="10" height="10" fill="#539D31" />
<rect x="220" y="90" width="10" height="10" fill="#5FAE3A" />
<rect x="230" y="90" width="10" height="10" fill="#539D31" />
<rect x="240" y="90" width="10" height="10" fill="#539D31" />
<rect x="250" y="90" width="10" height="10" fill="#539D31" />
<rect x="260" y="90" width="10" height="10" fill="#5FAE3A" />
<rect x="190" y="100" width="10" height="10" fill="#8CB53B" />
<rect x="200" y="100" width="10" height="10" fill="#8CB53B" />
<rect x="220" y="100" width="10" height="10" fill="#5FAE3A" />
<rect x="230" y="100" width="10" height="10" fill="#539D31" />
<rect x="240" y="100" width="10" height="10" fill="#5FAE3A" />
<rect x="250" y="100" width="10" height="10" fill="#5FAE3A" />
<rect x="260" y="100" width="10" height="10" fill="#5FAE3A" />
<rect x="190" y="110" width="10" height="10" fill="#8CB53B" />
<rect x="200" y="110" width="10" height="10" fill="#8CB53B" />
<rect x="220" y="110" width="10" height="10" fill="#539D31" />
<rect x="230" y="110" width="10" height="10" fill="#5FAE3A" />
<rect x="240" y="110" width="10" height="10" fill="#5FAE3A" />
<rect x="250" y="110" width="10" height="10" fill="#539D31" />
<rect x="260" y="110" width="10" height="10" fill="#539D31" />
<rect x="190" y="120" width="10" height="10" fill="#8CB53B" />
<rect x="200" y="120" width="10" height="10" fill="#5FAE3A" />
<rect x="210" y="120" width="10" height="10" fill="#539D31" />
<rect x="230" y="120" width="10" height="10" fill="#5FAE3A" />
<rect x="240" y="120" width="10" height="10" fill="#F2EAE1" />
<rect x="250" y="120" width="10" height="10" fill="#539D31" />
<rect x="190" y="130" width="10" height="10" fill="#5FAE3A" />
<rect x="200" y="130" width="10" height="10" fill="#5FAE3A" />
<rect x="210" y="130" width="10" height="10" fill="#8CB53B" />
<rect x="220" y="130" width="10" height="10" fill="#539D31" />
<rect x="230" y="130" width="10" height="10" fill="#F2EAE1" />
<rect x="240" y="130" width="10" height="10" fill="#DAE59D" />
<rect x="250" y="130" width="10" height="10" fill="#F2EAE1" />
<rect x="270" y="130" width="10" height="10" fill="#8CB53B" />
<rect x="280" y="130" width="10" height="10" fill="#8CB53B" />
<rect x="290" y="130" width="10" height="10" fill="#8CB53B" />
<rect x="300" y="130" width="10" height="10" fill="#8CB53B" />
<rect x="310" y="130" width="10" height="10" fill="#8CB53B" />
<rect x="190" y="140" width="10" height="10" fill="#5FAE3A" />
<rect x="200" y="140" width="10" height="10" fill="#5FAE3A" />
<rect x="210" y="140" width="10" height="10" fill="#8CB53B" />
<rect x="220" y="140" width="10" height="10" fill="#539D31" />
<rect x="240" y="140" width="10" height="10" fill="#F2EAE1" />
<rect x="260" y="140" width="10" height="10" fill="#8CB53B" />
<rect x="270" y="140" width="10" height="10" fill="#8CB53B" />
<rect x="280" y="140" width="10" height="10" fill="#8CB53B" />
<rect x="290" y="140" width="10" height="10" fill="#539D31" />
<rect x="300" y="140" width="10" height="10" fill="#539D31" />
<rect x="310" y="140" width="10" height="10" fill="#539D31" />
<rect x="190" y="150" width="10" height="10" fill="#5FAE3A" />
<rect x="200" y="150" width="10" height="10" fill="#5FAE3A" />
<rect x="210" y="150" width="10" height="10" fill="#539D31" />
<rect x="220" y="150" width="10" height="10" fill="#539D31" />
<rect x="250" y="150" width="10" height="10" fill="#8CB53B" />
<rect x="260" y="150" width="10" height="10" fill="#8CB53B" />
<rect x="270" y="150" width="10" height="10" fill="#8CB53B" />
<rect x="280" y="150" width="10" height="10" fill="#539D31" />
<rect x="290" y="150" width="10" height="10" fill="#539D31" />
<rect x="300" y="150" width="10" height="10" fill="#539D31" />
<rect x="310" y="150" width="10" height="10" fill="#539D31" />
<rect x="200" y="160" width="10" height="10" fill="#5FAE3A" />
<rect x="210" y="160" width="10" height="10" fill="#539D31" />
<rect x="220" y="160" width="10" height="10" fill="#539D31" />
<rect x="230" y="160" width="10" height="10" fill="#539D31" />
<rect x="240" y="160" width="10" height="10" fill="#539D31" />
<rect x="250" y="160" width="10" height="10" fill="#8CB53B" />
<rect x="270" y="160" width="10" height="10" fill="#539D31" />
<rect x="280" y="160" width="10" height="10" fill="#539D31" />
<rect x="220" y="170" width="10" height="10" fill="#539D31" />
<rect x="230" y="170" width="10" height="10" fill="#539D31" />
<rect x="240" y="170" width="10" height="10" fill="#539D31" />
<rect x="320" y="170" width="10" height="10" fill="#539D31" />
<rect x="330" y="170" width="10" height="10" fill="#539D31" />
<rect x="120" y="180" width="10" height="10" fill="#8CB53B" />
<rect x="130" y="180" width="10" height="10" fill="#8CB53B" />
<rect x="140" y="180" width="10" height="10" fill="#5FAE3A" />
<rect x="150" y="180" width="10" height="10" fill="#5FAE3A" />
<rect x="220" y="180" width="10" height="10" fill="#539D31" />
<rect x="270" y="180" width="10" height="10" fill="#539D31" />
<rect x="280" y="180" width="10" height="10" fill="#539D31" />
<rect x="290" y="180" width="10" height="10" fill="#539D31" />
<rect x="300" y="180" width="10" height="10" fill="#539D31" />
<rect x="310" y="180" width="10" height="10" fill="#539D31" />
<rect x="320" y="180" width="10" height="10" fill="#539D31" />
<rect x="330" y="180" width="10" height="10" fill="#539D31" />
<rect x="120" y="190" width="10" height="10" fill="#8CB53B" />
<rect x="130" y="190" width="10" height="10" fill="#8CB53B" />
<rect x="140" y="190" width="10" height="10" fill="#5FAE3A" />
<rect x="150" y="190" width="10" height="10" fill="#5FAE3A" />
<rect x="160" y="190" width="10" height="10" fill="#5FAE3A" />
<rect x="170" y="190" width="10" height="10" fill="#5FAE3A" />
<rect x="220" y="190" width="10" height="10" fill="#539D31" />
<rect x="260" y="190" width="10" height="10" fill="#539D31" />
<rect x="270" y="190" width="10" height="10" fill="#539D31" />
<rect x="280" y="190" width="10" height="10" fill="#539D31" />
<rect x="290" y="190" width="10" height="10" fill="#539D31" />
<rect x="300" y="190" width="10" height="10" fill="#539D31" />
<rect x="320" y="190" width="10" height="10" fill="#539D31" />
<rect x="130" y="200" width="10" height="10" fill="#8CB53B" />
<rect x="140" y="200" width="10" height="10" fill="#5FAE3A" />
<rect x="150" y="200" width="10" height="10" fill="#5FAE3A" />
<rect x="160" y="200" width="10" height="10" fill="#5FAE3A" />
<rect x="170" y="200" width="10" height="10" fill="#5FAE3A" />
<rect x="180" y="200" width="10" height="10" fill="#5FAE3A" />
<rect x="220" y="200" width="10" height="10" fill="#539D31" />
<rect x="230" y="200" width="10" height="10" fill="#539D31" />
<rect x="240" y="200" width="10" height="10" fill="#539D31" />
<rect x="250" y="200" width="10" height="10" fill="#539D31" />
<rect x="260" y="200" width="10" height="10" fill="#539D31" />
<rect x="270" y="200" width="10" height="10" fill="#539D31" />
<rect x="280" y="200" width="10" height="10" fill="#539D31" />
<rect x="290" y="200" width="10" height="10" fill="#539D31" />
<rect x="300" y="200" width="10" height="10" fill="#539D31" />
<rect x="310" y="200" width="10" height="10" fill="#539D31" />
<rect x="140" y="210" width="10" height="10" fill="#5FAE3A" />
<rect x="150" y="210" width="10" height="10" fill="#5FAE3A" />
<rect x="160" y="210" width="10" height="10" fill="#5FAE3A" />
<rect x="170" y="210" width="10" height="10" fill="#5FAE3A" />
<rect x="180" y="210" width="10" height="10" fill="#5FAE3A" />
<rect x="190" y="210" width="10" height="10" fill="#5FAE3A" />
<rect x="200" y="210" width="10" height="10" fill="#5FAE3A" />
<rect x="220" y="210" width="10" height="10" fill="#539D31" />
<rect x="230" y="210" width="10" height="10" fill="#539D31" />
<rect x="280" y="210" width="10" height="10" fill="#539D31" />
<rect x="290" y="210" width="10" height="10" fill="#539D31" />
<rect x="150" y="220" width="10" height="10" fill="#5FAE3A" />
<rect x="160" y="220" width="10" height="10" fill="#5FAE3A" />
<rect x="170" y="220" width="10" height="10" fill="#539D31" />
<rect x="210" y="220" width="10" height="10" fill="#5FAE3A" />
<rect x="220" y="220" width="10" height="10" fill="#539D31" />
<rect x="220" y="230" width="10" height="10" fill="#8CB53B" />
<rect x="220" y="240" width="10" height="10" fill="#8CB53B" />
<rect x="220" y="250" width="10" height="10" fill="#8CB53B" />
<rect x="240" y="250" width="10" height="10" fill="#539D31" />
<rect x="250" y="250" width="10" height="10" fill="#539D31" />
<rect x="260" y="250" width="10" height="10" fill="#539D31" />
<rect x="130" y="260" width="10" height="10" fill="#5FAE3A" />
<rect x="140" y="260" width="10" height="10" fill="#5FAE3A" />
<rect x="150" y="260" width="10" height="10" fill="#5FAE3A" />
<rect x="160" y="260" width="10" height="10" fill="#5FAE3A" />
<rect x="170" y="260" width="10" height="10" fill="#539D31" />
<rect x="220" y="260" width="10" height="10" fill="#8CB53B" />
<rect x="230" y="260" width="10" height="10" fill="#539D31" />
<rect x="260" y="260" width="10" height="10" fill="#5FAE3A" />
<rect x="270" y="260" width="10" height="10" fill="#5FAE3A" />
<rect x="280" y="260" width="10" height="10" fill="#539D31" />
<rect x="290" y="260" width="10" height="10" fill="#5FAE3A" />
<rect x="300" y="260" width="10" height="10" fill="#5FAE3A" />
<rect x="310" y="260" width="10" height="10" fill="#5FAE3A" />
<rect x="320" y="260" width="10" height="10" fill="#5FAE3A" />
<rect x="100" y="270" width="10" height="10" fill="#8CB53B" />
<rect x="110" y="270" width="10" height="10" fill="#8CB53B" />
<rect x="120" y="270" width="10" height="10" fill="#5FAE3A" />
<rect x="130" y="270" width="10" height="10" fill="#5FAE3A" />
<rect x="140" y="270" width="10" height="10" fill="#5FAE3A" />
<rect x="150" y="270" width="10" height="10" fill="#539D31" />
<rect x="160" y="270" width="10" height="10" fill="#539D31" />
<rect x="170" y="270" width="10" height="10" fill="#539D31" />
<rect x="180" y="270" width="10" height="10" fill="#539D31" />
<rect x="190" y="270" width="10" height="10" fill="#539D31" />
<rect x="200" y="270" width="10" height="10" fill="#539D31" />
<rect x="220" y="270" width="10" height="10" fill="#8CB53B" />
<rect x="250" y="270" width="10" height="10" fill="#539D31" />
<rect x="260" y="270" width="10" height="10" fill="#539D31" />
<rect x="270" y="270" width="10" height="10" fill="#539D31" />
<rect x="280" y="270" width="10" height="10" fill="#5FAE3A" />
<rect x="290" y="270" width="10" height="10" fill="#539D31" />
<rect x="300" y="270" width="10" height="10" fill="#5FAE3A" />
<rect x="310" y="270" width="10" height="10" fill="#5FAE3A" />
<rect x="320" y="270" width="10" height="10" fill="#5FAE3A" />
<rect x="330" y="270" width="10" height="10" fill="#5FAE3A" />
<rect x="340" y="270" width="10" height="10" fill="#5FAE3A" />
<rect x="90" y="280" width="10" height="10" fill="#8CB53B" />
<rect x="100" y="280" width="10" height="10" fill="#8CB53B" />
<rect x="110" y="280" width="10" height="10" fill="#5FAE3A" />
<rect x="120" y="280" width="10" height="10" fill="#5FAE3A" />
<rect x="130" y="280" width="10" height="10" fill="#539D31" />
<rect x="140" y="280" width="10" height="10" fill="#539D31" />
<rect x="150" y="280" width="10" height="10" fill="#539D31" />
<rect x="160" y="280" width="10" height="10" fill="#539D31" />
<rect x="170" y="280" width="10" height="10" fill="#539D31" />
<rect x="200" y="280" width="10" height="10" fill="#539D31" />
<rect x="210" y="280" width="10" height="10" fill="#539D31" />
<rect x="220" y="280" width="10" height="10" fill="#8CB53B" />
<rect x="250" y="280" width="10" height="10" fill="#539D31" />
<rect x="260" y="280" width="10" height="10" fill="#539D31" />
<rect x="270" y="280" width="10" height="10" fill="#5FAE3A" />
<rect x="280" y="280" width="10" height="10" fill="#5FAE3A" />
<rect x="290" y="280" width="10" height="10" fill="#5FAE3A" />
<rect x="300" y="280" width="10" height="10" fill="#539D31" />
<rect x="310" y="280" width="10" height="10" fill="#539D31" />
<rect x="320" y="280" width="10" height="10" fill="#5FAE3A" />
<rect x="330" y="280" width="10" height="10" fill="#5FAE3A" />
<rect x="340" y="280" width="10" height="10" fill="#5FAE3A" />
<rect x="90" y="290" width="10" height="10" fill="#8CB53B" />
<rect x="100" y="290" width="10" height="10" fill="#5FAE3A" />
<rect x="110" y="290" width="10" height="10" fill="#5FAE3A" />
<rect x="120" y="290" width="10" height="10" fill="#539D31" />
<rect x="130" y="290" width="10" height="10" fill="#539D31" />
<rect x="140" y="290" width="10" height="10" fill="#8CB53B" />
<rect x="150" y="290" width="10" height="10" fill="#539D31" />
<rect x="160" y="290" width="10" height="10" fill="#539D31" />
<rect x="210" y="290" width="10" height="10" fill="#539D31" />
<rect x="220" y="290" width="10" height="10" fill="#8CB53B" />
<rect x="250" y="290" width="10" height="10" fill="#539D31" />
<rect x="260" y="290" width="10" height="10" fill="#539D31" />
<rect x="270" y="290" width="10" height="10" fill="#5FAE3A" />
<rect x="280" y="290" width="10" height="10" fill="#5FAE3A" />
<rect x="290" y="290" width="10" height="10" fill="#5FAE3A" />
<rect x="300" y="290" width="10" height="10" fill="#5FAE3A" />
<rect x="310" y="290" width="10" height="10" fill="#539D31" />
<rect x="320" y="290" width="10" height="10" fill="#539D31" />
<rect x="330" y="290" width="10" height="10" fill="#5FAE3A" />
<rect x="340" y="290" width="10" height="10" fill="#5FAE3A" />
<rect x="350" y="290" width="10" height="10" fill="#5FAE3A" />
<rect x="80" y="300" width="10" height="10" fill="#8CB53B" />
<rect x="90" y="300" width="10" height="10" fill="#5FAE3A" />
<rect x="100" y="300" width="10" height="10" fill="#5FAE3A" />
<rect x="110" y="300" width="10" height="10" fill="#5FAE3A" />
<rect x="120" y="300" width="10" height="10" fill="#8CB53B" />
<rect x="130" y="300" width="10" height="10" fill="#8CB53B" />
<rect x="140" y="300" width="10" height="10" fill="#8CB53B" />
<rect x="150" y="300" width="10" height="10" fill="#8CB53B" />
<rect x="160" y="300" width="10" height="10" fill="#539D31" />
<rect x="220" y="300" width="10" height="10" fill="#8CB53B" />
<rect x="250" y="300" width="10" height="10" fill="#539D31" />
<rect x="260" y="300" width="10" height="10" fill="#539D31" />
<rect x="270" y="300" width="10" height="10" fill="#539D31" />
<rect x="280" y="300" width="10" height="10" fill="#5FAE3A" />
<rect x="290" y="300" width="10" height="10" fill="#5FAE3A" />
<rect x="300" y="300" width="10" height="10" fill="#5FAE3A" />
<rect x="310" y="300" width="10" height="10" fill="#5FAE3A" />
<rect x="320" y="300" width="10" height="10" fill="#539D31" />
<rect x="330" y="300" width="10" height="10" fill="#539D31" />
<rect x="340" y="300" width="10" height="10" fill="#5FAE3A" />
<rect x="350" y="300" width="10" height="10" fill="#5FAE3A" />
<rect x="360" y="300" width="10" height="10" fill="#5FAE3A" />
<rect x="80" y="310" width="10" height="10" fill="#8CB53B" />
<rect x="90" y="310" width="10" height="10" fill="#5FAE3A" />
<rect x="100" y="310" width="10" height="10" fill="#5FAE3A" />
<rect x="110" y="310" width="10" height="10" fill="#539D31" />
<rect x="120" y="310" width="10" height="10" fill="#8CB53B" />
<rect x="130" y="310" width="10" height="10" fill="#8CB53B" />
<rect x="140" y="310" width="10" height="10" fill="#8CB53B" />
<rect x="150" y="310" width="10" height="10" fill="#8CB53B" />
<rect x="220" y="310" width="10" height="10" fill="#539D31" />
<rect x="260" y="310" width="10" height="10" fill="#539D31" />
<rect x="270" y="310" width="10" height="10" fill="#539D31" />
<rect x="280" y="310" width="10" height="10" fill="#5FAE3A" />
<rect x="290" y="310" width="10" height="10" fill="#5FAE3A" />
<rect x="300" y="310" width="10" height="10" fill="#5FAE3A" />
<rect x="310" y="310" width="10" height="10" fill="#5FAE3A" />
<rect x="320" y="310" width="10" height="10" fill="#5FAE3A" />
<rect x="330" y="310" width="10" height="10" fill="#539D31" />
<rect x="340" y="310" width="10" height="10" fill="#539D31" />
<rect x="350" y="310" width="10" height="10" fill="#5FAE3A" />
<rect x="360" y="310" width="10" height="10" fill="#5FAE3A" />
<rect x="80" y="320" width="10" height="10" fill="#8CB53B" />
<rect x="90" y="320" width="10" height="10" fill="#5FAE3A" />
<rect x="100" y="320" width="10" height="10" fill="#5FAE3A" />
<rect x="110" y="320" width="10" height="10" fill="#8CB53B" />
<rect x="120" y="320" width="10" height="10" fill="#8CB53B" />
<rect x="130" y="320" width="10" height="10" fill="#8CB53B" />
<rect x="140" y="320" width="10" height="10" fill="#8CB53B" />
<rect x="150" y="320" width="10" height="10" fill="#8CB53B" />
<rect x="200" y="320" width="10" height="10" fill="#5FAE3A" />
<rect x="210" y="320" width="10" height="10" fill="#5FAE3A" />
<rect x="220" y="320" width="10" height="10" fill="#539D31" />
<rect x="270" y="320" width="10" height="10" fill="#539D31" />
<rect x="280" y="320" width="10" height="10" fill="#539D31" />
<rect x="290" y="320" width="10" height="10" fill="#5FAE3A" />
<rect x="300" y="320" width="10" height="10" fill="#5FAE3A" />
<rect x="310" y="320" width="10" height="10" fill="#5FAE3A" />
<rect x="320" y="320" width="10" height="10" fill="#5FAE3A" />
<rect x="330" y="320" width="10" height="10" fill="#539D31" />
<rect x="340" y="320" width="10" height="10" fill="#539D31" />
<rect x="350" y="320" width="10" height="10" fill="#5FAE3A" />
<rect x="360" y="320" width="10" height="10" fill="#5FAE3A" />
<rect x="80" y="330" width="10" height="10" fill="#8CB53B" />
<rect x="90" y="330" width="10" height="10" fill="#8CB53B" />
<rect x="100" y="330" width="10" height="10" fill="#8CB53B" />
<rect x="110" y="330" width="10" height="10" fill="#8CB53B" />
<rect x="120" y="330" width="10" height="10" fill="#8CB53B" />
<rect x="130" y="330" width="10" height="10" fill="#8CB53B" />
<rect x="140" y="330" width="10" height="10" fill="#8CB53B" />
<rect x="190" y="330" width="10" height="10" fill="#5FAE3A" />
<rect x="200" y="330" width="10" height="10" fill="#5FAE3A" />
<rect x="210" y="330" width="10" height="10" fill="#5FAE3A" />
<rect x="220" y="330" width="10" height="10" fill="#539D31" />
<rect x="230" y="330" width="10" height="10" fill="#539D31" />
<rect x="280" y="330" width="10" height="10" fill="#539D31" />
<rect x="290" y="330" width="10" height="10" fill="#5FAE3A" />
<rect x="300" y="330" width="10" height="10" fill="#5FAE3A" />
<rect x="310" y="330" width="10" height="10" fill="#5FAE3A" />
<rect x="320" y="330" width="10" height="10" fill="#5FAE3A" />
<rect x="330" y="330" width="10" height="10" fill="#539D31" />
<rect x="340" y="330" width="10" height="10" fill="#539D31" />
<rect x="350" y="330" width="10" height="10" fill="#539D31" />
<rect x="360" y="330" width="10" height="10" fill="#5FAE3A" />
<rect x="80" y="340" width="10" height="10" fill="#8CB53B" />
<rect x="90" y="340" width="10" height="10" fill="#8CB53B" />
<rect x="100" y="340" width="10" height="10" fill="#8CB53B" />
<rect x="110" y="340" width="10" height="10" fill="#8CB53B" />
<rect x="120" y="340" width="10" height="10" fill="#8CB53B" />
<rect x="130" y="340" width="10" height="10" fill="#8CB53B" />
<rect x="180" y="340" width="10" height="10" fill="#5FAE3A" />
<rect x="190" y="340" width="10" height="10" fill="#5FAE3A" />
<rect x="200" y="340" width="10" height="10" fill="#5FAE3A" />
<rect x="210" y="340" width="10" height="10" fill="#5FAE3A" />
<rect x="220" y="340" width="10" height="10" fill="#539D31" />
<rect x="230" y="340" width="10" height="10" fill="#539D31" />
<rect x="240" y="340" width="10" height="10" fill="#539D31" />
<rect x="290" y="340" width="10" height="10" fill="#539D31" />
<rect x="300" y="340" width="10" height="10" fill="#5FAE3A" />
<rect x="310" y="340" width="10" height="10" fill="#539D31" />
<rect x="320" y="340" width="10" height="10" fill="#539D31" />
<rect x="330" y="340" width="10" height="10" fill="#539D31" />
<rect x="340" y="340" width="10" height="10" fill="#539D31" />
<rect x="350" y="340" width="10" height="10" fill="#539D31" />
<rect x="360" y="340" width="10" height="10" fill="#539D31" />
<rect x="170" y="350" width="10" height="10" fill="#5FAE3A" />
<rect x="180" y="350" width="10" height="10" fill="#5FAE3A" />
<rect x="190" y="350" width="10" height="10" fill="#5FAE3A" />
<rect x="200" y="350" width="10" height="10" fill="#5FAE3A" />
<rect x="210" y="350" width="10" height="10" fill="#539D31" />
<rect x="220" y="350" width="10" height="10" fill="#539D31" />
<rect x="230" y="350" width="10" height="10" fill="#539D31" />
<rect x="240" y="350" width="10" height="10" fill="#539D31" />
<rect x="250" y="350" width="10" height="10" fill="#539D31" />
<rect x="170" y="360" width="10" height="10" fill="#5FAE3A" />
<rect x="180" y="360" width="10" height="10" fill="#5FAE3A" />
<rect x="190" y="360" width="10" height="10" fill="#5FAE3A" />
<rect x="200" y="360" width="10" height="10" fill="#5FAE3A" />
<rect x="210" y="360" width="10" height="10" fill="#539D31" />
<rect x="220" y="360" width="10" height="10" fill="#539D31" />
<rect x="230" y="360" width="10" height="10" fill="#5FAE3A" />
<rect x="240" y="360" width="10" height="10" fill="#539D31" />
<rect x="250" y="360" width="10" height="10" fill="#539D31" />
<rect x="170" y="370" width="10" height="10" fill="#5FAE3A" />
<rect x="180" y="370" width="10" height="10" fill="#5FAE3A" />
<rect x="190" y="370" width="10" height="10" fill="#5FAE3A" />
<rect x="200" y="370" width="10" height="10" fill="#5FAE3A" />
<rect x="210" y="370" width="10" height="10" fill="#539D31" />
<rect x="220" y="370" width="10" height="10" fill="#5FAE3A" />
<rect x="230" y="370" width="10" height="10" fill="#5FAE3A" />
<rect x="240" y="370" width="10" height="10" fill="#539D31" />
<rect x="250" y="370" width="10" height="10" fill="#539D31" />
<rect x="170" y="380" width="10" height="10" fill="#5FAE3A" />
<rect x="180" y="380" width="10" height="10" fill="#5FAE3A" />
<rect x="190" y="380" width="10" height="10" fill="#5FAE3A" />
<rect x="200" y="380" width="10" height="10" fill="#5FAE3A" />
<rect x="210" y="380" width="10" height="10" fill="#539D31" />
<rect x="220" y="380" width="10" height="10" fill="#5FAE3A" />
<rect x="230" y="380" width="10" height="10" fill="#5FAE3A" />
<rect x="240" y="380" width="10" height="10" fill="#539D31" />
<rect x="250" y="380" width="10" height="10" fill="#539D31" />
<rect x="260" y="380" width="10" height="10" fill="#238F51" />
<rect x="270" y="380" width="10" height="10" fill="#238F51" />
<rect x="170" y="390" width="10" height="10" fill="#5FAE3A" />
<rect x="180" y="390" width="10" height="10" fill="#5FAE3A" />
<rect x="190" y="390" width="10" height="10" fill="#5FAE3A" />
<rect x="200" y="390" width="10" height="10" fill="#5FAE3A" />
<rect x="210" y="390" width="10" height="10" fill="#539D31" />
<rect x="220" y="390" width="10" height="10" fill="#5FAE3A" />
<rect x="230" y="390" width="10" height="10" fill="#5FAE3A" />
<rect x="240" y="390" width="10" height="10" fill="#539D31" />
<rect x="250" y="390" width="10" height="10" fill="#539D31" />
<rect x="270" y="390" width="10" height="10" fill="#238F51" />
<rect x="280" y="390" width="10" height="10" fill="#5FAE3A" />
<rect x="290" y="390" width="10" height="10" fill="#539D31" />
<rect x="300" y="390" width="10" height="10" fill="#539D31" />
<rect x="310" y="390" width="10" height="10" fill="#5FAE3A" />
<rect x="320" y="390" width="10" height="10" fill="#5FAE3A" />
<rect x="330" y="390" width="10" height="10" fill="#5FAE3A" />
<rect x="130" y="400" width="10" height="10" fill="#539D31" />
<rect x="140" y="400" width="10" height="10" fill="#539D31" />
<rect x="150" y="400" width="10" height="10" fill="#539D31" />
<rect x="160" y="400" width="10" height="10" fill="#539D31" />
<rect x="170" y="400" width="10" height="10" fill="#238F51" />
<rect x="180" y="400" width="10" height="10" fill="#5FAE3A" />
<rect x="190" y="400" width="10" height="10" fill="#5FAE3A" />
<rect x="200" y="400" width="10" height="10" fill="#5FAE3A" />
<rect x="210" y="400" width="10" height="10" fill="#539D31" />
<rect x="220" y="400" width="10" height="10" fill="#5FAE3A" />
<rect x="230" y="400" width="10" height="10" fill="#5FAE3A" />
<rect x="240" y="400" width="10" height="10" fill="#539D31" />
<rect x="270" y="400" width="10" height="10" fill="#5FAE3A" />
<rect x="280" y="400" width="10" height="10" fill="#5FAE3A" />
<rect x="290" y="400" width="10" height="10" fill="#5FAE3A" />
<rect x="300" y="400" width="10" height="10" fill="#539D31" />
<rect x="310" y="400" width="10" height="10" fill="#539D31" />
<rect x="320" y="400" width="10" height="10" fill="#539D31" />
<rect x="330" y="400" width="10" height="10" fill="#5FAE3A" />
<rect x="340" y="400" width="10" height="10" fill="#539D31" />
<rect x="350" y="400" width="10" height="10" fill="#539D31" />
<rect x="100" y="410" width="10" height="10" fill="#539D31" />
<rect x="110" y="410" width="10" height="10" fill="#539D31" />
<rect x="120" y="410" width="10" height="10" fill="#539D31" />
<rect x="130" y="410" width="10" height="10" fill="#539D31" />
<rect x="140" y="410" width="10" height="10" fill="#539D31" />
<rect x="150" y="410" width="10" height="10" fill="#539D31" />
<rect x="160" y="410" width="10" height="10" fill="#539D31" />
<rect x="170" y="410" width="10" height="10" fill="#238F51" />
<rect x="180" y="410" width="10" height="10" fill="#238F51" />
<rect x="190" y="410" width="10" height="10" fill="#5FAE3A" />
<rect x="200" y="410" width="10" height="10" fill="#5FAE3A" />
<rect x="210" y="410" width="10" height="10" fill="#5FAE3A" />
<rect x="220" y="410" width="10" height="10" fill="#5FAE3A" />
<rect x="230" y="410" width="10" height="10" fill="#5FAE3A" />
<rect x="270" y="410" width="10" height="10" fill="#5FAE3A" />
<rect x="280" y="410" width="10" height="10" fill="#5FAE3A" />
<rect x="290" y="410" width="10" height="10" fill="#5FAE3A" />
<rect x="300" y="410" width="10" height="10" fill="#5FAE3A" />
<rect x="310" y="410" width="10" height="10" fill="#539D31" />
<rect x="320" y="410" width="10" height="10" fill="#539D31" />
<rect x="330" y="410" width="10" height="10" fill="#539D31" />
<rect x="340" y="410" width="10" height="10" fill="#539D31" />
<rect x="350" y="410" width="10" height="10" fill="#539D31" />
<rect x="360" y="410" width="10" height="10" fill="#539D31" />
<rect x="80" y="420" width="10" height="10" fill="#539D31" />
<rect x="90" y="420" width="10" height="10" fill="#539D31" />
<rect x="100" y="420" width="10" height="10" fill="#539D31" />
<rect x="110" y="420" width="10" height="10" fill="#539D31" />
<rect x="120" y="420" width="10" height="10" fill="#539D31" />
<rect x="130" y="420" width="10" height="10" fill="#539D31" />
<rect x="140" y="420" width="10" height="10" fill="#539D31" />
<rect x="150" y="420" width="10" height="10" fill="#539D31" />
<rect x="160" y="420" width="10" height="10" fill="#539D31" />
<rect x="170" y="420" width="10" height="10" fill="#539D31" />
<rect x="180" y="420" width="10" height="10" fill="#238F51" />
<rect x="190" y="420" width="10" height="10" fill="#238F51" />
<rect x="200" y="420" width="10" height="10" fill="#5FAE3A" />
<rect x="210" y="420" width="10" height="10" fill="#5FAE3A" />
<rect x="220" y="420" width="10" height="10" fill="#5FAE3A" />
<rect x="230" y="420" width="10" height="10" fill="#5FAE3A" />
<rect x="270" y="420" width="10" height="10" fill="#238F51" />
<rect x="280" y="420" width="10" height="10" fill="#5FAE3A" />
<rect x="290" y="420" width="10" height="10" fill="#5FAE3A" />
<rect x="300" y="420" width="10" height="10" fill="#5FAE3A" />
<rect x="310" y="420" width="10" height="10" fill="#5FAE3A" />
<rect x="320" y="420" width="10" height="10" fill="#539D31" />
<rect x="330" y="420" width="10" height="10" fill="#539D31" />
<rect x="340" y="420" width="10" height="10" fill="#539D31" />
<rect x="350" y="420" width="10" height="10" fill="#539D31" />
<rect x="360" y="420" width="10" height="10" fill="#539D31" />
<rect x="370" y="420" width="10" height="10" fill="#539D31" />
<rect x="70" y="430" width="10" height="10" fill="#539D31" />
<rect x="80" y="430" width="10" height="10" fill="#539D31" />
<rect x="90" y="430" width="10" height="10" fill="#539D31" />
<rect x="100" y="430" width="10" height="10" fill="#539D31" />
<rect x="110" y="430" width="10" height="10" fill="#539D31" />
<rect x="120" y="430" width="10" height="10" fill="#539D31" />
<rect x="130" y="430" width="10" height="10" fill="#539D31" />
<rect x="140" y="430" width="10" height="10" fill="#539D31" />
<rect x="150" y="430" width="10" height="10" fill="#539D31" />
<rect x="160" y="430" width="10" height="10" fill="#539D31" />
<rect x="170" y="430" width="10" height="10" fill="#539D31" />
<rect x="180" y="430" width="10" height="10" fill="#539D31" />
<rect x="190" y="430" width="10" height="10" fill="#238F51" />
<rect x="200" y="430" width="10" height="10" fill="#238F51" />
<rect x="220" y="430" width="10" height="10" fill="#5FAE3A" />
<rect x="230" y="430" width="10" height="10" fill="#539D31" />
<rect x="280" y="430" width="10" height="10" fill="#5FAE3A" />
<rect x="290" y="430" width="10" height="10" fill="#5FAE3A" />
<rect x="300" y="430" width="10" height="10" fill="#5FAE3A" />
<rect x="310" y="430" width="10" height="10" fill="#5FAE3A" />
<rect x="320" y="430" width="10" height="10" fill="#5FAE3A" />
<rect x="330" y="430" width="10" height="10" fill="#5FAE3A" />
<rect x="340" y="430" width="10" height="10" fill="#539D31" />
<rect x="350" y="430" width="10" height="10" fill="#539D31" />
<rect x="360" y="430" width="10" height="10" fill="#539D31" />
<rect x="370" y="430" width="10" height="10" fill="#539D31" />
<rect x="380" y="430" width="10" height="10" fill="#539D31" />
<rect x="60" y="440" width="10" height="10" fill="#539D31" />
<rect x="70" y="440" width="10" height="10" fill="#539D31" />
<rect x="80" y="440" width="10" height="10" fill="#539D31" />
<rect x="90" y="440" width="10" height="10" fill="#539D31" />
<rect x="100" y="440" width="10" height="10" fill="#539D31" />
<rect x="110" y="440" width="10" height="10" fill="#539D31" />
<rect x="120" y="440" width="10" height="10" fill="#539D31" />
<rect x="130" y="440" width="10" height="10" fill="#539D31" />
<rect x="140" y="440" width="10" height="10" fill="#539D31" />
<rect x="150" y="440" width="10" height="10" fill="#539D31" />
<rect x="160" y="440" width="10" height="10" fill="#539D31" />
<rect x="170" y="440" width="10" height="10" fill="#238F51" />
<rect x="180" y="440" width="10" height="10" fill="#238F51" />
<rect x="190" y="440" width="10" height="10" fill="#238F51" />
<rect x="230" y="440" width="10" height="10" fill="#539D31" />
<rect x="280" y="440" width="10" height="10" fill="#5FAE3A" />
<rect x="290" y="440" width="10" height="10" fill="#5FAE3A" />
<rect x="300" y="440" width="10" height="10" fill="#5FAE3A" />
<rect x="310" y="440" width="10" height="10" fill="#5FAE3A" />
<rect x="320" y="440" width="10" height="10" fill="#5FAE3A" />
<rect x="330" y="440" width="10" height="10" fill="#5FAE3A" />
<rect x="340" y="440" width="10" height="10" fill="#5FAE3A" />
<rect x="350" y="440" width="10" height="10" fill="#539D31" />
<rect x="360" y="440" width="10" height="10" fill="#539D31" />
<rect x="370" y="440" width="10" height="10" fill="#539D31" />
<rect x="380" y="440" width="10" height="10" fill="#539D31" />
<rect x="60" y="450" width="10" height="10" fill="#539D31" />
<rect x="70" y="450" width="10" height="10" fill="#539D31" />
<rect x="80" y="450" width="10" height="10" fill="#539D31" />
<rect x="90" y="450" width="10" height="10" fill="#539D31" />
<rect x="100" y="450" width="10" height="10" fill="#539D31" />
<rect x="110" y="450" width="10" height="10" fill="#539D31" />
<rect x="120" y="450" width="10" height="10" fill="#539D31" />
<rect x="130" y="450" width="10" height="10" fill="#238F51" />
<rect x="140" y="450" width="10" height="10" fill="#238F51" />
<rect x="150" y="450" width="10" height="10" fill="#238F51" />
<rect x="160" y="450" width="10" height="10" fill="#238F51" />
<rect x="170" y="450" width="10" height="10" fill="#238F51" />
<rect x="230" y="450" width="10" height="10" fill="#539D31" />
<rect x="300" y="450" width="10" height="10" fill="#5FAE3A" />
<rect x="310" y="450" width="10" height="10" fill="#5FAE3A" />
<rect x="320" y="450" width="10" height="10" fill="#5FAE3A" />
<rect x="330" y="450" width="10" height="10" fill="#539D31" />
<rect x="340" y="450" width="10" height="10" fill="#539D31" />
<rect x="350" y="450" width="10" height="10" fill="#539D31" />
<rect x="360" y="450" width="10" height="10" fill="#539D31" />
<rect x="370" y="450" width="10" height="10" fill="#539D31" />
<rect x="380" y="450" width="10" height="10" fill="#539D31" />
<rect x="390" y="450" width="10" height="10" fill="#539D31" />
<rect x="90" y="460" width="10" height="10" fill="#238F51" />
<rect x="100" y="460" width="10" height="10" fill="#238F51" />
<rect x="110" y="460" width="10" height="10" fill="#238F51" />
<rect x="120" y="460" width="10" height="10" fill="#238F51" />
<rect x="130" y="460" width="10" height="10" fill="#238F51" />
<rect x="230" y="460" width="10" height="10" fill="#539D31" />
<rect x="230" y="470" width="10" height="10" fill="#539D31" />
</svg>