<?xml version="1.0" encoding="UTF-8" ?>
<svg version="1.1" width="500" height="500" xmlns="http://www.w3.org/2000/svg" shape-rendering="crispEdges">
<rect x="250" y="30" width="10" height="10" fill="#FEE9FF" />
<rect x="290" y="30" width="10" height="10" fill="#F0CBF2" />
<rect x="220" y="40" width="10" height="10" fill="#F0CBF2" />
<rect x="240" y="40" width="10" height="10" fill="#F0CBF2" />
<rect x="250" y="40" width="10" height="10" fill="#F0CBF2" />
<rect x="290" y="40" width="10" height="10" fill="#F0CBF2" />
<rect x="300" y="40" width="10" height="10" fill="#F0CBF2" />
<rect x="210" y="50" width="10" height="10" fill="#FEE9FF" />
<rect x="220" y="50" width="10" height="10" fill="#F0CBF2" />
<rect x="250" y="50" width="10" height="10" fill="#A9CE41" />
<rect x="270" y="50" width="10" height="10" fill="#A9CE41" />
<rect x="280" y="50" width="10" height="10" fill="#A9CE41" />
<rect x="230" y="60" width="10" height="10" fill="#A9CE41" />
<rect x="250" y="60" width="10" height="10" fill="#A9CE41" />
<rect x="260" y="60" width="10" height="10" fill="#A9CE41" />
<rect x="270" y="60" width="10" height="10" fill="#8CB53B" />
<rect x="240" y="70" width="10" height="10" fill="#8CB53B" />
<rect x="250" y="70" width="10" height="10" fill="#A9CE41" />
<rect x="260" y="70" width="10" height="10" fill="#8CB53B" />
<rect x="270" y="70" width="10" height="10" fill="#F0CBF2" />
<rect x="280" y="70" width="10" height="10" fill="#F0CBF2" />
<rect x="250" y="80" width="10" height="10" fill="#8CB53B" />
<rect x="260" y="80" width="10" height="10" fill="#8CB53B" />
<rect x="270" y="80" width="10" height="10" fill="#FEE9FF" />
<rect x="230" y="90" width="10" height="10" fill="#A9CE41" />
<rect x="250" y="90" width="10" height="10" fill="#8CB53B" />
<rect x="260" y="90" width="10" height="10" fill="#A9CE41" />
<rect x="230" y="100" width="10" height="10" fill="#8CB53B" />
<rect x="240" y="100" width="10" height="10" fill="#A9CE41" />
<rect x="250" y="100" width="10" height="10" fill="#8CB53B" />
<rect x="280" y="100" width="10" height="10" fill="#8CB53B" />
<rect x="240" y="110" width="10" height="10" fill="#8CB53B" />
<rect x="250" y="110" width="10" height="10" fill="#5FAE3A" />
<rect x="260" y="110" width="10" height="10" fill="#A9CE41" />
<rect x="270" y="110" width="10" height="10" fill="#A9CE41" />
<rect x="250" y="120" width="10" height="10" fill="#5FAE3A" />
<rect x="260" y="120" width="10" height="10" fill="#A9CE41" />
<rect x="270" y="120" width="10" height="10" fill="#8CB53B" />
<rect x="250" y="130" width="10" height="10" fill="#5FAE3A" />
<rect x="260" y="130" width="10" height="10" fill="#8CB53B" />
<rect x="230" y="140" width="10" height="10" fill="#5FAE3A" />
<rect x="250" y="140" width="10" height="10" fill="#5FAE3A" />
<rect x="260" y="140" width="10" height="10" fill="#8CB53B" />
<rect x="230" y="150" width="10" height="10" fill="#5FAE3A" />
<rect x="250" y="150" width="10" height="10" fill="#5FAE3A" />
<rect x="230" y="160" width="10" height="10" fill="#5FAE3A" />
<rect x="240" y="160" width="10" height="10" fill="#5FAE3A" />
<rect x="250" y="160" width="10" height="10" fill="#5FAE3A" />
<rect x="270" y="160" width="10" height="10" fill="#8CB53B" />
<rect x="230" y="170" width="10" height="10" fill="#5FAE3A" />
<rect x="240" y="170" width="10" height="10" fill="#5FAE3A" />
<rect x="250" y="170" width="10" height="10" fill="#5FAE3A" />
<rect x="270" y="170" width="10" height="10" fill="#8CB53B" />
<rect x="240" y="180" width="10" height="10" fill="#5FAE3A" />
<rect x="250" y="180" width="10" height="10" fill="#5FAE3A" />
<rect x="270" y="180" width="10" height="10" fill="#8CB53B" />
<rect x="250" y="190" width="10" height="10" fill="#5FAE3A" />
<rect x="260" y="190" width="10" height="10" fill="#5FAE3A" />
<rect x="270" y="190" width="10" height="10" fill="#8CB53B" />
<rect x="250" y="200" width="10" height="10" fill="#5FAE3A" />
<rect x="260" y="200" width="10" height="10" fill="#8CB53B" />
<rect x="270" y="200" width="10" height="10" fill="#5FAE3A" />
<rect x="230" y="210" width="10" height="10" fill="#8CB53B" />
<rect x="250" y="210" width="10" height="10" fill="#5FAE3A" />
<rect x="260" y="210" width="10" height="10" fill="#8CB53B" />
<rect x="230" y="220" width="10" height="10" fill="#8CB53B" />
<rect x="240" y="220" width="10" height="10" fill="#5FAE3A" />
<rect x="250" y="220" width="10" height="10" fill="#5FAE3A" />
<rect x="230" y="230" width="10" height="10" fill="#8CB53B" />
<rect x="240" y="230" width="10" height="10" fill="#8CB53B" />
<rect x="250" y="230" width="10" height="10" fill="#5FAE3A" />
<rect x="270" y="230" width="10" height="10" fill="#539D31" />
<rect x="240" y="240" width="10" height="10" fill="#8CB53B" />
<rect x="250" y="240" width="10" height="10" fill="#5FAE3A" />
<rect x="270" y="240" width="10" height="10" fill="#539D31" />
<rect x="240" y="250" width="10" height="10" fill="#8CB53B" />
<rect x="250" y="250" width="10" height="10" fill="#5FAE3A" />
<rect x="260" y="250" width="10" height="10" fill="#5FAE3A" />
<rect x="270" y="250" width="10" height="10" fill="#539D31" />
<rect x="240" y="260" width="10" height="10" fill="#8CB53B" />
<rect x="250" y="260" width="10" height="10" fill="#8CB53B" />
<rect x="260" y="260" width="10" height="10" fill="#539D31" />
<rect x="270" y="260" width="10" height="10" fill="#539D31" />
<rect x="220" y="270" width="10" height="10" fill="#8CB53B" />
<rect x="250" y="270" width="10" height="10" fill="#5FAE3A" />
<rect x="260" y="270" width="10" height="10" fill="#539D31" />
<rect x="270" y="270" width="10" height="10" fill="#539D31" />
<rect x="220" y="280" width="10" height="10" fill="#8CB53B" />
<rect x="240" y="280" width="10" height="10" fill="#539D31" />
<rect x="250" y="280" width="10" height="10" fill="#539D31" />
<rect x="260" y="280" width="10" height="10" fill="#539D31" />
<rect x="220" y="290" width="10" height="10" fill="#8CB53B" />
<rect x="230" y="290" width="10" height="10" fill="#539D31" />
<rect x="240" y="290" width="10" height="10" fill="#5FAE3A" />
<rect x="250" y="290" width="10" height="10" fill="#539D31" />
<rect x="260" y="290" width="10" height="10" fill="#238F51" />
<rect x="220" y="300" width="10" height="10" fill="#8CB53B" />
<rect x="230" y="300" width="10" height="10" fill="#539D31" />
<rect x="240" y="300" width="10" height="10" fill="#5FAE3A" />
<rect x="250" y="300" width="10" height="10" fill="#5FAE3A" />
<rect x="260" y="300" width="10" height="10" fill="#238F51" />
<rect x="280" y="300" width="10" height="10" fill="#8CB53B" />
<rect x="220" y="310" width="10" height="10" fill="#8CB53B" />
<rect x="230" y="310" width="10" height="10" fill="#539D31" />
<rect x="240" y="310" width="10" height="10" fill="#539D31" />
<rect x="250" y="310" width="10" height="10" fill="#238F51" />
<rect x="260" y="310" width="10" height="10" fill="#238F51" />
<rect x="270" y="310" width="10" height="10" fill="#8CB53B" />
<rect x="280" y="310" width="10" height="10" fill="#8CB53B" />
<rect x="220" y="320" width="10" height="10" fill="#8CB53B" />
<rect x="230" y="320" width="10" height="10" fill="#5FAE3A" />
<rect x="240" y="320" width="10" height="10" fill="#539D31" />
<rect x="250" y="320" width="10" height="10" fill="#238F51" />
<rect x="270" y="320" width="10" height="10" fill="#8CB53B" />
<rect x="230" y="330" width="10" height="10" fill="#5FAE3A" />
<rect x="240" y="330" width="10" height="10" fill="#539D31" />
<rect x="250" y="330" width="10" height="10" fill="#238F51" />
<rect x="260" y="330" width="10" height="10" fill="#8CB53B" />
<rect x="270" y="330" width="10" height="10" fill="#8CB53B" />
<rect x="190" y="340" width="10" height="10" fill="#539D31" />
<rect x="200" y="340" width="10" height="10" fill="#539D31" />
<rect x="230" y="340" width="10" height="10" fill="#8CB53B" />
<rect x="240" y="340" width="10" height="10" fill="#5FAE3A" />
<rect x="250" y="340" width="10" height="10" fill="#5FAE3A" />
<rect x="260" y="340" width="10" height="10" fill="#5FAE3A" />
<rect x="270" y="340" width="10" height="10" fill="#5FAE3A" />
<rect x="300" y="340" width="10" height="10" fill="#5FAE3A" />
<rect x="200" y="350" width="10" height="10" fill="#5FAE3A" />
<rect x="210" y="350" width="10" height="10" fill="#539D31" />
<rect x="230" y="350" width="10" height="10" fill="#5FAE3A" />
<rect x="240" y="350" width="10" height="10" fill="#8CB53B" />
<rect x="250" y="350" width="10" height="10" fill="#5FAE3A" />
<rect x="260" y="350" width="10" height="10" fill="#5FAE3A" />
<rect x="290" y="350" width="10" height="10" fill="#5FAE3A" />
<rect x="300" y="350" width="10" height="10" fill="#5FAE3A" />
<rect x="200" y="360" width="10" height="10" fill="#539D31" />
<rect x="210" y="360" width="10" height="10" fill="#5FAE3A" />
<rect x="240" y="360" width="10" height="10" fill="#8CB53B" />
<rect x="250" y="360" width="10" height="10" fill="#5FAE3A" />
<rect x="260" y="360" width="10" height="10" fill="#539D31" />
<rect x="290" y="360" width="10" height="10" fill="#5FAE3A" />
<rect x="300" y="360" width="10" height="10" fill="#5FAE3A" />
<rect x="200" y="370" width="10" height="10" fill="#539D31" />
<rect x="210" y="370" width="10" height="10" fill="#539D31" />
<rect x="220" y="370" width="10" height="10" fill="#5FAE3A" />
<rect x="230" y="370" width="10" height="10" fill="#539D31" />
<rect x="250" y="370" width="10" height="10" fill="#5FAE3A" />
<rect x="260" y="370" width="10" height="10" fill="#539D31" />
<rect x="280" y="370" width="10" height="10" fill="#5FAE3A" />
<rect x="290" y="370" width="10" height="10" fill="#8CB53B" />
<rect x="300" y="370" width="10" height="10" fill="#5FAE3A" />
<rect x="210" y="380" width="10" height="10" fill="#539D31" />
<rect x="220" y="380" width="10" height="10" fill="#539D31" />
<rect x="230" y="380" width="10" height="10" fill="#539D31" />
<rect x="240" y="380" width="10" height="10" fill="#539D31" />
<rect x="250" y="380" width="10" height="10" fill="#539D31" />
<rect x="260" y="380" width="10" height="10" fill="#539D31" />
<rect x="270" y="380" width="10" height="10" fill="#5FAE3A" />
<rect x="280" y="380" width="10" height="10" fill="#8CB53B" />
<rect x="290" y="380" width="10" height="10" fill="#5FAE3A" />
<rect x="210" y="390" width="10" height="10" fill="#5FAE3A" />
<rect x="220" y="390" width="10" height="10" fill="#539D31" />
<rect x="230" y="390" width="10" height="10" fill="#539D31" />
<rect x="240" y="390" width="10" height="10" fill="#539D31" />
<rect x="250" y="390" width="10" height="10" fill="#539D31" />
<rect x="260" y="390" width="10" height="10" fill="#539D31" />
<rect x="270" y="390" width="10" height="10" fill="#238F51" />
<rect x="280" y="390" width="10" height="10" fill="#8CB53B" />
<rect x="290" y="390" width="10" height="10" fill="#5FAE3A" />
<rect x="220" y="400" width="10" height="10" fill="#5FAE3A" />
<rect x="230" y="400" width="10" height="10" fill="#5FAE3A" />
<rect x="240" y="400" width="10" height="10" fill="#539D31" />
<rect x="250" y="400" width="10" height="10" fill="#539D31" />
<rect x="260" y="400" width="10" height="10" fill="#238F51" />
<rect x="270" y="400" width="10" height="10" fill="#238F51" />
<rect x="280" y="400" width="10" height="10" fill="#5FAE3A" />
<rect x="320" y="400" width="10" height="10" fill="#5FAE3A" />
<rect x="180" y="410" width="10" height="10" fill="#5FAE3A" />
<rect x="190" y="410" width="10" height="10" fill="#5FAE3A" />
<rect x="200" y="410" width="10" height="10" fill="#5FAE3A" />
<rect x="230" y="410" width="10" height="10" fill="#5FAE3A" />
<rect x="240" y="410" width="10" height="10" fill="#539D31" />
<rect x="250" y="410" width="10" height="10" fill="#5FAE3A" />
<rect x="260" y="410" width="10" height="10" fill="#238F51" />
<rect x="270" y="410" width="10" height="10" fill="#238F51" />
<rect x="310" y="410" width="10" height="10" fill="#5FAE3A" />
<rect x="320" y="410" width="10" height="10" fill="#5FAE3A" />
<rect x="200" y="420" width="10" height="10" fill="#5FAE3A" />
<rect x="210" y="420" width="10" height="10" fill="#5FAE3A" />
<rect x="240" y="420" width="10" height="10" fill="#5FAE3A" />
<rect x="250" y="420" width="10" height="10" fill="#5FAE3A" />
<rect x="260" y="420" width="10" height="10" fill="#238F51" />
<rect x="270" y="420" width="10" height="10" fill="#238F51" />
<rect x="290" y="420" width="10" height="10" fill="#5FAE3A" />
<rect x="300" y="420" width="10" height="10" fill="#5FAE3A" />
<rect x="310" y="420" width="10" height="10" fill="#238F51" />
<rect x="200" y="430" width="10" height="10" fill="#539D31" />
<rect x="210" y="430" width="10" height="10" fill="#539D31" />
<rect x="220" y="430" width="10" height="10" fill="#5FAE3A" />
<rect x="240" y="430" width="10" height="10" fill="#5FAE3A" />
<rect x="250" y="430" width="10" height="10" fill="#5FAE3A" />
<rect x="260" y="430" width="10" height="10" fill="#238F51" />
<rect x="270" y="430" width="10" height="10" fill="#238F51" />
<rect x="280" y="430" width="10" height="10" fill="#5FAE3A" />
<rect x="290" y="430" width="10" height="10" fill="#238F51" />
<rect x="300" y="430" width="10" height="10" fill="#238F51" />
<rect x="210" y="440" width="10" height="10" fill="#539D31" />
<rect x="220" y="440" width="10" height="10" fill="#5FAE3A" />
<rect x="230" y="440" width="10" height="10" fill="#5FAE3A" />
<rect x="240" y="440" width="10" height="10" fill="#5FAE3A" />
<rect x="250" y="440" width="10" height="10" fill="#238F51" />
<rect x="260" y="440" width="10" height="10" fill="#238F51" />
<rect x="270" y="440" width="10" height="10" fill="#5FAE3A" />
<rect x="280" y="440" width="10" height="10" fill="#5FAE3A" />
<rect x="290" y="440" width="10" height="10" fill="#238F51" />
<rect x="170" y="450" width="10" height="10" fill="#539D31" />
<rect x="210" y="450" width="10" height="10" fill="#539D31" />
<rect x="220" y="450" width="10" height="10" fill="#539D31" />
<rect x="230" y="450" width="10" height="10" fill="#5FAE3A" />
<rect x="240" y="450" width="10" height="10" fill="#5FAE3A" />
<rect x="250" y="450" width="10" height="10" fill="#238F51" />
<rect x="260" y="450" width="10" height="10" fill="#238F51" />
<rect x="270" y="450" width="10" height="10" fill="#5FAE3A" />
<rect x="280" y="450" width="10" height="10" fill="#238F51" />
<rect x="290" y="450" width="10" height="10" fill="#238F51" />
<rect x="170" y="460" width="10" height="10" fill="#539D31" />
<rect x="180" y="460" width="10" height="10" fill="#539D31" />
<rect x="190" y="460" width="10" height="10" fill="#539D31" />
<rect x="200" y="460" width="10" height="10" fill="#539D31" />
<rect x="210" y="460" width="10" height="10" fill="#539D31" />
<rect x="220" y="460" width="10" height="10" fill="#539D31" />
<rect x="230" y="460" width="10" height="10" fill="#5FAE3A" />
<rect x="240" y="460" width="10" height="10" fill="#5FAE3A" />
<rect x="250" y="460" width="10" height="10" fill="#238F51" />
<rect x="260" y="460" width="10" height="10" fill="#539D31" />
<rect x="270" y="460" width="10" height="10" fill="#238F51" />
<rect x="280" y="460" width="10" height="10" fill="#238F51" />
<rect x="300" y="460" width="10" height="10" fill="#539D31" />
<rect x="310" y="460" width="10" height="10" fill="#238F51" />
<rect x="320" y="460" width="10" height="10" fill="#238F51" />
<rect x="330" y="460" width="10" height="10" fill="#539D31" />
<rect x="200" y="470" width="10" height="10" fill="#539D31" />
<rect x="210" y="470" width="10" height="10" fill="#539D31" />
<rect x="220" y="470" width="10" height="10" fill="#539D31" />
<rect x="230" y="470" width="10" height="10" fill="#539D31" />
<rect x="240" y="470" width="10" height="10" fill="#539D31" />
<rect x="250" y="470" width="10" height="10" fill="#238F51" />
<rect x="260" y="470" width="10" height="10" fill="#539D31" />
<rect x="270" y="470" width="10" height="10" fill="#238F51" />
<rect x="280" y="470" width="10" height="10" fill="#539D31" />
<rect x="290" y="470" width="10" height="10" fill="#539D31" />
<rect x="300" y="470" width="10" height="10" fill="#238F51" />
<rect x="310" y="470" width="10" height="10" fill="#238F51" />
<rect x="220" y="480" width="10" height="10" fill="#539D31" />
<rect x="230" y="480" width="10" height="10" fill="#539D31" />
<rect x="240" y="480" width="10" height="10" fill="#539D31" />
<rect x="250" y="480" width="10" height="10" fill="#238F51" />
<rect x="260" y="480" width="10" height="10" fill="#238F51" />
<rect x="270" y="480" width="10" height="10" fill="#238F51" />
<rect x="280" y="480" width="10" height="10" fill="#238F51" />
<rect x="290" y="480" width="10" height="10" fill="#238F51" />
<rect x="300" y="480" width="10" height="10" fill="#238F51" />
<rect x="240" y="490" width="10" height="10" fill="#238F51" />
<rect x="250" y="490" width="10" height="10" fill="#238F51" />
<rect x="260" y="490" width="10" height="10" fill="#238F51" />
<rect x="270" y="490" width="10" height="10" fill="#238F51" />
</svg>