<?xml version="1.0" encoding="UTF-8" ?>
<svg version="1.1" width="500" height="500" xmlns="http://www.w3.org/2000/svg" shape-rendering="crispEdges">
<rect x="300" y="60" width="10" height="10" fill="#8CB53B" />
<rect x="310" y="60" width="10" height="10" fill="#5FAE3A" />
<rect x="230" y="70" width="10" height="10" fill="#A9CE41" />
<rect x="240" y="70" width="10" height="10" fill="#8CB53B" />
<rect x="250" y="70" width="10" height="10" fill="#8CB53B" />
<rect x="290" y="70" width="10" height="10" fill="#A9CE41" />
<rect x="300" y="70" width="10" height="10" fill="#8CB53B" />
<rect x="310" y="70" width="10" height="10" fill="#8CB53B" />
<rect x="320" y="70" width="10" height="10" fill="#8CB53B" />
<rect x="330" y="70" width="10" height="10" fill="#5FAE3A" />
<rect x="340" y="70" width="10" height="10" fill="#8CB53B" />
<rect x="350" y="70" width="10" height="10" fill="#8CB53B" />
<rect x="360" y="70" width="10" height="10" fill="#238F51" />
<rect x="230" y="80" width="10" height="10" fill="#A9CE41" />
<rect x="240" y="80" width="10" height="10" fill="#A9CE41" />
<rect x="250" y="80" width="10" height="10" fill="#5FAE3A" />
<rect x="260" y="80" width="10" height="10" fill="#238F51" />
<rect x="290" y="80" width="10" height="10" fill="#A9CE41" />
<rect x="300" y="80" width="10" height="10" fill="#A9CE41" />
<rect x="310" y="80" width="10" height="10" fill="#A9CE41" />
<rect x="320" y="80" width="10" height="10" fill="#A9CE41" />
<rect x="330" y="80" width="10" height="10" fill="#5FAE3A" />
<rect x="340" y="80" width="10" height="10" fill="#8CB53B" />
<rect x="350" y="80" width="10" height="10" fill="#8CB53B" />
<rect x="360" y="80" width="10" height="10" fill="#238F51" />
<rect x="230" y="90" width="10" height="10" fill="#A9CE41" />
<rect x="240" y="90" width="10" height="10" fill="#A9CE41" />
<rect x="250" y="90" width="10" height="10" fill="#5FAE3A" />
<rect x="260" y="90" width="10" height="10" fill="#238F51" />
<rect x="300" y="90" width="10" height="10" fill="#A9CE41" />
<rect x="310" y="90" width="10" height="10" fill="#A9CE41" />
<rect x="320" y="90" width="10" height="10" fill="#A9CE41" />
<rect x="330" y="90" width="10" height="10" fill="#8CB53B" />
<rect x="340" y="90" width="10" height="10" fill="#8CB53B" />
<rect x="350" y="90" width="10" height="10" fill="#238F51" />
<rect x="360" y="90" width="10" height="10" fill="#238F51" />
<rect x="250" y="100" width="10" height="10" fill="#5FAE3A" />
<rect x="260" y="100" width="10" height="10" fill="#8CB53B" />
<rect x="270" y="100" width="10" height="10" fill="#8CB53B" />
<rect x="280" y="100" width="10" height="10" fill="#238F51" />
<rect x="320" y="100" width="10" height="10" fill="#8CB53B" />
<rect x="330" y="100" width="10" height="10" fill="#8CB53B" />
<rect x="220" y="110" width="10" height="10" fill="#A9CE41" />
<rect x="230" y="110" width="10" height="10" fill="#A9CE41" />
<rect x="240" y="110" width="10" height="10" fill="#8CB53B" />
<rect x="250" y="110" width="10" height="10" fill="#8CB53B" />
<rect x="260" y="110" width="10" height="10" fill="#8CB53B" />
<rect x="270" y="110" width="10" height="10" fill="#8CB53B" />
<rect x="280" y="110" width="10" height="10" fill="#238F51" />
<rect x="310" y="110" width="10" height="10" fill="#8CB53B" />
<rect x="320" y="110" width="10" height="10" fill="#8CB53B" />
<rect x="330" y="110" width="10" height="10" fill="#8CB53B" />
<rect x="340" y="110" width="10" height="10" fill="#8CB53B" />
<rect x="220" y="120" width="10" height="10" fill="#A9CE41" />
<rect x="230" y="120" width="10" height="10" fill="#8CB53B" />
<rect x="240" y="120" width="10" height="10" fill="#8CB53B" />
<rect x="260" y="120" width="10" height="10" fill="#8CB53B" />
<rect x="270" y="120" width="10" height="10" fill="#8CB53B" />
<rect x="280" y="120" width="10" height="10" fill="#238F51" />
<rect x="310" y="120" width="10" height="10" fill="#8CB53B" />
<rect x="320" y="120" width="10" height="10" fill="#8CB53B" />
<rect x="330" y="120" width="10" height="10" fill="#8CB53B" />
<rect x="340" y="120" width="10" height="10" fill="#8CB53B" />
<rect x="220" y="130" width="10" height="10" fill="#A9CE41" />
<rect x="230" y="130" width="10" height="10" fill="#8CB53B" />
<rect x="320" y="130" width="10" height="10" fill="#8CB53B" />
<rect x="330" y="130" width="10" height="10" fill="#8CB53B" />
<rect x="100" y="140" width="10" height="10" fill="#238F51" />
<rect x="110" y="140" width="10" height="10" fill="#238F51" />
<rect x="120" y="140" width="10" height="10" fill="#238F51" />
<rect x="130" y="140" width="10" height="10" fill="#238F51" />
<rect x="160" y="140" width="10" height="10" fill="#A9CE41" />
<rect x="170" y="140" width="10" height="10" fill="#A9CE41" />
<rect x="180" y="140" width="10" height="10" fill="#A9CE41" />
<rect x="190" y="140" width="10" height="10" fill="#238F51" />
<rect x="100" y="150" width="10" height="10" fill="#A9CE41" />
<rect x="110" y="150" width="10" height="10" fill="#A9CE41" />
<rect x="120" y="150" width="10" height="10" fill="#5FAE3A" />
<rect x="130" y="150" width="10" height="10" fill="#238F51" />
<rect x="160" y="150" width="10" height="10" fill="#A9CE41" />
<rect x="170" y="150" width="10" height="10" fill="#A9CE41" />
<rect x="180" y="150" width="10" height="10" fill="#8CB53B" />
<rect x="190" y="150" width="10" height="10" fill="#238F51" />
<rect x="360" y="150" width="10" height="10" fill="#A9CE41" />
<rect x="370" y="150" width="10" height="10" fill="#8CB53B" />
<rect x="380" y="150" width="10" height="10" fill="#5FAE3A" />
<rect x="100" y="160" width="10" height="10" fill="#A9CE41" />
<rect x="110" y="160" width="10" height="10" fill="#A9CE41" />
<rect x="120" y="160" width="10" height="10" fill="#5FAE3A" />
<rect x="130" y="160" width="10" height="10" fill="#238F51" />
<rect x="160" y="160" width="10" height="10" fill="#A9CE41" />
<rect x="170" y="160" width="10" height="10" fill="#A9CE41" />
<rect x="180" y="160" width="10" height="10" fill="#8CB53B" />
<rect x="190" y="160" width="10" height="10" fill="#238F51" />
<rect x="200" y="160" width="10" height="10" fill="#8CB53B" />
<rect x="210" y="160" width="10" height="10" fill="#5FAE3A" />
<rect x="220" y="160" width="10" height="10" fill="#5FAE3A" />
<rect x="260" y="160" width="10" height="10" fill="#A9CE41" />
<rect x="270" y="160" width="10" height="10" fill="#A9CE41" />
<rect x="280" y="160" width="10" height="10" fill="#5FAE3A" />
<rect x="290" y="160" width="10" height="10" fill="#5FAE3A" />
<rect x="310" y="160" width="10" height="10" fill="#238F51" />
<rect x="320" y="160" width="10" height="10" fill="#238F51" />
<rect x="350" y="160" width="10" height="10" fill="#A9CE41" />
<rect x="360" y="160" width="10" height="10" fill="#A9CE41" />
<rect x="370" y="160" width="10" height="10" fill="#8CB53B" />
<rect x="380" y="160" width="10" height="10" fill="#5FAE3A" />
<rect x="100" y="170" width="10" height="10" fill="#A9CE41" />
<rect x="110" y="170" width="10" height="10" fill="#5FAE3A" />
<rect x="120" y="170" width="10" height="10" fill="#238F51" />
<rect x="180" y="170" width="10" height="10" fill="#8CB53B" />
<rect x="190" y="170" width="10" height="10" fill="#238F51" />
<rect x="200" y="170" width="10" height="10" fill="#8CB53B" />
<rect x="210" y="170" width="10" height="10" fill="#8CB53B" />
<rect x="220" y="170" width="10" height="10" fill="#238F51" />
<rect x="260" y="170" width="10" height="10" fill="#A9CE41" />
<rect x="270" y="170" width="10" height="10" fill="#A9CE41" />
<rect x="280" y="170" width="10" height="10" fill="#A9CE41" />
<rect x="290" y="170" width="10" height="10" fill="#5FAE3A" />
<rect x="300" y="170" width="10" height="10" fill="#8CB53B" />
<rect x="310" y="170" width="10" height="10" fill="#8CB53B" />
<rect x="320" y="170" width="10" height="10" fill="#238F51" />
<rect x="350" y="170" width="10" height="10" fill="#A9CE41" />
<rect x="360" y="170" width="10" height="10" fill="#A9CE41" />
<rect x="370" y="170" width="10" height="10" fill="#A9CE41" />
<rect x="380" y="170" width="10" height="10" fill="#5FAE3A" />
<rect x="80" y="180" width="10" height="10" fill="#A9CE41" />
<rect x="90" y="180" width="10" height="10" fill="#A9CE41" />
<rect x="100" y="180" width="10" height="10" fill="#A9CE41" />
<rect x="110" y="180" width="10" height="10" fill="#8CB53B" />
<rect x="120" y="180" width="10" height="10" fill="#8CB53B" />
<rect x="130" y="180" width="10" height="10" fill="#8CB53B" />
<rect x="140" y="180" width="10" height="10" fill="#5FAE3A" />
<rect x="170" y="180" width="10" height="10" fill="#A9CE41" />
<rect x="180" y="180" width="10" height="10" fill="#A9CE41" />
<rect x="190" y="180" width="10" height="10" fill="#5FAE3A" />
<rect x="200" y="180" width="10" height="10" fill="#8CB53B" />
<rect x="210" y="180" width="10" height="10" fill="#238F51" />
<rect x="220" y="180" width="10" height="10" fill="#238F51" />
<rect x="280" y="180" width="10" height="10" fill="#8CB53B" />
<rect x="290" y="180" width="10" height="10" fill="#5FAE3A" />
<rect x="300" y="180" width="10" height="10" fill="#8CB53B" />
<rect x="310" y="180" width="10" height="10" fill="#8CB53B" />
<rect x="320" y="180" width="10" height="10" fill="#238F51" />
<rect x="360" y="180" width="10" height="10" fill="#8CB53B" />
<rect x="370" y="180" width="10" height="10" fill="#8CB53B" />
<rect x="380" y="180" width="10" height="10" fill="#A9CE41" />
<rect x="390" y="180" width="10" height="10" fill="#A9CE41" />
<rect x="80" y="190" width="10" height="10" fill="#A9CE41" />
<rect x="90" y="190" width="10" height="10" fill="#A9CE41" />
<rect x="100" y="190" width="10" height="10" fill="#8CB53B" />
<rect x="110" y="190" width="10" height="10" fill="#8CB53B" />
<rect x="120" y="190" width="10" height="10" fill="#8CB53B" />
<rect x="130" y="190" width="10" height="10" fill="#8CB53B" />
<rect x="140" y="190" width="10" height="10" fill="#5FAE3A" />
<rect x="170" y="190" width="10" height="10" fill="#A9CE41" />
<rect x="180" y="190" width="10" height="10" fill="#A9CE41" />
<rect x="190" y="190" width="10" height="10" fill="#5FAE3A" />
<rect x="270" y="190" width="10" height="10" fill="#A9CE41" />
<rect x="280" y="190" width="10" height="10" fill="#A9CE41" />
<rect x="290" y="190" width="10" height="10" fill="#8CB53B" />
<rect x="340" y="190" width="10" height="10" fill="#A9CE41" />
<rect x="350" y="190" width="10" height="10" fill="#A9CE41" />
<rect x="360" y="190" width="10" height="10" fill="#8CB53B" />
<rect x="370" y="190" width="10" height="10" fill="#8CB53B" />
<rect x="380" y="190" width="10" height="10" fill="#A9CE41" />
<rect x="390" y="190" width="10" height="10" fill="#A9CE41" />
<rect x="400" y="190" width="10" height="10" fill="#8CB53B" />
<rect x="80" y="200" width="10" height="10" fill="#A9CE41" />
<rect x="90" y="200" width="10" height="10" fill="#A9CE41" />
<rect x="100" y="200" width="10" height="10" fill="#A9CE41" />
<rect x="120" y="200" width="10" height="10" fill="#8CB53B" />
<rect x="130" y="200" width="10" height="10" fill="#5FAE3A" />
<rect x="140" y="200" width="10" height="10" fill="#5FAE3A" />
<rect x="170" y="200" width="10" height="10" fill="#A9CE41" />
<rect x="180" y="200" width="10" height="10" fill="#A9CE41" />
<rect x="220" y="200" width="10" height="10" fill="#A9CE41" />
<rect x="230" y="200" width="10" height="10" fill="#A9CE41" />
<rect x="240" y="200" width="10" height="10" fill="#8CB53B" />
<rect x="250" y="200" width="10" height="10" fill="#238F51" />
<rect x="270" y="200" width="10" height="10" fill="#A9CE41" />
<rect x="280" y="200" width="10" height="10" fill="#8CB53B" />
<rect x="290" y="200" width="10" height="10" fill="#8CB53B" />
<rect x="340" y="200" width="10" height="10" fill="#A9CE41" />
<rect x="350" y="200" width="10" height="10" fill="#8CB53B" />
<rect x="360" y="200" width="10" height="10" fill="#8CB53B" />
<rect x="380" y="200" width="10" height="10" fill="#A9CE41" />
<rect x="390" y="200" width="10" height="10" fill="#8CB53B" />
<rect x="400" y="200" width="10" height="10" fill="#8CB53B" />
<rect x="220" y="210" width="10" height="10" fill="#A9CE41" />
<rect x="230" y="210" width="10" height="10" fill="#A9CE41" />
<rect x="240" y="210" width="10" height="10" fill="#8CB53B" />
<rect x="250" y="210" width="10" height="10" fill="#238F51" />
<rect x="340" y="210" width="10" height="10" fill="#A9CE41" />
<rect x="350" y="210" width="10" height="10" fill="#8CB53B" />
<rect x="360" y="210" width="10" height="10" fill="#8CB53B" />
<rect x="200" y="220" width="10" height="10" fill="#A9CE41" />
<rect x="210" y="220" width="10" height="10" fill="#A9CE41" />
<rect x="220" y="220" width="10" height="10" fill="#8CB53B" />
<rect x="230" y="220" width="10" height="10" fill="#8CB53B" />
<rect x="240" y="220" width="10" height="10" fill="#238F51" />
<rect x="250" y="220" width="10" height="10" fill="#238F51" />
<rect x="130" y="230" width="10" height="10" fill="#A9CE41" />
<rect x="140" y="230" width="10" height="10" fill="#A9CE41" />
<rect x="150" y="230" width="10" height="10" fill="#8CB53B" />
<rect x="190" y="230" width="10" height="10" fill="#A9CE41" />
<rect x="200" y="230" width="10" height="10" fill="#A9CE41" />
<rect x="210" y="230" width="10" height="10" fill="#A9CE41" />
<rect x="220" y="230" width="10" height="10" fill="#8CB53B" />
<rect x="230" y="230" width="10" height="10" fill="#A9CE41" />
<rect x="240" y="230" width="10" height="10" fill="#A9CE41" />
<rect x="250" y="230" width="10" height="10" fill="#8CB53B" />
<rect x="280" y="230" width="10" height="10" fill="#8CB53B" />
<rect x="290" y="230" width="10" height="10" fill="#8CB53B" />
<rect x="300" y="230" width="10" height="10" fill="#8CB53B" />
<rect x="380" y="230" width="10" height="10" fill="#8CB53B" />
<rect x="130" y="240" width="10" height="10" fill="#A9CE41" />
<rect x="140" y="240" width="10" height="10" fill="#A9CE41" />
<rect x="150" y="240" width="10" height="10" fill="#8CB53B" />
<rect x="190" y="240" width="10" height="10" fill="#A9CE41" />
<rect x="200" y="240" width="10" height="10" fill="#A9CE41" />
<rect x="210" y="240" width="10" height="10" fill="#8CB53B" />
<rect x="230" y="240" width="10" height="10" fill="#A9CE41" />
<rect x="240" y="240" width="10" height="10" fill="#A9CE41" />
<rect x="250" y="240" width="10" height="10" fill="#8CB53B" />
<rect x="280" y="240" width="10" height="10" fill="#A9CE41" />
<rect x="290" y="240" width="10" height="10" fill="#A9CE41" />
<rect x="300" y="240" width="10" height="10" fill="#A9CE41" />
<rect x="320" y="240" width="10" height="10" fill="#5FAE3A" />
<rect x="330" y="240" width="10" height="10" fill="#5FAE3A" />
<rect x="370" y="240" width="10" height="10" fill="#A9CE41" />
<rect x="380" y="240" width="10" height="10" fill="#A9CE41" />
<rect x="390" y="240" width="10" height="10" fill="#8CB53B" />
<rect x="110" y="250" width="10" height="10" fill="#8CB53B" />
<rect x="120" y="250" width="10" height="10" fill="#8CB53B" />
<rect x="130" y="250" width="10" height="10" fill="#A9CE41" />
<rect x="140" y="250" width="10" height="10" fill="#8CB53B" />
<rect x="150" y="250" width="10" height="10" fill="#238F51" />
<rect x="230" y="250" width="10" height="10" fill="#A9CE41" />
<rect x="240" y="250" width="10" height="10" fill="#8CB53B" />
<rect x="250" y="250" width="10" height="10" fill="#8CB53B" />
<rect x="280" y="250" width="10" height="10" fill="#A9CE41" />
<rect x="290" y="250" width="10" height="10" fill="#A9CE41" />
<rect x="300" y="250" width="10" height="10" fill="#A9CE41" />
<rect x="310" y="250" width="10" height="10" fill="#5FAE3A" />
<rect x="320" y="250" width="10" height="10" fill="#5FAE3A" />
<rect x="330" y="250" width="10" height="10" fill="#5FAE3A" />
<rect x="340" y="250" width="10" height="10" fill="#5FAE3A" />
<rect x="370" y="250" width="10" height="10" fill="#A9CE41" />
<rect x="380" y="250" width="10" height="10" fill="#A9CE41" />
<rect x="390" y="250" width="10" height="10" fill="#8CB53B" />
<rect x="400" y="250" width="10" height="10" fill="#5FAE3A" />
<rect x="410" y="250" width="10" height="10" fill="#5FAE3A" />
<rect x="100" y="260" width="10" height="10" fill="#A9CE41" />
<rect x="110" y="260" width="10" height="10" fill="#A9CE41" />
<rect x="120" y="260" width="10" height="10" fill="#8CB53B" />
<rect x="130" y="260" width="10" height="10" fill="#8CB53B" />
<rect x="140" y="260" width="10" height="10" fill="#8CB53B" />
<rect x="150" y="260" width="10" height="10" fill="#8CB53B" />
<rect x="160" y="260" width="10" height="10" fill="#8CB53B" />
<rect x="300" y="260" width="10" height="10" fill="#8CB53B" />
<rect x="310" y="260" width="10" height="10" fill="#8CB53B" />
<rect x="320" y="260" width="10" height="10" fill="#5FAE3A" />
<rect x="330" y="260" width="10" height="10" fill="#5FAE3A" />
<rect x="340" y="260" width="10" height="10" fill="#5FAE3A" />
<rect x="380" y="260" width="10" height="10" fill="#8CB53B" />
<rect x="390" y="260" width="10" height="10" fill="#8CB53B" />
<rect x="400" y="260" width="10" height="10" fill="#8CB53B" />
<rect x="410" y="260" width="10" height="10" fill="#5FAE3A" />
<rect x="420" y="260" width="10" height="10" fill="#238F51" />
<rect x="100" y="270" width="10" height="10" fill="#A9CE41" />
<rect x="110" y="270" width="10" height="10" fill="#A9CE41" />
<rect x="120" y="270" width="10" height="10" fill="#A9CE41" />
<rect x="130" y="270" width="10" height="10" fill="#8CB53B" />
<rect x="140" y="270" width="10" height="10" fill="#A9CE41" />
<rect x="150" y="270" width="10" height="10" fill="#A9CE41" />
<rect x="160" y="270" width="10" height="10" fill="#8CB53B" />
<rect x="200" y="270" width="10" height="10" fill="#8CB53B" />
<rect x="210" y="270" width="10" height="10" fill="#5FAE3A" />
<rect x="290" y="270" width="10" height="10" fill="#A9CE41" />
<rect x="300" y="270" width="10" height="10" fill="#A9CE41" />
<rect x="310" y="270" width="10" height="10" fill="#8CB53B" />
<rect x="320" y="270" width="10" height="10" fill="#5FAE3A" />
<rect x="330" y="270" width="10" height="10" fill="#5FAE3A" />
<rect x="380" y="270" width="10" height="10" fill="#A9CE41" />
<rect x="390" y="270" width="10" height="10" fill="#8CB53B" />
<rect x="400" y="270" width="10" height="10" fill="#238F51" />
<rect x="410" y="270" width="10" height="10" fill="#238F51" />
<rect x="420" y="270" width="10" height="10" fill="#238F51" />
<rect x="140" y="280" width="10" height="10" fill="#A9CE41" />
<rect x="150" y="280" width="10" height="10" fill="#A9CE41" />
<rect x="160" y="280" width="10" height="10" fill="#8CB53B" />
<rect x="190" y="280" width="10" height="10" fill="#A9CE41" />
<rect x="200" y="280" width="10" height="10" fill="#8CB53B" />
<rect x="210" y="280" width="10" height="10" fill="#5FAE3A" />
<rect x="220" y="280" width="10" height="10" fill="#238F51" />
<rect x="290" y="280" width="10" height="10" fill="#A9CE41" />
<rect x="300" y="280" width="10" height="10" fill="#A9CE41" />
<rect x="310" y="280" width="10" height="10" fill="#8CB53B" />
<rect x="370" y="280" width="10" height="10" fill="#A9CE41" />
<rect x="380" y="280" width="10" height="10" fill="#238F51" />
<rect x="390" y="280" width="10" height="10" fill="#8CB53B" />
<rect x="400" y="280" width="10" height="10" fill="#238F51" />
<rect x="140" y="290" width="10" height="10" fill="#A9CE41" />
<rect x="150" y="290" width="10" height="10" fill="#A9CE41" />
<rect x="190" y="290" width="10" height="10" fill="#A9CE41" />
<rect x="200" y="290" width="10" height="10" fill="#8CB53B" />
<rect x="210" y="290" width="10" height="10" fill="#5FAE3A" />
<rect x="220" y="290" width="10" height="10" fill="#238F51" />
<rect x="230" y="290" width="10" height="10" fill="#5FAE3A" />
<rect x="240" y="290" width="10" height="10" fill="#5FAE3A" />
<rect x="250" y="290" width="10" height="10" fill="#238F51" />
<rect x="290" y="290" width="10" height="10" fill="#A9CE41" />
<rect x="300" y="290" width="10" height="10" fill="#8CB53B" />
<rect x="310" y="290" width="10" height="10" fill="#8CB53B" />
<rect x="370" y="290" width="10" height="10" fill="#8CB53B" />
<rect x="380" y="290" width="10" height="10" fill="#8CB53B" />
<rect x="390" y="290" width="10" height="10" fill="#238F51" />
<rect x="400" y="290" width="10" height="10" fill="#238F51" />
<rect x="190" y="300" width="10" height="10" fill="#A9CE41" />
<rect x="200" y="300" width="10" height="10" fill="#8CB53B" />
<rect x="210" y="300" width="10" height="10" fill="#8CB53B" />
<rect x="220" y="300" width="10" height="10" fill="#8CB53B" />
<rect x="230" y="300" width="10" height="10" fill="#8CB53B" />
<rect x="240" y="300" width="10" height="10" fill="#5FAE3A" />
<rect x="250" y="300" width="10" height="10" fill="#238F51" />
<rect x="70" y="310" width="10" height="10" fill="#8CB53B" />
<rect x="80" y="310" width="10" height="10" fill="#8CB53B" />
<rect x="90" y="310" width="10" height="10" fill="#8CB53B" />
<rect x="210" y="310" width="10" height="10" fill="#8CB53B" />
<rect x="220" y="310" width="10" height="10" fill="#8CB53B" />
<rect x="230" y="310" width="10" height="10" fill="#5FAE3A" />
<rect x="240" y="310" width="10" height="10" fill="#5FAE3A" />
<rect x="290" y="310" width="10" height="10" fill="#5FAE3A" />
<rect x="300" y="310" width="10" height="10" fill="#238F51" />
<rect x="70" y="320" width="10" height="10" fill="#8CB53B" />
<rect x="80" y="320" width="10" height="10" fill="#A9CE41" />
<rect x="90" y="320" width="10" height="10" fill="#A9CE41" />
<rect x="100" y="320" width="10" height="10" fill="#238F51" />
<rect x="110" y="320" width="10" height="10" fill="#A9CE41" />
<rect x="120" y="320" width="10" height="10" fill="#238F51" />
<rect x="200" y="320" width="10" height="10" fill="#8CB53B" />
<rect x="210" y="320" width="10" height="10" fill="#8CB53B" />
<rect x="220" y="320" width="10" height="10" fill="#5FAE3A" />
<rect x="280" y="320" width="10" height="10" fill="#A9CE41" />
<rect x="290" y="320" width="10" height="10" fill="#5FAE3A" />
<rect x="300" y="320" width="10" height="10" fill="#5FAE3A" />
<rect x="320" y="320" width="10" height="10" fill="#A9CE41" />
<rect x="330" y="320" width="10" height="10" fill="#A9CE41" />
<rect x="340" y="320" width="10" height="10" fill="#5FAE3A" />
<rect x="380" y="320" width="10" height="10" fill="#A9CE41" />
<rect x="390" y="320" width="10" height="10" fill="#8CB53B" />
<rect x="400" y="320" width="10" height="10" fill="#8CB53B" />
<rect x="70" y="330" width="10" height="10" fill="#8CB53B" />
<rect x="80" y="330" width="10" height="10" fill="#A9CE41" />
<rect x="90" y="330" width="10" height="10" fill="#A9CE41" />
<rect x="100" y="330" width="10" height="10" fill="#5FAE3A" />
<rect x="110" y="330" width="10" height="10" fill="#A9CE41" />
<rect x="120" y="330" width="10" height="10" fill="#238F51" />
<rect x="200" y="330" width="10" height="10" fill="#8CB53B" />
<rect x="210" y="330" width="10" height="10" fill="#5FAE3A" />
<rect x="220" y="330" width="10" height="10" fill="#5FAE3A" />
<rect x="280" y="330" width="10" height="10" fill="#A9CE41" />
<rect x="290" y="330" width="10" height="10" fill="#8CB53B" />
<rect x="300" y="330" width="10" height="10" fill="#5FAE3A" />
<rect x="320" y="330" width="10" height="10" fill="#A9CE41" />
<rect x="330" y="330" width="10" height="10" fill="#A9CE41" />
<rect x="340" y="330" width="10" height="10" fill="#5FAE3A" />
<rect x="380" y="330" width="10" height="10" fill="#A9CE41" />
<rect x="390" y="330" width="10" height="10" fill="#A9CE41" />
<rect x="400" y="330" width="10" height="10" fill="#5FAE3A" />
<rect x="410" y="330" width="10" height="10" fill="#238F51" />
<rect x="90" y="340" width="10" height="10" fill="#8CB53B" />
<rect x="100" y="340" width="10" height="10" fill="#5FAE3A" />
<rect x="110" y="340" width="10" height="10" fill="#238F51" />
<rect x="120" y="340" width="10" height="10" fill="#238F51" />
<rect x="300" y="340" width="10" height="10" fill="#5FAE3A" />
<rect x="310" y="340" width="10" height="10" fill="#8CB53B" />
<rect x="320" y="340" width="10" height="10" fill="#5FAE3A" />
<rect x="330" y="340" width="10" height="10" fill="#5FAE3A" />
<rect x="340" y="340" width="10" height="10" fill="#5FAE3A" />
<rect x="380" y="340" width="10" height="10" fill="#A9CE41" />
<rect x="390" y="340" width="10" height="10" fill="#A9CE41" />
<rect x="400" y="340" width="10" height="10" fill="#5FAE3A" />
<rect x="410" y="340" width="10" height="10" fill="#238F51" />
<rect x="80" y="350" width="10" height="10" fill="#8CB53B" />
<rect x="90" y="350" width="10" height="10" fill="#8CB53B" />
<rect x="100" y="350" width="10" height="10" fill="#8CB53B" />
<rect x="250" y="350" width="10" height="10" fill="#8CB53B" />
<rect x="260" y="350" width="10" height="10" fill="#8CB53B" />
<rect x="290" y="350" width="10" height="10" fill="#A9CE41" />
<rect x="300" y="350" width="10" height="10" fill="#A9CE41" />
<rect x="310" y="350" width="10" height="10" fill="#8CB53B" />
<rect x="400" y="350" width="10" height="10" fill="#5FAE3A" />
<rect x="410" y="350" width="10" height="10" fill="#8CB53B" />
<rect x="420" y="350" width="10" height="10" fill="#8CB53B" />
<rect x="430" y="350" width="10" height="10" fill="#238F51" />
<rect x="80" y="360" width="10" height="10" fill="#8CB53B" />
<rect x="90" y="360" width="10" height="10" fill="#8CB53B" />
<rect x="100" y="360" width="10" height="10" fill="#8CB53B" />
<rect x="150" y="360" width="10" height="10" fill="#A9CE41" />
<rect x="160" y="360" width="10" height="10" fill="#8CB53B" />
<rect x="170" y="360" width="10" height="10" fill="#5FAE3A" />
<rect x="200" y="360" width="10" height="10" fill="#A9CE41" />
<rect x="210" y="360" width="10" height="10" fill="#A9CE41" />
<rect x="220" y="360" width="10" height="10" fill="#5FAE3A" />
<rect x="240" y="360" width="10" height="10" fill="#8CB53B" />
<rect x="250" y="360" width="10" height="10" fill="#8CB53B" />
<rect x="260" y="360" width="10" height="10" fill="#8CB53B" />
<rect x="290" y="360" width="10" height="10" fill="#A9CE41" />
<rect x="300" y="360" width="10" height="10" fill="#8CB53B" />
<rect x="310" y="360" width="10" height="10" fill="#8CB53B" />
<rect x="370" y="360" width="10" height="10" fill="#A9CE41" />
<rect x="380" y="360" width="10" height="10" fill="#A9CE41" />
<rect x="390" y="360" width="10" height="10" fill="#8CB53B" />
<rect x="400" y="360" width="10" height="10" fill="#8CB53B" />
<rect x="410" y="360" width="10" height="10" fill="#8CB53B" />
<rect x="420" y="360" width="10" height="10" fill="#8CB53B" />
<rect x="430" y="360" width="10" height="10" fill="#238F51" />
<rect x="140" y="370" width="10" height="10" fill="#A9CE41" />
<rect x="150" y="370" width="10" height="10" fill="#A9CE41" />
<rect x="160" y="370" width="10" height="10" fill="#8CB53B" />
<rect x="170" y="370" width="10" height="10" fill="#5FAE3A" />
<rect x="200" y="370" width="10" height="10" fill="#A9CE41" />
<rect x="210" y="370" width="10" height="10" fill="#A9CE41" />
<rect x="220" y="370" width="10" height="10" fill="#5FAE3A" />
<rect x="230" y="370" width="10" height="10" fill="#5FAE3A" />
<rect x="240" y="370" width="10" height="10" fill="#8CB53B" />
<rect x="250" y="370" width="10" height="10" fill="#8CB53B" />
<rect x="260" y="370" width="10" height="10" fill="#8CB53B" />
<rect x="290" y="370" width="10" height="10" fill="#8CB53B" />
<rect x="300" y="370" width="10" height="10" fill="#8CB53B" />
<rect x="310" y="370" width="10" height="10" fill="#238F51" />
<rect x="370" y="370" width="10" height="10" fill="#A9CE41" />
<rect x="380" y="370" width="10" height="10" fill="#8CB53B" />
<rect x="390" y="370" width="10" height="10" fill="#8CB53B" />
<rect x="410" y="370" width="10" height="10" fill="#8CB53B" />
<rect x="420" y="370" width="10" height="10" fill="#8CB53B" />
<rect x="430" y="370" width="10" height="10" fill="#238F51" />
<rect x="110" y="380" width="10" height="10" fill="#8CB53B" />
<rect x="120" y="380" width="10" height="10" fill="#8CB53B" />
<rect x="130" y="380" width="10" height="10" fill="#8CB53B" />
<rect x="140" y="380" width="10" height="10" fill="#8CB53B" />
<rect x="150" y="380" width="10" height="10" fill="#5FAE3A" />
<rect x="160" y="380" width="10" height="10" fill="#5FAE3A" />
<rect x="170" y="380" width="10" height="10" fill="#5FAE3A" />
<rect x="210" y="380" width="10" height="10" fill="#8CB53B" />
<rect x="220" y="380" width="10" height="10" fill="#8CB53B" />
<rect x="230" y="380" width="10" height="10" fill="#5FAE3A" />
<rect x="370" y="380" width="10" height="10" fill="#A9CE41" />
<rect x="380" y="380" width="10" height="10" fill="#8CB53B" />
<rect x="110" y="390" width="10" height="10" fill="#8CB53B" />
<rect x="120" y="390" width="10" height="10" fill="#A9CE41" />
<rect x="130" y="390" width="10" height="10" fill="#A9CE41" />
<rect x="140" y="390" width="10" height="10" fill="#8CB53B" />
<rect x="150" y="390" width="10" height="10" fill="#8CB53B" />
<rect x="230" y="390" width="10" height="10" fill="#8CB53B" />
<rect x="240" y="390" width="10" height="10" fill="#5FAE3A" />
<rect x="250" y="390" width="10" height="10" fill="#5FAE3A" />
<rect x="110" y="400" width="10" height="10" fill="#8CB53B" />
<rect x="120" y="400" width="10" height="10" fill="#A9CE41" />
<rect x="130" y="400" width="10" height="10" fill="#A9CE41" />
<rect x="150" y="400" width="10" height="10" fill="#A9CE41" />
<rect x="160" y="400" width="10" height="10" fill="#A9CE41" />
<rect x="170" y="400" width="10" height="10" fill="#5FAE3A" />
<rect x="230" y="400" width="10" height="10" fill="#8CB53B" />
<rect x="240" y="400" width="10" height="10" fill="#5FAE3A" />
<rect x="250" y="400" width="10" height="10" fill="#5FAE3A" />
<rect x="150" y="410" width="10" height="10" fill="#A9CE41" />
<rect x="160" y="410" width="10" height="10" fill="#A9CE41" />
<rect x="170" y="410" width="10" height="10" fill="#5FAE3A" />
<rect x="230" y="410" width="10" height="10" fill="#8CB53B" />
<rect x="240" y="410" width="10" height="10" fill="#5FAE3A" />
<rect x="250" y="410" width="10" height="10" fill="#238F51" />
<rect x="150" y="420" width="10" height="10" fill="#8CB53B" />
<rect x="160" y="420" width="10" height="10" fill="#8CB53B" />
<rect x="170" y="420" width="10" height="10" fill="#8CB53B" />
</svg>