<?xml version="1.0" encoding="UTF-8" ?>
<svg version="1.1" width="500" height="500" xmlns="http://www.w3.org/2000/svg" shape-rendering="crispEdges">
<rect x="300" y="30" width="10" height="10" fill="#FFBE1B" />
<rect x="310" y="30" width="10" height="10" fill="#FFBE1B" />
<rect x="300" y="40" width="10" height="10" fill="#FFBE1B" />
<rect x="310" y="40" width="10" height="10" fill="#FFDB1B" />
<rect x="320" y="40" width="10" height="10" fill="#FFBE1B" />
<rect x="300" y="50" width="10" height="10" fill="#FFDB1B" />
<rect x="310" y="50" width="10" height="10" fill="#FFDB1B" />
<rect x="320" y="50" width="10" height="10" fill="#FFBE1B" />
<rect x="290" y="60" width="10" height="10" fill="#A9CE41" />
<rect x="300" y="60" width="10" height="10" fill="#FFDB1B" />
<rect x="270" y="70" width="10" height="10" fill="#A9CE41" />
<rect x="280" y="70" width="10" height="10" fill="#8CB53B" />
<rect x="290" y="70" width="10" height="10" fill="#8CB53B" />
<rect x="260" y="80" width="10" height="10" fill="#A9CE41" />
<rect x="270" y="80" width="10" height="10" fill="#8CB53B" />
<rect x="280" y="80" width="10" height="10" fill="#A9CE41" />
<rect x="230" y="90" width="10" height="10" fill="#FFBE1B" />
<rect x="240" y="90" width="10" height="10" fill="#FFDB1B" />
<rect x="250" y="90" width="10" height="10" fill="#FFDB1B" />
<rect x="260" y="90" width="10" height="10" fill="#FFDB1B" />
<rect x="280" y="90" width="10" height="10" fill="#A9CE41" />
<rect x="290" y="90" width="10" height="10" fill="#8CB53B" />
<rect x="300" y="90" width="10" height="10" fill="#8CB53B" />
<rect x="230" y="100" width="10" height="10" fill="#FFDB1B" />
<rect x="240" y="100" width="10" height="10" fill="#FFDB1B" />
<rect x="250" y="100" width="10" height="10" fill="#FFDB1B" />
<rect x="270" y="100" width="10" height="10" fill="#A9CE41" />
<rect x="280" y="100" width="10" height="10" fill="#8CB53B" />
<rect x="310" y="100" width="10" height="10" fill="#FFDB1B" />
<rect x="320" y="100" width="10" height="10" fill="#FFDB1B" />
<rect x="330" y="100" width="10" height="10" fill="#FFBE1B" />
<rect x="340" y="100" width="10" height="10" fill="#FFBE1B" />
<rect x="230" y="110" width="10" height="10" fill="#FFBE1B" />
<rect x="240" y="110" width="10" height="10" fill="#FFBE1B" />
<rect x="270" y="110" width="10" height="10" fill="#FFDB1B" />
<rect x="280" y="110" width="10" height="10" fill="#FFDB1B" />
<rect x="310" y="110" width="10" height="10" fill="#FFDB1B" />
<rect x="320" y="110" width="10" height="10" fill="#FFDB1B" />
<rect x="330" y="110" width="10" height="10" fill="#FFBE1B" />
<rect x="340" y="110" width="10" height="10" fill="#FFBE1B" />
<rect x="240" y="120" width="10" height="10" fill="#539D31" />
<rect x="270" y="120" width="10" height="10" fill="#FFDB1B" />
<rect x="280" y="120" width="10" height="10" fill="#FFDB1B" />
<rect x="320" y="120" width="10" height="10" fill="#FFBE1B" />
<rect x="240" y="130" width="10" height="10" fill="#539D31" />
<rect x="270" y="130" width="10" height="10" fill="#FFBE1B" />
<rect x="280" y="130" width="10" height="10" fill="#FFBE1B" />
<rect x="290" y="130" width="10" height="10" fill="#FFBE1B" />
<rect x="230" y="140" width="10" height="10" fill="#539D31" />
<rect x="240" y="140" width="10" height="10" fill="#539D31" />
<rect x="270" y="140" width="10" height="10" fill="#FFBE1B" />
<rect x="230" y="150" width="10" height="10" fill="#539D31" />
<rect x="180" y="160" width="10" height="10" fill="#8CB53B" />
<rect x="190" y="160" width="10" height="10" fill="#8CB53B" />
<rect x="230" y="160" width="10" height="10" fill="#539D31" />
<rect x="180" y="170" width="10" height="10" fill="#8CB53B" />
<rect x="190" y="170" width="10" height="10" fill="#8CB53B" />
<rect x="200" y="170" width="10" height="10" fill="#8CB53B" />
<rect x="210" y="170" width="10" height="10" fill="#8CB53B" />
<rect x="230" y="170" width="10" height="10" fill="#539D31" />
<rect x="180" y="180" width="10" height="10" fill="#29A685" />
<rect x="190" y="180" width="10" height="10" fill="#5FAE3A" />
<rect x="200" y="180" width="10" height="10" fill="#5FAE3A" />
<rect x="210" y="180" width="10" height="10" fill="#5FAE3A" />
<rect x="220" y="180" width="10" height="10" fill="#539D31" />
<rect x="200" y="190" width="10" height="10" fill="#29A685" />
<rect x="210" y="190" width="10" height="10" fill="#29A685" />
<rect x="220" y="190" width="10" height="10" fill="#539D31" />
<rect x="240" y="190" width="10" height="10" fill="#5FAE3A" />
<rect x="250" y="190" width="10" height="10" fill="#5FAE3A" />
<rect x="260" y="190" width="10" height="10" fill="#5FAE3A" />
<rect x="270" y="190" width="10" height="10" fill="#539D31" />
<rect x="160" y="200" width="10" height="10" fill="#5FAE3A" />
<rect x="170" y="200" width="10" height="10" fill="#5FAE3A" />
<rect x="180" y="200" width="10" height="10" fill="#5FAE3A" />
<rect x="220" y="200" width="10" height="10" fill="#539D31" />
<rect x="240" y="200" width="10" height="10" fill="#29A685" />
<rect x="250" y="200" width="10" height="10" fill="#539D31" />
<rect x="260" y="200" width="10" height="10" fill="#539D31" />
<rect x="270" y="200" width="10" height="10" fill="#539D31" />
<rect x="280" y="200" width="10" height="10" fill="#539D31" />
<rect x="150" y="210" width="10" height="10" fill="#539D31" />
<rect x="160" y="210" width="10" height="10" fill="#5FAE3A" />
<rect x="170" y="210" width="10" height="10" fill="#5FAE3A" />
<rect x="180" y="210" width="10" height="10" fill="#5FAE3A" />
<rect x="190" y="210" width="10" height="10" fill="#5FAE3A" />
<rect x="200" y="210" width="10" height="10" fill="#5FAE3A" />
<rect x="210" y="210" width="10" height="10" fill="#5FAE3A" />
<rect x="220" y="210" width="10" height="10" fill="#29A685" />
<rect x="230" y="210" width="10" height="10" fill="#29A685" />
<rect x="240" y="210" width="10" height="10" fill="#29A685" />
<rect x="250" y="210" width="10" height="10" fill="#29A685" />
<rect x="260" y="210" width="10" height="10" fill="#29A685" />
<rect x="150" y="220" width="10" height="10" fill="#539D31" />
<rect x="160" y="220" width="10" height="10" fill="#539D31" />
<rect x="170" y="220" width="10" height="10" fill="#5FAE3A" />
<rect x="180" y="220" width="10" height="10" fill="#5FAE3A" />
<rect x="190" y="220" width="10" height="10" fill="#539D31" />
<rect x="200" y="220" width="10" height="10" fill="#539D31" />
<rect x="210" y="220" width="10" height="10" fill="#539D31" />
<rect x="170" y="230" width="10" height="10" fill="#539D31" />
<rect x="180" y="230" width="10" height="10" fill="#539D31" />
<rect x="190" y="230" width="10" height="10" fill="#539D31" />
<rect x="210" y="230" width="10" height="10" fill="#539D31" />
<rect x="210" y="240" width="10" height="10" fill="#539D31" />
<rect x="220" y="240" width="10" height="10" fill="#5FAE3A" />
<rect x="230" y="240" width="10" height="10" fill="#5FAE3A" />
<rect x="280" y="240" width="10" height="10" fill="#8CB53B" />
<rect x="290" y="240" width="10" height="10" fill="#8CB53B" />
<rect x="300" y="240" width="10" height="10" fill="#5FAE3A" />
<rect x="210" y="250" width="10" height="10" fill="#539D31" />
<rect x="220" y="250" width="10" height="10" fill="#5FAE3A" />
<rect x="230" y="250" width="10" height="10" fill="#5FAE3A" />
<rect x="250" y="250" width="10" height="10" fill="#5FAE3A" />
<rect x="260" y="250" width="10" height="10" fill="#5FAE3A" />
<rect x="280" y="250" width="10" height="10" fill="#8CB53B" />
<rect x="290" y="250" width="10" height="10" fill="#5FAE3A" />
<rect x="300" y="250" width="10" height="10" fill="#5FAE3A" />
<rect x="170" y="260" width="10" height="10" fill="#5FAE3A" />
<rect x="180" y="260" width="10" height="10" fill="#5FAE3A" />
<rect x="190" y="260" width="10" height="10" fill="#5FAE3A" />
<rect x="210" y="260" width="10" height="10" fill="#539D31" />
<rect x="220" y="260" width="10" height="10" fill="#5FAE3A" />
<rect x="250" y="260" width="10" height="10" fill="#8CB53B" />
<rect x="260" y="260" width="10" height="10" fill="#8CB53B" />
<rect x="270" y="260" width="10" height="10" fill="#8CB53B" />
<rect x="280" y="260" width="10" height="10" fill="#5FAE3A" />
<rect x="290" y="260" width="10" height="10" fill="#5FAE3A" />
<rect x="170" y="270" width="10" height="10" fill="#29A685" />
<rect x="180" y="270" width="10" height="10" fill="#29A685" />
<rect x="190" y="270" width="10" height="10" fill="#5FAE3A" />
<rect x="200" y="270" width="10" height="10" fill="#5FAE3A" />
<rect x="210" y="270" width="10" height="10" fill="#29A685" />
<rect x="220" y="270" width="10" height="10" fill="#29A685" />
<rect x="230" y="270" width="10" height="10" fill="#5FAE3A" />
<rect x="260" y="270" width="10" height="10" fill="#8CB53B" />
<rect x="270" y="270" width="10" height="10" fill="#5FAE3A" />
<rect x="170" y="280" width="10" height="10" fill="#29A685" />
<rect x="180" y="280" width="10" height="10" fill="#29A685" />
<rect x="210" y="280" width="10" height="10" fill="#29A685" />
<rect x="220" y="280" width="10" height="10" fill="#29A685" />
<rect x="230" y="280" width="10" height="10" fill="#29A685" />
<rect x="250" y="280" width="10" height="10" fill="#8CB53B" />
<rect x="270" y="280" width="10" height="10" fill="#5FAE3A" />
<rect x="280" y="280" width="10" height="10" fill="#5FAE3A" />
<rect x="290" y="280" width="10" height="10" fill="#5FAE3A" />
<rect x="220" y="290" width="10" height="10" fill="#539D31" />
<rect x="240" y="290" width="10" height="10" fill="#8CB53B" />
<rect x="280" y="290" width="10" height="10" fill="#5FAE3A" />
<rect x="290" y="290" width="10" height="10" fill="#5FAE3A" />
<rect x="220" y="300" width="10" height="10" fill="#539D31" />
<rect x="240" y="300" width="10" height="10" fill="#8CB53B" />
<rect x="280" y="300" width="10" height="10" fill="#5FAE3A" />
<rect x="290" y="300" width="10" height="10" fill="#5FAE3A" />
<rect x="220" y="310" width="10" height="10" fill="#539D31" />
<rect x="230" y="310" width="10" height="10" fill="#8CB53B" />
<rect x="240" y="310" width="10" height="10" fill="#5FAE3A" />
<rect x="220" y="320" width="10" height="10" fill="#539D31" />
<rect x="230" y="320" width="10" height="10" fill="#8CB53B" />
<rect x="220" y="330" width="10" height="10" fill="#539D31" />
<rect x="230" y="330" width="10" height="10" fill="#539D31" />
<rect x="230" y="340" width="10" height="10" fill="#539D31" />
<rect x="230" y="350" width="10" height="10" fill="#539D31" />
<rect x="240" y="350" width="10" height="10" fill="#29A685" />
<rect x="250" y="350" width="10" height="10" fill="#5FAE3A" />
<rect x="200" y="360" width="10" height="10" fill="#5FAE3A" />
<rect x="210" y="360" width="10" height="10" fill="#5FAE3A" />
<rect x="230" y="360" width="10" height="10" fill="#539D31" />
<rect x="240" y="360" width="10" height="10" fill="#29A685" />
<rect x="210" y="370" width="10" height="10" fill="#5FAE3A" />
<rect x="220" y="370" width="10" height="10" fill="#5FAE3A" />
<rect x="230" y="370" width="10" height="10" fill="#539D31" />
<rect x="230" y="380" width="10" height="10" fill="#539D31" />
<rect x="250" y="380" width="10" height="10" fill="#5FAE3A" />
<rect x="230" y="390" width="10" height="10" fill="#539D31" />
<rect x="240" y="390" width="10" height="10" fill="#5FAE3A" />
<rect x="250" y="390" width="10" height="10" fill="#5FAE3A" />
<rect x="230" y="400" width="10" height="10" fill="#539D31" />
<rect x="240" y="400" width="10" height="10" fill="#5FAE3A" />
<rect x="210" y="410" width="10" height="10" fill="#5FAE3A" />
<rect x="220" y="410" width="10" height="10" fill="#5FAE3A" />
<rect x="230" y="410" width="10" height="10" fill="#5FAE3A" />
<rect x="240" y="410" width="10" height="10" fill="#539D31" />
<rect x="240" y="420" width="10" height="10" fill="#539D31" />
<rect x="240" y="430" width="10" height="10" fill="#539D31" />
<rect x="250" y="430" width="10" height="10" fill="#5FAE3A" />
<rect x="230" y="440" width="10" height="10" fill="#29A685" />
<rect x="240" y="440" width="10" height="10" fill="#539D31" />
<rect x="240" y="450" width="10" height="10" fill="#539D31" />
<rect x="240" y="460" width="10" height="10" fill="#539D31" />
</svg>