<?xml version="1.0" encoding="UTF-8" ?>
<svg version="1.1" width="500" height="500" xmlns="http://www.w3.org/2000/svg" shape-rendering="crispEdges">
<rect x="210" y="30" width="10" height="10" fill="#A9CE41" />
<rect x="220" y="30" width="10" height="10" fill="#8CB53B" />
<rect x="240" y="30" width="10" height="10" fill="#A9CE41" />
<rect x="250" y="30" width="10" height="10" fill="#8CB53B" />
<rect x="210" y="40" width="10" height="10" fill="#A9CE41" />
<rect x="220" y="40" width="10" height="10" fill="#8CB53B" />
<rect x="230" y="40" width="10" height="10" fill="#FFD90D" />
<rect x="240" y="40" width="10" height="10" fill="#FFD90D" />
<rect x="210" y="50" width="10" height="10" fill="#A9CE41" />
<rect x="220" y="50" width="10" height="10" fill="#8CB53B" />
<rect x="230" y="50" width="10" height="10" fill="#FFD90D" />
<rect x="240" y="50" width="10" height="10" fill="#FFD90D" />
<rect x="250" y="50" width="10" height="10" fill="#FFD90D" />
<rect x="220" y="60" width="10" height="10" fill="#A9CE41" />
<rect x="230" y="60" width="10" height="10" fill="#8CB53B" />
<rect x="240" y="60" width="10" height="10" fill="#FFD90D" />
<rect x="220" y="70" width="10" height="10" fill="#A9CE41" />
<rect x="230" y="70" width="10" height="10" fill="#8CB53B" />
<rect x="240" y="70" width="10" height="10" fill="#8CB53B" />
<rect x="250" y="70" width="10" height="10" fill="#8CB53B" />
<rect x="260" y="70" width="10" height="10" fill="#8CB53B" />
<rect x="150" y="80" width="10" height="10" fill="#FFD90D" />
<rect x="160" y="80" width="10" height="10" fill="#FFD90D" />
<rect x="180" y="80" width="10" height="10" fill="#A9CE41" />
<rect x="190" y="80" width="10" height="10" fill="#8CB53B" />
<rect x="210" y="80" width="10" height="10" fill="#A9CE41" />
<rect x="220" y="80" width="10" height="10" fill="#8CB53B" />
<rect x="230" y="80" width="10" height="10" fill="#8CB53B" />
<rect x="240" y="80" width="10" height="10" fill="#5FAE3A" />
<rect x="250" y="80" width="10" height="10" fill="#5FAE3A" />
<rect x="260" y="80" width="10" height="10" fill="#8CB53B" />
<rect x="140" y="90" width="10" height="10" fill="#FFD90D" />
<rect x="150" y="90" width="10" height="10" fill="#FFD90D" />
<rect x="160" y="90" width="10" height="10" fill="#FFD90D" />
<rect x="170" y="90" width="10" height="10" fill="#A9CE41" />
<rect x="180" y="90" width="10" height="10" fill="#A9CE41" />
<rect x="190" y="90" width="10" height="10" fill="#8CB53B" />
<rect x="210" y="90" width="10" height="10" fill="#A9CE41" />
<rect x="240" y="90" width="10" height="10" fill="#5FAE3A" />
<rect x="250" y="90" width="10" height="10" fill="#5FAE3A" />
<rect x="280" y="90" width="10" height="10" fill="#5FAE3A" />
<rect x="290" y="90" width="10" height="10" fill="#5FAE3A" />
<rect x="130" y="100" width="10" height="10" fill="#A9CE41" />
<rect x="140" y="100" width="10" height="10" fill="#8CB53B" />
<rect x="150" y="100" width="10" height="10" fill="#FFD90D" />
<rect x="160" y="100" width="10" height="10" fill="#FFD90D" />
<rect x="170" y="100" width="10" height="10" fill="#A9CE41" />
<rect x="180" y="100" width="10" height="10" fill="#5FAE3A" />
<rect x="190" y="100" width="10" height="10" fill="#8CB53B" />
<rect x="210" y="100" width="10" height="10" fill="#A9CE41" />
<rect x="240" y="100" width="10" height="10" fill="#5FAE3A" />
<rect x="250" y="100" width="10" height="10" fill="#5FAE3A" />
<rect x="260" y="100" width="10" height="10" fill="#FFD90D" />
<rect x="270" y="100" width="10" height="10" fill="#FFD90D" />
<rect x="280" y="100" width="10" height="10" fill="#FFD90D" />
<rect x="290" y="100" width="10" height="10" fill="#8CB53B" />
<rect x="130" y="110" width="10" height="10" fill="#5FAE3A" />
<rect x="140" y="110" width="10" height="10" fill="#8CB53B" />
<rect x="150" y="110" width="10" height="10" fill="#8CB53B" />
<rect x="170" y="110" width="10" height="10" fill="#A9CE41" />
<rect x="180" y="110" width="10" height="10" fill="#5FAE3A" />
<rect x="190" y="110" width="10" height="10" fill="#8CB53B" />
<rect x="210" y="110" width="10" height="10" fill="#A9CE41" />
<rect x="250" y="110" width="10" height="10" fill="#5FAE3A" />
<rect x="260" y="110" width="10" height="10" fill="#8CB53B" />
<rect x="270" y="110" width="10" height="10" fill="#FFD90D" />
<rect x="280" y="110" width="10" height="10" fill="#FFD90D" />
<rect x="290" y="110" width="10" height="10" fill="#8CB53B" />
<rect x="130" y="120" width="10" height="10" fill="#5FAE3A" />
<rect x="140" y="120" width="10" height="10" fill="#5FAE3A" />
<rect x="150" y="120" width="10" height="10" fill="#5FAE3A" />
<rect x="160" y="120" width="10" height="10" fill="#5FAE3A" />
<rect x="170" y="120" width="10" height="10" fill="#8CB53B" />
<rect x="210" y="120" width="10" height="10" fill="#A9CE41" />
<rect x="240" y="120" width="10" height="10" fill="#8CB53B" />
<rect x="250" y="120" width="10" height="10" fill="#8CB53B" />
<rect x="260" y="120" width="10" height="10" fill="#8CB53B" />
<rect x="270" y="120" width="10" height="10" fill="#FFD90D" />
<rect x="280" y="120" width="10" height="10" fill="#FFD90D" />
<rect x="170" y="130" width="10" height="10" fill="#8CB53B" />
<rect x="210" y="130" width="10" height="10" fill="#A9CE41" />
<rect x="230" y="130" width="10" height="10" fill="#8CB53B" />
<rect x="240" y="130" width="10" height="10" fill="#8CB53B" />
<rect x="260" y="130" width="10" height="10" fill="#5FAE3A" />
<rect x="270" y="130" width="10" height="10" fill="#8CB53B" />
<rect x="280" y="130" width="10" height="10" fill="#8CB53B" />
<rect x="150" y="140" width="10" height="10" fill="#5FAE3A" />
<rect x="160" y="140" width="10" height="10" fill="#5FAE3A" />
<rect x="170" y="140" width="10" height="10" fill="#8CB53B" />
<rect x="180" y="140" width="10" height="10" fill="#8CB53B" />
<rect x="220" y="140" width="10" height="10" fill="#A9CE41" />
<rect x="260" y="140" width="10" height="10" fill="#5FAE3A" />
<rect x="270" y="140" width="10" height="10" fill="#5FAE3A" />
<rect x="280" y="140" width="10" height="10" fill="#5FAE3A" />
<rect x="140" y="150" width="10" height="10" fill="#5FAE3A" />
<rect x="150" y="150" width="10" height="10" fill="#5FAE3A" />
<rect x="160" y="150" width="10" height="10" fill="#8CB53B" />
<rect x="190" y="150" width="10" height="10" fill="#8CB53B" />
<rect x="220" y="150" width="10" height="10" fill="#A9CE41" />
<rect x="140" y="160" width="10" height="10" fill="#5FAE3A" />
<rect x="150" y="160" width="10" height="10" fill="#8CB53B" />
<rect x="200" y="160" width="10" height="10" fill="#8CB53B" />
<rect x="210" y="160" width="10" height="10" fill="#A9CE41" />
<rect x="200" y="170" width="10" height="10" fill="#A9CE41" />
<rect x="210" y="170" width="10" height="10" fill="#A9CE41" />
<rect x="240" y="170" width="10" height="10" fill="#A9CE41" />
<rect x="260" y="170" width="10" height="10" fill="#A9CE41" />
<rect x="160" y="180" width="10" height="10" fill="#A9CE41" />
<rect x="180" y="180" width="10" height="10" fill="#5FAE3A" />
<rect x="210" y="180" width="10" height="10" fill="#A9CE41" />
<rect x="230" y="180" width="10" height="10" fill="#A9CE41" />
<rect x="240" y="180" width="10" height="10" fill="#5FAE3A" />
<rect x="250" y="180" width="10" height="10" fill="#5FAE3A" />
<rect x="260" y="180" width="10" height="10" fill="#8CB53B" />
<rect x="160" y="190" width="10" height="10" fill="#5FAE3A" />
<rect x="170" y="190" width="10" height="10" fill="#5FAE3A" />
<rect x="180" y="190" width="10" height="10" fill="#5FAE3A" />
<rect x="190" y="190" width="10" height="10" fill="#5FAE3A" />
<rect x="210" y="190" width="10" height="10" fill="#A9CE41" />
<rect x="240" y="190" width="10" height="10" fill="#8CB53B" />
<rect x="250" y="190" width="10" height="10" fill="#8CB53B" />
<rect x="280" y="190" width="10" height="10" fill="#A9CE41" />
<rect x="150" y="200" width="10" height="10" fill="#A9CE41" />
<rect x="160" y="200" width="10" height="10" fill="#5FAE3A" />
<rect x="170" y="200" width="10" height="10" fill="#5FAE3A" />
<rect x="180" y="200" width="10" height="10" fill="#5FAE3A" />
<rect x="210" y="200" width="10" height="10" fill="#A9CE41" />
<rect x="250" y="200" width="10" height="10" fill="#8CB53B" />
<rect x="260" y="200" width="10" height="10" fill="#8CB53B" />
<rect x="280" y="200" width="10" height="10" fill="#8CB53B" />
<rect x="290" y="200" width="10" height="10" fill="#5FAE3A" />
<rect x="160" y="210" width="10" height="10" fill="#A9CE41" />
<rect x="170" y="210" width="10" height="10" fill="#5FAE3A" />
<rect x="180" y="210" width="10" height="10" fill="#5FAE3A" />
<rect x="190" y="210" width="10" height="10" fill="#A9CE41" />
<rect x="210" y="210" width="10" height="10" fill="#A9CE41" />
<rect x="240" y="210" width="10" height="10" fill="#8CB53B" />
<rect x="270" y="210" width="10" height="10" fill="#A9CE41" />
<rect x="280" y="210" width="10" height="10" fill="#5FAE3A" />
<rect x="290" y="210" width="10" height="10" fill="#8CB53B" />
<rect x="300" y="210" width="10" height="10" fill="#A9CE41" />
<rect x="180" y="220" width="10" height="10" fill="#A9CE41" />
<rect x="200" y="220" width="10" height="10" fill="#A9CE41" />
<rect x="210" y="220" width="10" height="10" fill="#A9CE41" />
<rect x="230" y="220" width="10" height="10" fill="#8CB53B" />
<rect x="270" y="220" width="10" height="10" fill="#5FAE3A" />
<rect x="280" y="220" width="10" height="10" fill="#8CB53B" />
<rect x="290" y="220" width="10" height="10" fill="#8CB53B" />
<rect x="140" y="230" width="10" height="10" fill="#A9CE41" />
<rect x="150" y="230" width="10" height="10" fill="#A9CE41" />
<rect x="210" y="230" width="10" height="10" fill="#A9CE41" />
<rect x="220" y="230" width="10" height="10" fill="#A9CE41" />
<rect x="280" y="230" width="10" height="10" fill="#A9CE41" />
<rect x="140" y="240" width="10" height="10" fill="#A9CE41" />
<rect x="150" y="240" width="10" height="10" fill="#5FAE3A" />
<rect x="220" y="240" width="10" height="10" fill="#A9CE41" />
<rect x="140" y="250" width="10" height="10" fill="#A9CE41" />
<rect x="150" y="250" width="10" height="10" fill="#5FAE3A" />
<rect x="160" y="250" width="10" height="10" fill="#5FAE3A" />
<rect x="220" y="250" width="10" height="10" fill="#A9CE41" />
<rect x="290" y="250" width="10" height="10" fill="#A9CE41" />
<rect x="300" y="250" width="10" height="10" fill="#5FAE3A" />
<rect x="160" y="260" width="10" height="10" fill="#5FAE3A" />
<rect x="170" y="260" width="10" height="10" fill="#5FAE3A" />
<rect x="220" y="260" width="10" height="10" fill="#A9CE41" />
<rect x="280" y="260" width="10" height="10" fill="#A9CE41" />
<rect x="290" y="260" width="10" height="10" fill="#5FAE3A" />
<rect x="300" y="260" width="10" height="10" fill="#5FAE3A" />
<rect x="130" y="270" width="10" height="10" fill="#A9CE41" />
<rect x="140" y="270" width="10" height="10" fill="#A9CE41" />
<rect x="150" y="270" width="10" height="10" fill="#5FAE3A" />
<rect x="160" y="270" width="10" height="10" fill="#5FAE3A" />
<rect x="170" y="270" width="10" height="10" fill="#5FAE3A" />
<rect x="180" y="270" width="10" height="10" fill="#8CB53B" />
<rect x="190" y="270" width="10" height="10" fill="#5FAE3A" />
<rect x="220" y="270" width="10" height="10" fill="#A9CE41" />
<rect x="250" y="270" width="10" height="10" fill="#A9CE41" />
<rect x="260" y="270" width="10" height="10" fill="#8CB53B" />
<rect x="280" y="270" width="10" height="10" fill="#5FAE3A" />
<rect x="290" y="270" width="10" height="10" fill="#5FAE3A" />
<rect x="130" y="280" width="10" height="10" fill="#A9CE41" />
<rect x="140" y="280" width="10" height="10" fill="#5FAE3A" />
<rect x="150" y="280" width="10" height="10" fill="#5FAE3A" />
<rect x="170" y="280" width="10" height="10" fill="#8CB53B" />
<rect x="200" y="280" width="10" height="10" fill="#8CB53B" />
<rect x="210" y="280" width="10" height="10" fill="#8CB53B" />
<rect x="220" y="280" width="10" height="10" fill="#5FAE3A" />
<rect x="250" y="280" width="10" height="10" fill="#A9CE41" />
<rect x="260" y="280" width="10" height="10" fill="#8CB53B" />
<rect x="280" y="280" width="10" height="10" fill="#5FAE3A" />
<rect x="130" y="290" width="10" height="10" fill="#A9CE41" />
<rect x="140" y="290" width="10" height="10" fill="#5FAE3A" />
<rect x="170" y="290" width="10" height="10" fill="#8CB53B" />
<rect x="180" y="290" width="10" height="10" fill="#8CB53B" />
<rect x="220" y="290" width="10" height="10" fill="#5FAE3A" />
<rect x="230" y="290" width="10" height="10" fill="#5FAE3A" />
<rect x="270" y="290" width="10" height="10" fill="#A9CE41" />
<rect x="290" y="290" width="10" height="10" fill="#8CB53B" />
<rect x="300" y="290" width="10" height="10" fill="#8CB53B" />
<rect x="310" y="290" width="10" height="10" fill="#8CB53B" />
<rect x="170" y="300" width="10" height="10" fill="#8CB53B" />
<rect x="180" y="300" width="10" height="10" fill="#8CB53B" />
<rect x="230" y="300" width="10" height="10" fill="#8CB53B" />
<rect x="270" y="300" width="10" height="10" fill="#5FAE3A" />
<rect x="290" y="300" width="10" height="10" fill="#5FAE3A" />
<rect x="300" y="300" width="10" height="10" fill="#5FAE3A" />
<rect x="310" y="300" width="10" height="10" fill="#5FAE3A" />
<rect x="230" y="310" width="10" height="10" fill="#8CB53B" />
<rect x="270" y="310" width="10" height="10" fill="#5FAE3A" />
<rect x="230" y="320" width="10" height="10" fill="#8CB53B" />
<rect x="260" y="320" width="10" height="10" fill="#5FAE3A" />
<rect x="230" y="330" width="10" height="10" fill="#8CB53B" />
<rect x="250" y="330" width="10" height="10" fill="#5FAE3A" />
<rect x="230" y="340" width="10" height="10" fill="#8CB53B" />
<rect x="250" y="340" width="10" height="10" fill="#5FAE3A" />
<rect x="230" y="350" width="10" height="10" fill="#8CB53B" />
<rect x="240" y="350" width="10" height="10" fill="#5FAE3A" />
<rect x="250" y="350" width="10" height="10" fill="#5FAE3A" />
<rect x="230" y="360" width="10" height="10" fill="#8CB53B" />
<rect x="230" y="370" width="10" height="10" fill="#8CB53B" />
<rect x="230" y="380" width="10" height="10" fill="#8CB53B" />
<rect x="230" y="390" width="10" height="10" fill="#8CB53B" />
<rect x="230" y="400" width="10" height="10" fill="#8CB53B" />
<rect x="230" y="410" width="10" height="10" fill="#8CB53B" />
<rect x="230" y="420" width="10" height="10" fill="#8CB53B" />
<rect x="230" y="430" width="10" height="10" fill="#8CB53B" />
<rect x="230" y="440" width="10" height="10" fill="#8CB53B" />
<rect x="230" y="450" width="10" height="10" fill="#8CB53B" />
<rect x="220" y="460" width="10" height="10" fill="#8CB53B" />
<rect x="230" y="460" width="10" height="10" fill="#8CB53B" />
<rect x="220" y="470" width="10" height="10" fill="#8CB53B" />
<rect x="220" y="480" width="10" height="10" fill="#8CB53B" />
<rect x="220" y="490" width="10" height="10" fill="#8CB53B" />
</svg>