<?xml version="1.0" encoding="UTF-8" ?>
<svg version="1.1" width="500" height="500" xmlns="http://www.w3.org/2000/svg" shape-rendering="crispEdges">
<rect x="290" y="80" width="10" height="10" fill="#8CB53B" />
<rect x="300" y="80" width="10" height="10" fill="#5FAE3A" />
<rect x="310" y="80" width="10" height="10" fill="#5FAE3A" />
<rect x="270" y="90" width="10" height="10" fill="#8CB53B" />
<rect x="280" y="90" width="10" height="10" fill="#8CB53B" />
<rect x="290" y="90" width="10" height="10" fill="#5FAE3A" />
<rect x="300" y="90" width="10" height="10" fill="#539D31" />
<rect x="310" y="90" width="10" height="10" fill="#539D31" />
<rect x="320" y="90" width="10" height="10" fill="#539D31" />
<rect x="330" y="90" width="10" height="10" fill="#FFDA12" />
<rect x="270" y="100" width="10" height="10" fill="#5FAE3A" />
<rect x="300" y="100" width="10" height="10" fill="#539D31" />
<rect x="310" y="100" width="10" height="10" fill="#539D31" />
<rect x="320" y="100" width="10" height="10" fill="#E9AB00" />
<rect x="330" y="100" width="10" height="10" fill="#FFDA12" />
<rect x="340" y="100" width="10" height="10" fill="#FFC628" />
<rect x="270" y="110" width="10" height="10" fill="#539D31" />
<rect x="300" y="110" width="10" height="10" fill="#539D31" />
<rect x="310" y="110" width="10" height="10" fill="#E9AB00" />
<rect x="320" y="110" width="10" height="10" fill="#E9AB00" />
<rect x="330" y="110" width="10" height="10" fill="#FFDA12" />
<rect x="340" y="110" width="10" height="10" fill="#FFC628" />
<rect x="350" y="110" width="10" height="10" fill="#FFC628" />
<rect x="360" y="110" width="10" height="10" fill="#FFDA12" />
<rect x="260" y="120" width="10" height="10" fill="#8CB53B" />
<rect x="270" y="120" width="10" height="10" fill="#539D31" />
<rect x="300" y="120" width="10" height="10" fill="#FFC628" />
<rect x="310" y="120" width="10" height="10" fill="#E9AB00" />
<rect x="320" y="120" width="10" height="10" fill="#FFBC00" />
<rect x="330" y="120" width="10" height="10" fill="#FFC628" />
<rect x="340" y="120" width="10" height="10" fill="#FFDA12" />
<rect x="350" y="120" width="10" height="10" fill="#FFC628" />
<rect x="360" y="120" width="10" height="10" fill="#FFC628" />
<rect x="260" y="130" width="10" height="10" fill="#539D31" />
<rect x="290" y="130" width="10" height="10" fill="#FFC628" />
<rect x="300" y="130" width="10" height="10" fill="#FFC628" />
<rect x="310" y="130" width="10" height="10" fill="#E9AB00" />
<rect x="320" y="130" width="10" height="10" fill="#E9AB00" />
<rect x="330" y="130" width="10" height="10" fill="#FFBC00" />
<rect x="340" y="130" width="10" height="10" fill="#FFC628" />
<rect x="350" y="130" width="10" height="10" fill="#FFDA12" />
<rect x="220" y="140" width="10" height="10" fill="#5FAE3A" />
<rect x="230" y="140" width="10" height="10" fill="#5FAE3A" />
<rect x="240" y="140" width="10" height="10" fill="#5FAE3A" />
<rect x="260" y="140" width="10" height="10" fill="#539D31" />
<rect x="280" y="140" width="10" height="10" fill="#5FAE3A" />
<rect x="300" y="140" width="10" height="10" fill="#E9AB00" />
<rect x="310" y="140" width="10" height="10" fill="#E9AB00" />
<rect x="320" y="140" width="10" height="10" fill="#FFBC00" />
<rect x="340" y="140" width="10" height="10" fill="#E9AB00" />
<rect x="350" y="140" width="10" height="10" fill="#FFDA12" />
<rect x="230" y="150" width="10" height="10" fill="#238F51" />
<rect x="240" y="150" width="10" height="10" fill="#238F51" />
<rect x="250" y="150" width="10" height="10" fill="#539D31" />
<rect x="260" y="150" width="10" height="10" fill="#5FAE3A" />
<rect x="270" y="150" width="10" height="10" fill="#238F51" />
<rect x="280" y="150" width="10" height="10" fill="#238F51" />
<rect x="310" y="150" width="10" height="10" fill="#E9AB00" />
<rect x="320" y="150" width="10" height="10" fill="#E9AB00" />
<rect x="250" y="160" width="10" height="10" fill="#238F51" />
<rect x="260" y="160" width="10" height="10" fill="#238F51" />
<rect x="270" y="160" width="10" height="10" fill="#238F51" />
<rect x="250" y="170" width="10" height="10" fill="#238F51" />
<rect x="250" y="180" width="10" height="10" fill="#238F51" />
<rect x="250" y="190" width="10" height="10" fill="#238F51" />
<rect x="210" y="200" width="10" height="10" fill="#539D31" />
<rect x="220" y="200" width="10" height="10" fill="#539D31" />
<rect x="230" y="200" width="10" height="10" fill="#539D31" />
<rect x="250" y="200" width="10" height="10" fill="#238F51" />
<rect x="270" y="200" width="10" height="10" fill="#539D31" />
<rect x="280" y="200" width="10" height="10" fill="#539D31" />
<rect x="200" y="210" width="10" height="10" fill="#29A685" />
<rect x="210" y="210" width="10" height="10" fill="#539D31" />
<rect x="220" y="210" width="10" height="10" fill="#539D31" />
<rect x="230" y="210" width="10" height="10" fill="#539D31" />
<rect x="240" y="210" width="10" height="10" fill="#539D31" />
<rect x="250" y="210" width="10" height="10" fill="#238F51" />
<rect x="260" y="210" width="10" height="10" fill="#539D31" />
<rect x="270" y="210" width="10" height="10" fill="#539D31" />
<rect x="280" y="210" width="10" height="10" fill="#539D31" />
<rect x="290" y="210" width="10" height="10" fill="#29A685" />
<rect x="200" y="220" width="10" height="10" fill="#29A685" />
<rect x="210" y="220" width="10" height="10" fill="#29A685" />
<rect x="220" y="220" width="10" height="10" fill="#539D31" />
<rect x="230" y="220" width="10" height="10" fill="#238F51" />
<rect x="240" y="220" width="10" height="10" fill="#238F51" />
<rect x="250" y="220" width="10" height="10" fill="#539D31" />
<rect x="260" y="220" width="10" height="10" fill="#539D31" />
<rect x="270" y="220" width="10" height="10" fill="#29A685" />
<rect x="280" y="220" width="10" height="10" fill="#29A685" />
<rect x="290" y="220" width="10" height="10" fill="#29A685" />
<rect x="210" y="230" width="10" height="10" fill="#29A685" />
<rect x="220" y="230" width="10" height="10" fill="#29A685" />
<rect x="240" y="230" width="10" height="10" fill="#238F51" />
<rect x="250" y="230" width="10" height="10" fill="#29A685" />
<rect x="260" y="230" width="10" height="10" fill="#29A685" />
<rect x="270" y="230" width="10" height="10" fill="#29A685" />
<rect x="250" y="240" width="10" height="10" fill="#539D31" />
<rect x="250" y="250" width="10" height="10" fill="#539D31" />
<rect x="250" y="260" width="10" height="10" fill="#539D31" />
<rect x="250" y="270" width="10" height="10" fill="#539D31" />
<rect x="260" y="270" width="10" height="10" fill="#8CB53B" />
<rect x="270" y="270" width="10" height="10" fill="#8CB53B" />
<rect x="280" y="270" width="10" height="10" fill="#5FAE3A" />
<rect x="290" y="270" width="10" height="10" fill="#8CB53B" />
<rect x="300" y="270" width="10" height="10" fill="#5FAE3A" />
<rect x="310" y="270" width="10" height="10" fill="#8CB53B" />
<rect x="320" y="270" width="10" height="10" fill="#8CB53B" />
<rect x="240" y="280" width="10" height="10" fill="#8CB53B" />
<rect x="250" y="280" width="10" height="10" fill="#539D31" />
<rect x="260" y="280" width="10" height="10" fill="#5FAE3A" />
<rect x="270" y="280" width="10" height="10" fill="#8CB53B" />
<rect x="280" y="280" width="10" height="10" fill="#5FAE3A" />
<rect x="290" y="280" width="10" height="10" fill="#5FAE3A" />
<rect x="300" y="280" width="10" height="10" fill="#8CB53B" />
<rect x="310" y="280" width="10" height="10" fill="#5FAE3A" />
<rect x="320" y="280" width="10" height="10" fill="#29A685" />
<rect x="330" y="280" width="10" height="10" fill="#29A685" />
<rect x="240" y="290" width="10" height="10" fill="#5FAE3A" />
<rect x="250" y="290" width="10" height="10" fill="#238F51" />
<rect x="260" y="290" width="10" height="10" fill="#5FAE3A" />
<rect x="270" y="290" width="10" height="10" fill="#8CB53B" />
<rect x="280" y="290" width="10" height="10" fill="#5FAE3A" />
<rect x="290" y="290" width="10" height="10" fill="#8CB53B" />
<rect x="300" y="290" width="10" height="10" fill="#5FAE3A" />
<rect x="310" y="290" width="10" height="10" fill="#29A685" />
<rect x="320" y="290" width="10" height="10" fill="#29A685" />
<rect x="330" y="290" width="10" height="10" fill="#29A685" />
<rect x="240" y="300" width="10" height="10" fill="#5FAE3A" />
<rect x="250" y="300" width="10" height="10" fill="#238F51" />
<rect x="260" y="300" width="10" height="10" fill="#5FAE3A" />
<rect x="270" y="300" width="10" height="10" fill="#8CB53B" />
<rect x="280" y="300" width="10" height="10" fill="#8CB53B" />
<rect x="290" y="300" width="10" height="10" fill="#8CB53B" />
<rect x="300" y="300" width="10" height="10" fill="#8CB53B" />
<rect x="310" y="300" width="10" height="10" fill="#29A685" />
<rect x="320" y="300" width="10" height="10" fill="#29A685" />
<rect x="190" y="310" width="10" height="10" fill="#8CB53B" />
<rect x="200" y="310" width="10" height="10" fill="#8CB53B" />
<rect x="210" y="310" width="10" height="10" fill="#8CB53B" />
<rect x="220" y="310" width="10" height="10" fill="#8CB53B" />
<rect x="230" y="310" width="10" height="10" fill="#8CB53B" />
<rect x="240" y="310" width="10" height="10" fill="#8CB53B" />
<rect x="250" y="310" width="10" height="10" fill="#8CB53B" />
<rect x="260" y="310" width="10" height="10" fill="#29A685" />
<rect x="270" y="310" width="10" height="10" fill="#29A685" />
<rect x="280" y="310" width="10" height="10" fill="#5FAE3A" />
<rect x="290" y="310" width="10" height="10" fill="#5FAE3A" />
<rect x="300" y="310" width="10" height="10" fill="#29A685" />
<rect x="310" y="310" width="10" height="10" fill="#29A685" />
<rect x="320" y="310" width="10" height="10" fill="#29A685" />
<rect x="190" y="320" width="10" height="10" fill="#5FAE3A" />
<rect x="200" y="320" width="10" height="10" fill="#5FAE3A" />
<rect x="210" y="320" width="10" height="10" fill="#5FAE3A" />
<rect x="220" y="320" width="10" height="10" fill="#5FAE3A" />
<rect x="230" y="320" width="10" height="10" fill="#8CB53B" />
<rect x="240" y="320" width="10" height="10" fill="#8CB53B" />
<rect x="250" y="320" width="10" height="10" fill="#8CB53B" />
<rect x="260" y="320" width="10" height="10" fill="#8CB53B" />
<rect x="270" y="320" width="10" height="10" fill="#29A685" />
<rect x="280" y="320" width="10" height="10" fill="#29A685" />
<rect x="290" y="320" width="10" height="10" fill="#29A685" />
<rect x="300" y="320" width="10" height="10" fill="#29A685" />
<rect x="310" y="320" width="10" height="10" fill="#29A685" />
<rect x="200" y="330" width="10" height="10" fill="#5FAE3A" />
<rect x="210" y="330" width="10" height="10" fill="#5FAE3A" />
<rect x="220" y="330" width="10" height="10" fill="#5FAE3A" />
<rect x="230" y="330" width="10" height="10" fill="#5FAE3A" />
<rect x="240" y="330" width="10" height="10" fill="#5FAE3A" />
<rect x="250" y="330" width="10" height="10" fill="#5FAE3A" />
<rect x="260" y="330" width="10" height="10" fill="#8CB53B" />
<rect x="270" y="330" width="10" height="10" fill="#8CB53B" />
<rect x="280" y="330" width="10" height="10" fill="#29A685" />
<rect x="290" y="330" width="10" height="10" fill="#29A685" />
<rect x="200" y="340" width="10" height="10" fill="#29A685" />
<rect x="210" y="340" width="10" height="10" fill="#29A685" />
<rect x="220" y="340" width="10" height="10" fill="#29A685" />
<rect x="230" y="340" width="10" height="10" fill="#5FAE3A" />
<rect x="240" y="340" width="10" height="10" fill="#5FAE3A" />
<rect x="250" y="340" width="10" height="10" fill="#5FAE3A" />
<rect x="260" y="340" width="10" height="10" fill="#5FAE3A" />
<rect x="270" y="340" width="10" height="10" fill="#8CB53B" />
<rect x="210" y="350" width="10" height="10" fill="#29A685" />
<rect x="220" y="350" width="10" height="10" fill="#29A685" />
<rect x="230" y="350" width="10" height="10" fill="#29A685" />
<rect x="240" y="350" width="10" height="10" fill="#29A685" />
<rect x="250" y="350" width="10" height="10" fill="#5FAE3A" />
<rect x="260" y="350" width="10" height="10" fill="#5FAE3A" />
<rect x="270" y="350" width="10" height="10" fill="#5FAE3A" />
<rect x="220" y="360" width="10" height="10" fill="#29A685" />
<rect x="230" y="360" width="10" height="10" fill="#29A685" />
<rect x="240" y="360" width="10" height="10" fill="#29A685" />
<rect x="250" y="360" width="10" height="10" fill="#539D31" />
<rect x="250" y="370" width="10" height="10" fill="#539D31" />
<rect x="250" y="380" width="10" height="10" fill="#539D31" />
<rect x="250" y="390" width="10" height="10" fill="#539D31" />
<rect x="250" y="400" width="10" height="10" fill="#539D31" />
<rect x="290" y="400" width="10" height="10" fill="#5FAE3A" />
<rect x="300" y="400" width="10" height="10" fill="#5FAE3A" />
<rect x="340" y="400" width="10" height="10" fill="#8CB53B" />
<rect x="350" y="400" width="10" height="10" fill="#8CB53B" />
<rect x="140" y="410" width="10" height="10" fill="#5FAE3A" />
<rect x="150" y="410" width="10" height="10" fill="#5FAE3A" />
<rect x="160" y="410" width="10" height="10" fill="#5FAE3A" />
<rect x="200" y="410" width="10" height="10" fill="#8CB53B" />
<rect x="210" y="410" width="10" height="10" fill="#5FAE3A" />
<rect x="220" y="410" width="10" height="10" fill="#539D31" />
<rect x="230" y="410" width="10" height="10" fill="#539D31" />
<rect x="250" y="410" width="10" height="10" fill="#539D31" />
<rect x="280" y="410" width="10" height="10" fill="#8CB53B" />
<rect x="290" y="410" width="10" height="10" fill="#5FAE3A" />
<rect x="300" y="410" width="10" height="10" fill="#5FAE3A" />
<rect x="310" y="410" width="10" height="10" fill="#5FAE3A" />
<rect x="320" y="410" width="10" height="10" fill="#5FAE3A" />
<rect x="330" y="410" width="10" height="10" fill="#8CB53B" />
<rect x="340" y="410" width="10" height="10" fill="#8CB53B" />
<rect x="350" y="410" width="10" height="10" fill="#539D31" />
<rect x="130" y="420" width="10" height="10" fill="#5FAE3A" />
<rect x="140" y="420" width="10" height="10" fill="#8CB53B" />
<rect x="150" y="420" width="10" height="10" fill="#8CB53B" />
<rect x="160" y="420" width="10" height="10" fill="#8CB53B" />
<rect x="170" y="420" width="10" height="10" fill="#8CB53B" />
<rect x="180" y="420" width="10" height="10" fill="#5FAE3A" />
<rect x="190" y="420" width="10" height="10" fill="#5FAE3A" />
<rect x="200" y="420" width="10" height="10" fill="#539D31" />
<rect x="210" y="420" width="10" height="10" fill="#5FAE3A" />
<rect x="220" y="420" width="10" height="10" fill="#5FAE3A" />
<rect x="230" y="420" width="10" height="10" fill="#539D31" />
<rect x="240" y="420" width="10" height="10" fill="#539D31" />
<rect x="250" y="420" width="10" height="10" fill="#539D31" />
<rect x="270" y="420" width="10" height="10" fill="#8CB53B" />
<rect x="280" y="420" width="10" height="10" fill="#8CB53B" />
<rect x="290" y="420" width="10" height="10" fill="#5FAE3A" />
<rect x="300" y="420" width="10" height="10" fill="#5FAE3A" />
<rect x="310" y="420" width="10" height="10" fill="#5FAE3A" />
<rect x="320" y="420" width="10" height="10" fill="#8CB53B" />
<rect x="330" y="420" width="10" height="10" fill="#8CB53B" />
<rect x="340" y="420" width="10" height="10" fill="#5FAE3A" />
<rect x="350" y="420" width="10" height="10" fill="#539D31" />
<rect x="360" y="420" width="10" height="10" fill="#5FAE3A" />
<rect x="370" y="420" width="10" height="10" fill="#8CB53B" />
<rect x="380" y="420" width="10" height="10" fill="#8CB53B" />
<rect x="390" y="420" width="10" height="10" fill="#8CB53B" />
<rect x="130" y="430" width="10" height="10" fill="#5FAE3A" />
<rect x="140" y="430" width="10" height="10" fill="#5FAE3A" />
<rect x="150" y="430" width="10" height="10" fill="#5FAE3A" />
<rect x="160" y="430" width="10" height="10" fill="#8CB53B" />
<rect x="170" y="430" width="10" height="10" fill="#539D31" />
<rect x="180" y="430" width="10" height="10" fill="#539D31" />
<rect x="190" y="430" width="10" height="10" fill="#539D31" />
<rect x="200" y="430" width="10" height="10" fill="#539D31" />
<rect x="210" y="430" width="10" height="10" fill="#539D31" />
<rect x="220" y="430" width="10" height="10" fill="#539D31" />
<rect x="230" y="430" width="10" height="10" fill="#539D31" />
<rect x="240" y="430" width="10" height="10" fill="#5FAE3A" />
<rect x="250" y="430" width="10" height="10" fill="#539D31" />
<rect x="260" y="430" width="10" height="10" fill="#539D31" />
<rect x="270" y="430" width="10" height="10" fill="#8CB53B" />
<rect x="280" y="430" width="10" height="10" fill="#5FAE3A" />
<rect x="290" y="430" width="10" height="10" fill="#5FAE3A" />
<rect x="300" y="430" width="10" height="10" fill="#8CB53B" />
<rect x="310" y="430" width="10" height="10" fill="#8CB53B" />
<rect x="320" y="430" width="10" height="10" fill="#8CB53B" />
<rect x="330" y="430" width="10" height="10" fill="#5FAE3A" />
<rect x="340" y="430" width="10" height="10" fill="#5FAE3A" />
<rect x="350" y="430" width="10" height="10" fill="#8CB53B" />
<rect x="360" y="430" width="10" height="10" fill="#8CB53B" />
<rect x="370" y="430" width="10" height="10" fill="#539D31" />
<rect x="380" y="430" width="10" height="10" fill="#539D31" />
<rect x="390" y="430" width="10" height="10" fill="#539D31" />
<rect x="400" y="430" width="10" height="10" fill="#5FAE3A" />
<rect x="130" y="440" width="10" height="10" fill="#5FAE3A" />
<rect x="140" y="440" width="10" height="10" fill="#5FAE3A" />
<rect x="150" y="440" width="10" height="10" fill="#8CB53B" />
<rect x="160" y="440" width="10" height="10" fill="#5FAE3A" />
<rect x="170" y="440" width="10" height="10" fill="#5FAE3A" />
<rect x="180" y="440" width="10" height="10" fill="#5FAE3A" />
<rect x="190" y="440" width="10" height="10" fill="#8CB53B" />
<rect x="200" y="440" width="10" height="10" fill="#8CB53B" />
<rect x="210" y="440" width="10" height="10" fill="#539D31" />
<rect x="220" y="440" width="10" height="10" fill="#539D31" />
<rect x="230" y="440" width="10" height="10" fill="#5FAE3A" />
<rect x="240" y="440" width="10" height="10" fill="#5FAE3A" />
<rect x="250" y="440" width="10" height="10" fill="#238F51" />
<rect x="260" y="440" width="10" height="10" fill="#539D31" />
<rect x="270" y="440" width="10" height="10" fill="#8CB53B" />
<rect x="280" y="440" width="10" height="10" fill="#539D31" />
<rect x="290" y="440" width="10" height="10" fill="#539D31" />
<rect x="300" y="440" width="10" height="10" fill="#8CB53B" />
<rect x="310" y="440" width="10" height="10" fill="#539D31" />
<rect x="320" y="440" width="10" height="10" fill="#5FAE3A" />
<rect x="330" y="440" width="10" height="10" fill="#8CB53B" />
<rect x="340" y="440" width="10" height="10" fill="#8CB53B" />
<rect x="350" y="440" width="10" height="10" fill="#5FAE3A" />
<rect x="360" y="440" width="10" height="10" fill="#5FAE3A" />
<rect x="370" y="440" width="10" height="10" fill="#5FAE3A" />
<rect x="380" y="440" width="10" height="10" fill="#5FAE3A" />
<rect x="390" y="440" width="10" height="10" fill="#5FAE3A" />
<rect x="400" y="440" width="10" height="10" fill="#539D31" />
<rect x="140" y="450" width="10" height="10" fill="#539D31" />
<rect x="150" y="450" width="10" height="10" fill="#5FAE3A" />
<rect x="160" y="450" width="10" height="10" fill="#5FAE3A" />
<rect x="170" y="450" width="10" height="10" fill="#5FAE3A" />
<rect x="180" y="450" width="10" height="10" fill="#8CB53B" />
<rect x="190" y="450" width="10" height="10" fill="#539D31" />
<rect x="200" y="450" width="10" height="10" fill="#539D31" />
<rect x="210" y="450" width="10" height="10" fill="#5FAE3A" />
<rect x="220" y="450" width="10" height="10" fill="#5FAE3A" />
<rect x="230" y="450" width="10" height="10" fill="#539D31" />
<rect x="240" y="450" width="10" height="10" fill="#5FAE3A" />
<rect x="250" y="450" width="10" height="10" fill="#238F51" />
<rect x="260" y="450" width="10" height="10" fill="#539D31" />
<rect x="270" y="450" width="10" height="10" fill="#539D31" />
<rect x="280" y="450" width="10" height="10" fill="#8CB53B" />
<rect x="290" y="450" width="10" height="10" fill="#8CB53B" />
<rect x="300" y="450" width="10" height="10" fill="#5FAE3A" />
<rect x="310" y="450" width="10" height="10" fill="#5FAE3A" />
<rect x="320" y="450" width="10" height="10" fill="#5FAE3A" />
<rect x="330" y="450" width="10" height="10" fill="#539D31" />
<rect x="340" y="450" width="10" height="10" fill="#539D31" />
<rect x="350" y="450" width="10" height="10" fill="#8CB53B" />
<rect x="360" y="450" width="10" height="10" fill="#8CB53B" />
<rect x="370" y="450" width="10" height="10" fill="#8CB53B" />
<rect x="380" y="450" width="10" height="10" fill="#8CB53B" />
<rect x="390" y="450" width="10" height="10" fill="#8CB53B" />
<rect x="400" y="450" width="10" height="10" fill="#8CB53B" />
<rect x="410" y="450" width="10" height="10" fill="#539D31" />
<rect x="150" y="460" width="10" height="10" fill="#539D31" />
<rect x="160" y="460" width="10" height="10" fill="#5FAE3A" />
<rect x="170" y="460" width="10" height="10" fill="#8CB53B" />
<rect x="180" y="460" width="10" height="10" fill="#5FAE3A" />
<rect x="190" y="460" width="10" height="10" fill="#5FAE3A" />
<rect x="200" y="460" width="10" height="10" fill="#5FAE3A" />
<rect x="210" y="460" width="10" height="10" fill="#539D31" />
<rect x="220" y="460" width="10" height="10" fill="#5FAE3A" />
<rect x="230" y="460" width="10" height="10" fill="#5FAE3A" />
<rect x="240" y="460" width="10" height="10" fill="#539D31" />
<rect x="250" y="460" width="10" height="10" fill="#238F51" />
<rect x="260" y="460" width="10" height="10" fill="#539D31" />
<rect x="270" y="460" width="10" height="10" fill="#5FAE3A" />
<rect x="280" y="460" width="10" height="10" fill="#5FAE3A" />
<rect x="290" y="460" width="10" height="10" fill="#5FAE3A" />
<rect x="300" y="460" width="10" height="10" fill="#539D31" />
<rect x="310" y="460" width="10" height="10" fill="#5FAE3A" />
<rect x="320" y="460" width="10" height="10" fill="#5FAE3A" />
<rect x="330" y="460" width="10" height="10" fill="#5FAE3A" />
<rect x="340" y="460" width="10" height="10" fill="#539D31" />
<rect x="350" y="460" width="10" height="10" fill="#539D31" />
<rect x="360" y="460" width="10" height="10" fill="#539D31" />
<rect x="370" y="460" width="10" height="10" fill="#5FAE3A" />
<rect x="380" y="460" width="10" height="10" fill="#5FAE3A" />
<rect x="390" y="460" width="10" height="10" fill="#539D31" />
<rect x="400" y="460" width="10" height="10" fill="#8CB53B" />
<rect x="160" y="470" width="10" height="10" fill="#5FAE3A" />
<rect x="170" y="470" width="10" height="10" fill="#539D31" />
<rect x="180" y="470" width="10" height="10" fill="#539D31" />
<rect x="190" y="470" width="10" height="10" fill="#539D31" />
<rect x="200" y="470" width="10" height="10" fill="#539D31" />
<rect x="210" y="470" width="10" height="10" fill="#539D31" />
<rect x="220" y="470" width="10" height="10" fill="#539D31" />
<rect x="230" y="470" width="10" height="10" fill="#5FAE3A" />
<rect x="240" y="470" width="10" height="10" fill="#5FAE3A" />
<rect x="250" y="470" width="10" height="10" fill="#8CB53B" />
<rect x="260" y="470" width="10" height="10" fill="#8CB53B" />
<rect x="270" y="470" width="10" height="10" fill="#5FAE3A" />
<rect x="280" y="470" width="10" height="10" fill="#5FAE3A" />
<rect x="290" y="470" width="10" height="10" fill="#5FAE3A" />
<rect x="300" y="470" width="10" height="10" fill="#5FAE3A" />
<rect x="310" y="470" width="10" height="10" fill="#539D31" />
<rect x="320" y="470" width="10" height="10" fill="#5FAE3A" />
<rect x="330" y="470" width="10" height="10" fill="#5FAE3A" />
<rect x="340" y="470" width="10" height="10" fill="#5FAE3A" />
<rect x="350" y="470" width="10" height="10" fill="#539D31" />
<rect x="360" y="470" width="10" height="10" fill="#539D31" />
<rect x="370" y="470" width="10" height="10" fill="#539D31" />
<rect x="380" y="470" width="10" height="10" fill="#539D31" />
<rect x="390" y="470" width="10" height="10" fill="#539D31" />
<rect x="400" y="470" width="10" height="10" fill="#539D31" />
<rect x="180" y="480" width="10" height="10" fill="#539D31" />
<rect x="190" y="480" width="10" height="10" fill="#539D31" />
<rect x="200" y="480" width="10" height="10" fill="#539D31" />
<rect x="210" y="480" width="10" height="10" fill="#539D31" />
<rect x="220" y="480" width="10" height="10" fill="#539D31" />
<rect x="230" y="480" width="10" height="10" fill="#539D31" />
<rect x="240" y="480" width="10" height="10" fill="#539D31" />
<rect x="250" y="480" width="10" height="10" fill="#8CB53B" />
<rect x="260" y="480" width="10" height="10" fill="#8CB53B" />
<rect x="270" y="480" width="10" height="10" fill="#8CB53B" />
<rect x="280" y="480" width="10" height="10" fill="#8CB53B" />
<rect x="290" y="480" width="10" height="10" fill="#8CB53B" />
<rect x="300" y="480" width="10" height="10" fill="#8CB53B" />
<rect x="310" y="480" width="10" height="10" fill="#8CB53B" />
<rect x="320" y="480" width="10" height="10" fill="#539D31" />
<rect x="330" y="480" width="10" height="10" fill="#539D31" />
<rect x="340" y="480" width="10" height="10" fill="#5FAE3A" />
<rect x="350" y="480" width="10" height="10" fill="#5FAE3A" />
<rect x="360" y="480" width="10" height="10" fill="#539D31" />
<rect x="370" y="480" width="10" height="10" fill="#539D31" />
<rect x="380" y="480" width="10" height="10" fill="#539D31" />
<rect x="390" y="480" width="10" height="10" fill="#539D31" />
<rect x="250" y="490" width="10" height="10" fill="#539D31" />
<rect x="260" y="490" width="10" height="10" fill="#8CB53B" />
<rect x="270" y="490" width="10" height="10" fill="#8CB53B" />
<rect x="280" y="490" width="10" height="10" fill="#8CB53B" />
<rect x="290" y="490" width="10" height="10" fill="#8CB53B" />
<rect x="300" y="490" width="10" height="10" fill="#8CB53B" />
<rect x="310" y="490" width="10" height="10" fill="#539D31" />
<rect x="320" y="490" width="10" height="10" fill="#539D31" />
<rect x="330" y="490" width="10" height="10" fill="#539D31" />
<rect x="340" y="490" width="10" height="10" fill="#539D31" />
<rect x="350" y="490" width="10" height="10" fill="#539D31" />
<rect x="360" y="490" width="10" height="10" fill="#539D31" />
</svg>