<?xml version="1.0" encoding="UTF-8" ?>
<svg version="1.1" width="500" height="500" xmlns="http://www.w3.org/2000/svg" shape-rendering="crispEdges">
<rect x="190" y="10" width="10" height="10" fill="#DBC892" />
<rect x="200" y="10" width="10" height="10" fill="#DBC892" />
<rect x="190" y="20" width="10" height="10" fill="#EDD89E" />
<rect x="200" y="20" width="10" height="10" fill="#DBC892" />
<rect x="240" y="20" width="10" height="10" fill="#8CB53B" />
<rect x="250" y="20" width="10" height="10" fill="#8CB53B" />
<rect x="340" y="20" width="10" height="10" fill="#8CB53B" />
<rect x="190" y="30" width="10" height="10" fill="#DBC892" />
<rect x="200" y="30" width="10" height="10" fill="#DBC892" />
<rect x="240" y="30" width="10" height="10" fill="#8CB53B" />
<rect x="280" y="30" width="10" height="10" fill="#8CB53B" />
<rect x="330" y="30" width="10" height="10" fill="#8CB53B" />
<rect x="340" y="30" width="10" height="10" fill="#8CB53B" />
<rect x="80" y="40" width="10" height="10" fill="#8CB53B" />
<rect x="90" y="40" width="10" height="10" fill="#8CB53B" />
<rect x="190" y="40" width="10" height="10" fill="#EDD89E" />
<rect x="200" y="40" width="10" height="10" fill="#EDD89E" />
<rect x="230" y="40" width="10" height="10" fill="#8CB53B" />
<rect x="240" y="40" width="10" height="10" fill="#8CB53B" />
<rect x="270" y="40" width="10" height="10" fill="#8CB53B" />
<rect x="280" y="40" width="10" height="10" fill="#5FAE3A" />
<rect x="320" y="40" width="10" height="10" fill="#8CB53B" />
<rect x="330" y="40" width="10" height="10" fill="#5FAE3A" />
<rect x="90" y="50" width="10" height="10" fill="#5FAE3A" />
<rect x="100" y="50" width="10" height="10" fill="#5FAE3A" />
<rect x="110" y="50" width="10" height="10" fill="#8CB53B" />
<rect x="200" y="50" width="10" height="10" fill="#DBC892" />
<rect x="210" y="50" width="10" height="10" fill="#D2B76B" />
<rect x="230" y="50" width="10" height="10" fill="#8CB53B" />
<rect x="240" y="50" width="10" height="10" fill="#8CB53B" />
<rect x="260" y="50" width="10" height="10" fill="#8CB53B" />
<rect x="270" y="50" width="10" height="10" fill="#5FAE3A" />
<rect x="310" y="50" width="10" height="10" fill="#8CB53B" />
<rect x="320" y="50" width="10" height="10" fill="#5FAE3A" />
<rect x="110" y="60" width="10" height="10" fill="#5FAE3A" />
<rect x="120" y="60" width="10" height="10" fill="#8CB53B" />
<rect x="200" y="60" width="10" height="10" fill="#DBC892" />
<rect x="210" y="60" width="10" height="10" fill="#DBC892" />
<rect x="230" y="60" width="10" height="10" fill="#8CB53B" />
<rect x="240" y="60" width="10" height="10" fill="#8CB53B" />
<rect x="260" y="60" width="10" height="10" fill="#5FAE3A" />
<rect x="270" y="60" width="10" height="10" fill="#5FAE3A" />
<rect x="300" y="60" width="10" height="10" fill="#8CB53B" />
<rect x="310" y="60" width="10" height="10" fill="#5FAE3A" />
<rect x="120" y="70" width="10" height="10" fill="#5FAE3A" />
<rect x="130" y="70" width="10" height="10" fill="#8CB53B" />
<rect x="180" y="70" width="10" height="10" fill="#8CB53B" />
<rect x="200" y="70" width="10" height="10" fill="#DBC892" />
<rect x="210" y="70" width="10" height="10" fill="#DBC892" />
<rect x="220" y="70" width="10" height="10" fill="#8CB53B" />
<rect x="230" y="70" width="10" height="10" fill="#8CB53B" />
<rect x="260" y="70" width="10" height="10" fill="#5FAE3A" />
<rect x="300" y="70" width="10" height="10" fill="#8CB53B" />
<rect x="310" y="70" width="10" height="10" fill="#5FAE3A" />
<rect x="130" y="80" width="10" height="10" fill="#5FAE3A" />
<rect x="140" y="80" width="10" height="10" fill="#8CB53B" />
<rect x="180" y="80" width="10" height="10" fill="#5FAE3A" />
<rect x="190" y="80" width="10" height="10" fill="#5FAE3A" />
<rect x="200" y="80" width="10" height="10" fill="#EDD89E" />
<rect x="210" y="80" width="10" height="10" fill="#DBC892" />
<rect x="220" y="80" width="10" height="10" fill="#8CB53B" />
<rect x="230" y="80" width="10" height="10" fill="#8CB53B" />
<rect x="260" y="80" width="10" height="10" fill="#5FAE3A" />
<rect x="290" y="80" width="10" height="10" fill="#8CB53B" />
<rect x="300" y="80" width="10" height="10" fill="#8CB53B" />
<rect x="420" y="80" width="10" height="10" fill="#5FAE3A" />
<rect x="430" y="80" width="10" height="10" fill="#5FAE3A" />
<rect x="60" y="90" width="10" height="10" fill="#5FAE3A" />
<rect x="70" y="90" width="10" height="10" fill="#5FAE3A" />
<rect x="140" y="90" width="10" height="10" fill="#8CB53B" />
<rect x="150" y="90" width="10" height="10" fill="#8CB53B" />
<rect x="190" y="90" width="10" height="10" fill="#5FAE3A" />
<rect x="200" y="90" width="10" height="10" fill="#DBC892" />
<rect x="210" y="90" width="10" height="10" fill="#DBC892" />
<rect x="220" y="90" width="10" height="10" fill="#8CB53B" />
<rect x="230" y="90" width="10" height="10" fill="#8CB53B" />
<rect x="250" y="90" width="10" height="10" fill="#8CB53B" />
<rect x="260" y="90" width="10" height="10" fill="#5FAE3A" />
<rect x="280" y="90" width="10" height="10" fill="#8CB53B" />
<rect x="290" y="90" width="10" height="10" fill="#5FAE3A" />
<rect x="400" y="90" width="10" height="10" fill="#5FAE3A" />
<rect x="410" y="90" width="10" height="10" fill="#5FAE3A" />
<rect x="420" y="90" width="10" height="10" fill="#5FAE3A" />
<rect x="70" y="100" width="10" height="10" fill="#5FAE3A" />
<rect x="80" y="100" width="10" height="10" fill="#5FAE3A" />
<rect x="90" y="100" width="10" height="10" fill="#5FAE3A" />
<rect x="100" y="100" width="10" height="10" fill="#5FAE3A" />
<rect x="110" y="100" width="10" height="10" fill="#5FAE3A" />
<rect x="120" y="100" width="10" height="10" fill="#5FAE3A" />
<rect x="150" y="100" width="10" height="10" fill="#8CB53B" />
<rect x="160" y="100" width="10" height="10" fill="#8CB53B" />
<rect x="190" y="100" width="10" height="10" fill="#5FAE3A" />
<rect x="200" y="100" width="10" height="10" fill="#DBC892" />
<rect x="210" y="100" width="10" height="10" fill="#D2B76B" />
<rect x="220" y="100" width="10" height="10" fill="#8CB53B" />
<rect x="230" y="100" width="10" height="10" fill="#8CB53B" />
<rect x="250" y="100" width="10" height="10" fill="#5FAE3A" />
<rect x="280" y="100" width="10" height="10" fill="#8CB53B" />
<rect x="390" y="100" width="10" height="10" fill="#5FAE3A" />
<rect x="400" y="100" width="10" height="10" fill="#5FAE3A" />
<rect x="120" y="110" width="10" height="10" fill="#5FAE3A" />
<rect x="130" y="110" width="10" height="10" fill="#5FAE3A" />
<rect x="160" y="110" width="10" height="10" fill="#5FAE3A" />
<rect x="170" y="110" width="10" height="10" fill="#238F51" />
<rect x="180" y="110" width="10" height="10" fill="#8CB53B" />
<rect x="200" y="110" width="10" height="10" fill="#5FAE3A" />
<rect x="210" y="110" width="10" height="10" fill="#D2B76B" />
<rect x="220" y="110" width="10" height="10" fill="#8CB53B" />
<rect x="230" y="110" width="10" height="10" fill="#8CB53B" />
<rect x="240" y="110" width="10" height="10" fill="#8CB53B" />
<rect x="250" y="110" width="10" height="10" fill="#5FAE3A" />
<rect x="270" y="110" width="10" height="10" fill="#8CB53B" />
<rect x="280" y="110" width="10" height="10" fill="#5FAE3A" />
<rect x="380" y="110" width="10" height="10" fill="#5FAE3A" />
<rect x="390" y="110" width="10" height="10" fill="#5FAE3A" />
<rect x="130" y="120" width="10" height="10" fill="#5FAE3A" />
<rect x="140" y="120" width="10" height="10" fill="#5FAE3A" />
<rect x="150" y="120" width="10" height="10" fill="#5FAE3A" />
<rect x="160" y="120" width="10" height="10" fill="#5FAE3A" />
<rect x="170" y="120" width="10" height="10" fill="#238F51" />
<rect x="180" y="120" width="10" height="10" fill="#8CB53B" />
<rect x="200" y="120" width="10" height="10" fill="#5FAE3A" />
<rect x="210" y="120" width="10" height="10" fill="#D2B76B" />
<rect x="220" y="120" width="10" height="10" fill="#8CB53B" />
<rect x="240" y="120" width="10" height="10" fill="#8CB53B" />
<rect x="250" y="120" width="10" height="10" fill="#5FAE3A" />
<rect x="270" y="120" width="10" height="10" fill="#5FAE3A" />
<rect x="280" y="120" width="10" height="10" fill="#5FAE3A" />
<rect x="370" y="120" width="10" height="10" fill="#5FAE3A" />
<rect x="100" y="130" width="10" height="10" fill="#DBC892" />
<rect x="110" y="130" width="10" height="10" fill="#DBC892" />
<rect x="120" y="130" width="10" height="10" fill="#DBC892" />
<rect x="130" y="130" width="10" height="10" fill="#DBC892" />
<rect x="140" y="130" width="10" height="10" fill="#DBC892" />
<rect x="150" y="130" width="10" height="10" fill="#DBC892" />
<rect x="160" y="130" width="10" height="10" fill="#DBC892" />
<rect x="170" y="130" width="10" height="10" fill="#DBC892" />
<rect x="180" y="130" width="10" height="10" fill="#8CB53B" />
<rect x="190" y="130" width="10" height="10" fill="#8CB53B" />
<rect x="200" y="130" width="10" height="10" fill="#5FAE3A" />
<rect x="210" y="130" width="10" height="10" fill="#D2B76B" />
<rect x="220" y="130" width="10" height="10" fill="#8CB53B" />
<rect x="240" y="130" width="10" height="10" fill="#8CB53B" />
<rect x="260" y="130" width="10" height="10" fill="#8CB53B" />
<rect x="270" y="130" width="10" height="10" fill="#5FAE3A" />
<rect x="310" y="130" width="10" height="10" fill="#DBC892" />
<rect x="320" y="130" width="10" height="10" fill="#DBC892" />
<rect x="330" y="130" width="10" height="10" fill="#DBC892" />
<rect x="340" y="130" width="10" height="10" fill="#DBC892" />
<rect x="350" y="130" width="10" height="10" fill="#DBC892" />
<rect x="360" y="130" width="10" height="10" fill="#5FAE3A" />
<rect x="90" y="140" width="10" height="10" fill="#DBC892" />
<rect x="100" y="140" width="10" height="10" fill="#D2B76B" />
<rect x="110" y="140" width="10" height="10" fill="#D2B76B" />
<rect x="120" y="140" width="10" height="10" fill="#D2B76B" />
<rect x="130" y="140" width="10" height="10" fill="#D2B76B" />
<rect x="140" y="140" width="10" height="10" fill="#D2B76B" />
<rect x="150" y="140" width="10" height="10" fill="#5FAE3A" />
<rect x="160" y="140" width="10" height="10" fill="#5FAE3A" />
<rect x="170" y="140" width="10" height="10" fill="#DBC892" />
<rect x="180" y="140" width="10" height="10" fill="#DBC892" />
<rect x="190" y="140" width="10" height="10" fill="#8CB53B" />
<rect x="200" y="140" width="10" height="10" fill="#DBC892" />
<rect x="210" y="140" width="10" height="10" fill="#D2B76B" />
<rect x="220" y="140" width="10" height="10" fill="#8CB53B" />
<rect x="240" y="140" width="10" height="10" fill="#8CB53B" />
<rect x="260" y="140" width="10" height="10" fill="#5FAE3A" />
<rect x="270" y="140" width="10" height="10" fill="#5FAE3A" />
<rect x="300" y="140" width="10" height="10" fill="#DBC892" />
<rect x="310" y="140" width="10" height="10" fill="#DBC892" />
<rect x="320" y="140" width="10" height="10" fill="#D2B76B" />
<rect x="330" y="140" width="10" height="10" fill="#D2B76B" />
<rect x="340" y="140" width="10" height="10" fill="#D2B76B" />
<rect x="350" y="140" width="10" height="10" fill="#D2B76B" />
<rect x="360" y="140" width="10" height="10" fill="#DBC892" />
<rect x="70" y="150" width="10" height="10" fill="#DBC892" />
<rect x="80" y="150" width="10" height="10" fill="#D2B76B" />
<rect x="90" y="150" width="10" height="10" fill="#D2B76B" />
<rect x="160" y="150" width="10" height="10" fill="#5FAE3A" />
<rect x="170" y="150" width="10" height="10" fill="#D2B76B" />
<rect x="180" y="150" width="10" height="10" fill="#DBC892" />
<rect x="190" y="150" width="10" height="10" fill="#8CB53B" />
<rect x="200" y="150" width="10" height="10" fill="#8CB53B" />
<rect x="210" y="150" width="10" height="10" fill="#D2B76B" />
<rect x="220" y="150" width="10" height="10" fill="#8CB53B" />
<rect x="230" y="150" width="10" height="10" fill="#8CB53B" />
<rect x="240" y="150" width="10" height="10" fill="#8CB53B" />
<rect x="260" y="150" width="10" height="10" fill="#8CB53B" />
<rect x="290" y="150" width="10" height="10" fill="#DBC892" />
<rect x="300" y="150" width="10" height="10" fill="#DBC892" />
<rect x="310" y="150" width="10" height="10" fill="#D2B76B" />
<rect x="340" y="150" width="10" height="10" fill="#5FAE3A" />
<rect x="60" y="160" width="10" height="10" fill="#D2B76B" />
<rect x="70" y="160" width="10" height="10" fill="#D2B76B" />
<rect x="80" y="160" width="10" height="10" fill="#D2B76B" />
<rect x="160" y="160" width="10" height="10" fill="#5FAE3A" />
<rect x="170" y="160" width="10" height="10" fill="#5FAE3A" />
<rect x="180" y="160" width="10" height="10" fill="#D2B76B" />
<rect x="190" y="160" width="10" height="10" fill="#D2B76B" />
<rect x="200" y="160" width="10" height="10" fill="#8CB53B" />
<rect x="210" y="160" width="10" height="10" fill="#D2B76B" />
<rect x="220" y="160" width="10" height="10" fill="#8CB53B" />
<rect x="230" y="160" width="10" height="10" fill="#8CB53B" />
<rect x="240" y="160" width="10" height="10" fill="#8CB53B" />
<rect x="250" y="160" width="10" height="10" fill="#8CB53B" />
<rect x="260" y="160" width="10" height="10" fill="#5FAE3A" />
<rect x="280" y="160" width="10" height="10" fill="#DBC892" />
<rect x="290" y="160" width="10" height="10" fill="#DBC892" />
<rect x="300" y="160" width="10" height="10" fill="#D2B76B" />
<rect x="310" y="160" width="10" height="10" fill="#D2B76B" />
<rect x="330" y="160" width="10" height="10" fill="#5FAE3A" />
<rect x="100" y="170" width="10" height="10" fill="#5FAE3A" />
<rect x="110" y="170" width="10" height="10" fill="#5FAE3A" />
<rect x="170" y="170" width="10" height="10" fill="#5FAE3A" />
<rect x="180" y="170" width="10" height="10" fill="#5FAE3A" />
<rect x="190" y="170" width="10" height="10" fill="#238F51" />
<rect x="200" y="170" width="10" height="10" fill="#8CB53B" />
<rect x="210" y="170" width="10" height="10" fill="#D2B76B" />
<rect x="220" y="170" width="10" height="10" fill="#8CB53B" />
<rect x="230" y="170" width="10" height="10" fill="#5FAE3A" />
<rect x="240" y="170" width="10" height="10" fill="#238F51" />
<rect x="250" y="170" width="10" height="10" fill="#8CB53B" />
<rect x="260" y="170" width="10" height="10" fill="#5FAE3A" />
<rect x="270" y="170" width="10" height="10" fill="#BCB97D" />
<rect x="280" y="170" width="10" height="10" fill="#DBC892" />
<rect x="290" y="170" width="10" height="10" fill="#D2B76B" />
<rect x="320" y="170" width="10" height="10" fill="#5FAE3A" />
<rect x="330" y="170" width="10" height="10" fill="#5FAE3A" />
<rect x="50" y="180" width="10" height="10" fill="#5FAE3A" />
<rect x="60" y="180" width="10" height="10" fill="#5FAE3A" />
<rect x="70" y="180" width="10" height="10" fill="#5FAE3A" />
<rect x="80" y="180" width="10" height="10" fill="#5FAE3A" />
<rect x="90" y="180" width="10" height="10" fill="#5FAE3A" />
<rect x="120" y="180" width="10" height="10" fill="#5FAE3A" />
<rect x="130" y="180" width="10" height="10" fill="#5FAE3A" />
<rect x="140" y="180" width="10" height="10" fill="#5FAE3A" />
<rect x="180" y="180" width="10" height="10" fill="#5FAE3A" />
<rect x="190" y="180" width="10" height="10" fill="#238F51" />
<rect x="200" y="180" width="10" height="10" fill="#8CB53B" />
<rect x="210" y="180" width="10" height="10" fill="#D2B76B" />
<rect x="220" y="180" width="10" height="10" fill="#8CB53B" />
<rect x="230" y="180" width="10" height="10" fill="#5FAE3A" />
<rect x="240" y="180" width="10" height="10" fill="#238F51" />
<rect x="250" y="180" width="10" height="10" fill="#8CB53B" />
<rect x="260" y="180" width="10" height="10" fill="#5FAE3A" />
<rect x="270" y="180" width="10" height="10" fill="#D2B76B" />
<rect x="280" y="180" width="10" height="10" fill="#D2B76B" />
<rect x="310" y="180" width="10" height="10" fill="#5FAE3A" />
<rect x="320" y="180" width="10" height="10" fill="#5FAE3A" />
<rect x="140" y="190" width="10" height="10" fill="#5FAE3A" />
<rect x="150" y="190" width="10" height="10" fill="#5FAE3A" />
<rect x="160" y="190" width="10" height="10" fill="#5FAE3A" />
<rect x="180" y="190" width="10" height="10" fill="#5FAE3A" />
<rect x="190" y="190" width="10" height="10" fill="#238F51" />
<rect x="200" y="190" width="10" height="10" fill="#8CB53B" />
<rect x="210" y="190" width="10" height="10" fill="#8CB53B" />
<rect x="220" y="190" width="10" height="10" fill="#8CB53B" />
<rect x="230" y="190" width="10" height="10" fill="#5FAE3A" />
<rect x="240" y="190" width="10" height="10" fill="#238F51" />
<rect x="250" y="190" width="10" height="10" fill="#8CB53B" />
<rect x="260" y="190" width="10" height="10" fill="#DBC892" />
<rect x="300" y="190" width="10" height="10" fill="#5FAE3A" />
<rect x="310" y="190" width="10" height="10" fill="#5FAE3A" />
<rect x="330" y="190" width="10" height="10" fill="#5FAE3A" />
<rect x="340" y="190" width="10" height="10" fill="#5FAE3A" />
<rect x="350" y="190" width="10" height="10" fill="#5FAE3A" />
<rect x="360" y="190" width="10" height="10" fill="#5FAE3A" />
<rect x="160" y="200" width="10" height="10" fill="#5FAE3A" />
<rect x="170" y="200" width="10" height="10" fill="#5FAE3A" />
<rect x="180" y="200" width="10" height="10" fill="#5FAE3A" />
<rect x="190" y="200" width="10" height="10" fill="#5FAE3A" />
<rect x="200" y="200" width="10" height="10" fill="#238F51" />
<rect x="210" y="200" width="10" height="10" fill="#8CB53B" />
<rect x="220" y="200" width="10" height="10" fill="#8CB53B" />
<rect x="230" y="200" width="10" height="10" fill="#5FAE3A" />
<rect x="240" y="200" width="10" height="10" fill="#238F51" />
<rect x="250" y="200" width="10" height="10" fill="#DBC892" />
<rect x="260" y="200" width="10" height="10" fill="#DBC892" />
<rect x="290" y="200" width="10" height="10" fill="#5FAE3A" />
<rect x="300" y="200" width="10" height="10" fill="#5FAE3A" />
<rect x="310" y="200" width="10" height="10" fill="#5FAE3A" />
<rect x="320" y="200" width="10" height="10" fill="#5FAE3A" />
<rect x="330" y="200" width="10" height="10" fill="#238F51" />
<rect x="370" y="200" width="10" height="10" fill="#5FAE3A" />
<rect x="170" y="210" width="10" height="10" fill="#5FAE3A" />
<rect x="180" y="210" width="10" height="10" fill="#5FAE3A" />
<rect x="190" y="210" width="10" height="10" fill="#5FAE3A" />
<rect x="200" y="210" width="10" height="10" fill="#238F51" />
<rect x="210" y="210" width="10" height="10" fill="#5FAE3A" />
<rect x="220" y="210" width="10" height="10" fill="#8CB53B" />
<rect x="230" y="210" width="10" height="10" fill="#5FAE3A" />
<rect x="240" y="210" width="10" height="10" fill="#238F51" />
<rect x="250" y="210" width="10" height="10" fill="#DBC892" />
<rect x="260" y="210" width="10" height="10" fill="#D2B76B" />
<rect x="280" y="210" width="10" height="10" fill="#5FAE3A" />
<rect x="290" y="210" width="10" height="10" fill="#5FAE3A" />
<rect x="300" y="210" width="10" height="10" fill="#5FAE3A" />
<rect x="310" y="210" width="10" height="10" fill="#238F51" />
<rect x="320" y="210" width="10" height="10" fill="#238F51" />
<rect x="190" y="220" width="10" height="10" fill="#5FAE3A" />
<rect x="200" y="220" width="10" height="10" fill="#238F51" />
<rect x="210" y="220" width="10" height="10" fill="#5FAE3A" />
<rect x="220" y="220" width="10" height="10" fill="#8CB53B" />
<rect x="230" y="220" width="10" height="10" fill="#5FAE3A" />
<rect x="240" y="220" width="10" height="10" fill="#238F51" />
<rect x="250" y="220" width="10" height="10" fill="#DBC892" />
<rect x="270" y="220" width="10" height="10" fill="#5FAE3A" />
<rect x="280" y="220" width="10" height="10" fill="#5FAE3A" />
<rect x="290" y="220" width="10" height="10" fill="#5FAE3A" />
<rect x="300" y="220" width="10" height="10" fill="#238F51" />
<rect x="90" y="230" width="10" height="10" fill="#8CB53B" />
<rect x="100" y="230" width="10" height="10" fill="#8CB53B" />
<rect x="110" y="230" width="10" height="10" fill="#8CB53B" />
<rect x="120" y="230" width="10" height="10" fill="#8CB53B" />
<rect x="130" y="230" width="10" height="10" fill="#8CB53B" />
<rect x="190" y="230" width="10" height="10" fill="#5FAE3A" />
<rect x="200" y="230" width="10" height="10" fill="#238F51" />
<rect x="210" y="230" width="10" height="10" fill="#5FAE3A" />
<rect x="220" y="230" width="10" height="10" fill="#8CB53B" />
<rect x="230" y="230" width="10" height="10" fill="#5FAE3A" />
<rect x="240" y="230" width="10" height="10" fill="#DBC892" />
<rect x="250" y="230" width="10" height="10" fill="#D2B76B" />
<rect x="270" y="230" width="10" height="10" fill="#5FAE3A" />
<rect x="280" y="230" width="10" height="10" fill="#5FAE3A" />
<rect x="290" y="230" width="10" height="10" fill="#238F51" />
<rect x="100" y="240" width="10" height="10" fill="#5FAE3A" />
<rect x="110" y="240" width="10" height="10" fill="#5FAE3A" />
<rect x="120" y="240" width="10" height="10" fill="#5FAE3A" />
<rect x="130" y="240" width="10" height="10" fill="#8CB53B" />
<rect x="140" y="240" width="10" height="10" fill="#8CB53B" />
<rect x="200" y="240" width="10" height="10" fill="#238F51" />
<rect x="210" y="240" width="10" height="10" fill="#238F51" />
<rect x="220" y="240" width="10" height="10" fill="#8CB53B" />
<rect x="230" y="240" width="10" height="10" fill="#5FAE3A" />
<rect x="240" y="240" width="10" height="10" fill="#DBC892" />
<rect x="250" y="240" width="10" height="10" fill="#5FAE3A" />
<rect x="260" y="240" width="10" height="10" fill="#5FAE3A" />
<rect x="270" y="240" width="10" height="10" fill="#5FAE3A" />
<rect x="280" y="240" width="10" height="10" fill="#238F51" />
<rect x="130" y="250" width="10" height="10" fill="#5FAE3A" />
<rect x="140" y="250" width="10" height="10" fill="#5FAE3A" />
<rect x="150" y="250" width="10" height="10" fill="#8CB53B" />
<rect x="200" y="250" width="10" height="10" fill="#5FAE3A" />
<rect x="210" y="250" width="10" height="10" fill="#238F51" />
<rect x="220" y="250" width="10" height="10" fill="#8CB53B" />
<rect x="230" y="250" width="10" height="10" fill="#5FAE3A" />
<rect x="240" y="250" width="10" height="10" fill="#8CB53B" />
<rect x="250" y="250" width="10" height="10" fill="#5FAE3A" />
<rect x="260" y="250" width="10" height="10" fill="#5FAE3A" />
<rect x="270" y="250" width="10" height="10" fill="#5FAE3A" />
<rect x="280" y="250" width="10" height="10" fill="#238F51" />
<rect x="310" y="250" width="10" height="10" fill="#8CB53B" />
<rect x="320" y="250" width="10" height="10" fill="#8CB53B" />
<rect x="140" y="260" width="10" height="10" fill="#5FAE3A" />
<rect x="150" y="260" width="10" height="10" fill="#5FAE3A" />
<rect x="160" y="260" width="10" height="10" fill="#8CB53B" />
<rect x="200" y="260" width="10" height="10" fill="#5FAE3A" />
<rect x="210" y="260" width="10" height="10" fill="#5FAE3A" />
<rect x="220" y="260" width="10" height="10" fill="#8CB53B" />
<rect x="230" y="260" width="10" height="10" fill="#5FAE3A" />
<rect x="240" y="260" width="10" height="10" fill="#8CB53B" />
<rect x="250" y="260" width="10" height="10" fill="#5FAE3A" />
<rect x="260" y="260" width="10" height="10" fill="#5FAE3A" />
<rect x="270" y="260" width="10" height="10" fill="#5FAE3A" />
<rect x="310" y="260" width="10" height="10" fill="#8CB53B" />
<rect x="160" y="270" width="10" height="10" fill="#5FAE3A" />
<rect x="170" y="270" width="10" height="10" fill="#5FAE3A" />
<rect x="190" y="270" width="10" height="10" fill="#DBC892" />
<rect x="200" y="270" width="10" height="10" fill="#5FAE3A" />
<rect x="210" y="270" width="10" height="10" fill="#8CB53B" />
<rect x="220" y="270" width="10" height="10" fill="#8CB53B" />
<rect x="230" y="270" width="10" height="10" fill="#5FAE3A" />
<rect x="240" y="270" width="10" height="10" fill="#8CB53B" />
<rect x="250" y="270" width="10" height="10" fill="#238F51" />
<rect x="260" y="270" width="10" height="10" fill="#5FAE3A" />
<rect x="270" y="270" width="10" height="10" fill="#238F51" />
<rect x="300" y="270" width="10" height="10" fill="#8CB53B" />
<rect x="310" y="270" width="10" height="10" fill="#5FAE3A" />
<rect x="180" y="280" width="10" height="10" fill="#5FAE3A" />
<rect x="200" y="280" width="10" height="10" fill="#5FAE3A" />
<rect x="210" y="280" width="10" height="10" fill="#8CB53B" />
<rect x="220" y="280" width="10" height="10" fill="#8CB53B" />
<rect x="230" y="280" width="10" height="10" fill="#5FAE3A" />
<rect x="240" y="280" width="10" height="10" fill="#5FAE3A" />
<rect x="250" y="280" width="10" height="10" fill="#238F51" />
<rect x="260" y="280" width="10" height="10" fill="#5FAE3A" />
<rect x="290" y="280" width="10" height="10" fill="#8CB53B" />
<rect x="300" y="280" width="10" height="10" fill="#5FAE3A" />
<rect x="110" y="290" width="10" height="10" fill="#DBC892" />
<rect x="120" y="290" width="10" height="10" fill="#DBC892" />
<rect x="130" y="290" width="10" height="10" fill="#DBC892" />
<rect x="140" y="290" width="10" height="10" fill="#DBC892" />
<rect x="150" y="290" width="10" height="10" fill="#DBC892" />
<rect x="160" y="290" width="10" height="10" fill="#DBC892" />
<rect x="170" y="290" width="10" height="10" fill="#DBC892" />
<rect x="180" y="290" width="10" height="10" fill="#5FAE3A" />
<rect x="190" y="290" width="10" height="10" fill="#8CB53B" />
<rect x="200" y="290" width="10" height="10" fill="#238F51" />
<rect x="210" y="290" width="10" height="10" fill="#5FAE3A" />
<rect x="220" y="290" width="10" height="10" fill="#8CB53B" />
<rect x="230" y="290" width="10" height="10" fill="#5FAE3A" />
<rect x="240" y="290" width="10" height="10" fill="#5FAE3A" />
<rect x="250" y="290" width="10" height="10" fill="#238F51" />
<rect x="260" y="290" width="10" height="10" fill="#5FAE3A" />
<rect x="290" y="290" width="10" height="10" fill="#8CB53B" />
<rect x="100" y="300" width="10" height="10" fill="#DBC892" />
<rect x="110" y="300" width="10" height="10" fill="#DBC892" />
<rect x="120" y="300" width="10" height="10" fill="#D2B76B" />
<rect x="130" y="300" width="10" height="10" fill="#238F51" />
<rect x="140" y="300" width="10" height="10" fill="#238F51" />
<rect x="150" y="300" width="10" height="10" fill="#238F51" />
<rect x="160" y="300" width="10" height="10" fill="#238F51" />
<rect x="170" y="300" width="10" height="10" fill="#238F51" />
<rect x="180" y="300" width="10" height="10" fill="#5FAE3A" />
<rect x="190" y="300" width="10" height="10" fill="#8CB53B" />
<rect x="200" y="300" width="10" height="10" fill="#8CB53B" />
<rect x="210" y="300" width="10" height="10" fill="#238F51" />
<rect x="220" y="300" width="10" height="10" fill="#8CB53B" />
<rect x="230" y="300" width="10" height="10" fill="#5FAE3A" />
<rect x="240" y="300" width="10" height="10" fill="#5FAE3A" />
<rect x="250" y="300" width="10" height="10" fill="#238F51" />
<rect x="260" y="300" width="10" height="10" fill="#5FAE3A" />
<rect x="280" y="300" width="10" height="10" fill="#8CB53B" />
<rect x="290" y="300" width="10" height="10" fill="#5FAE3A" />
<rect x="80" y="310" width="10" height="10" fill="#DBC892" />
<rect x="90" y="310" width="10" height="10" fill="#DBC892" />
<rect x="100" y="310" width="10" height="10" fill="#DBC892" />
<rect x="110" y="310" width="10" height="10" fill="#D2B76B" />
<rect x="120" y="310" width="10" height="10" fill="#D2B76B" />
<rect x="170" y="310" width="10" height="10" fill="#238F51" />
<rect x="180" y="310" width="10" height="10" fill="#238F51" />
<rect x="190" y="310" width="10" height="10" fill="#5FAE3A" />
<rect x="200" y="310" width="10" height="10" fill="#8CB53B" />
<rect x="210" y="310" width="10" height="10" fill="#5FAE3A" />
<rect x="220" y="310" width="10" height="10" fill="#8CB53B" />
<rect x="230" y="310" width="10" height="10" fill="#8CB53B" />
<rect x="240" y="310" width="10" height="10" fill="#5FAE3A" />
<rect x="250" y="310" width="10" height="10" fill="#238F51" />
<rect x="260" y="310" width="10" height="10" fill="#238F51" />
<rect x="280" y="310" width="10" height="10" fill="#8CB53B" />
<rect x="290" y="310" width="10" height="10" fill="#5FAE3A" />
<rect x="70" y="320" width="10" height="10" fill="#DBC892" />
<rect x="80" y="320" width="10" height="10" fill="#DBC892" />
<rect x="90" y="320" width="10" height="10" fill="#D2B76B" />
<rect x="180" y="320" width="10" height="10" fill="#238F51" />
<rect x="190" y="320" width="10" height="10" fill="#238F51" />
<rect x="200" y="320" width="10" height="10" fill="#5FAE3A" />
<rect x="210" y="320" width="10" height="10" fill="#5FAE3A" />
<rect x="220" y="320" width="10" height="10" fill="#8CB53B" />
<rect x="230" y="320" width="10" height="10" fill="#8CB53B" />
<rect x="240" y="320" width="10" height="10" fill="#5FAE3A" />
<rect x="250" y="320" width="10" height="10" fill="#238F51" />
<rect x="260" y="320" width="10" height="10" fill="#238F51" />
<rect x="270" y="320" width="10" height="10" fill="#8CB53B" />
<rect x="280" y="320" width="10" height="10" fill="#5FAE3A" />
<rect x="60" y="330" width="10" height="10" fill="#DBC892" />
<rect x="70" y="330" width="10" height="10" fill="#DBC892" />
<rect x="80" y="330" width="10" height="10" fill="#D2B76B" />
<rect x="190" y="330" width="10" height="10" fill="#238F51" />
<rect x="200" y="330" width="10" height="10" fill="#5FAE3A" />
<rect x="210" y="330" width="10" height="10" fill="#8CB53B" />
<rect x="220" y="330" width="10" height="10" fill="#5FAE3A" />
<rect x="230" y="330" width="10" height="10" fill="#8CB53B" />
<rect x="240" y="330" width="10" height="10" fill="#5FAE3A" />
<rect x="250" y="330" width="10" height="10" fill="#238F51" />
<rect x="260" y="330" width="10" height="10" fill="#238F51" />
<rect x="270" y="330" width="10" height="10" fill="#5FAE3A" />
<rect x="50" y="340" width="10" height="10" fill="#DBC892" />
<rect x="60" y="340" width="10" height="10" fill="#DBC892" />
<rect x="70" y="340" width="10" height="10" fill="#DBC892" />
<rect x="130" y="340" width="10" height="10" fill="#8CB53B" />
<rect x="140" y="340" width="10" height="10" fill="#8CB53B" />
<rect x="150" y="340" width="10" height="10" fill="#8CB53B" />
<rect x="160" y="340" width="10" height="10" fill="#8CB53B" />
<rect x="170" y="340" width="10" height="10" fill="#8CB53B" />
<rect x="190" y="340" width="10" height="10" fill="#238F51" />
<rect x="200" y="340" width="10" height="10" fill="#238F51" />
<rect x="210" y="340" width="10" height="10" fill="#8CB53B" />
<rect x="220" y="340" width="10" height="10" fill="#5FAE3A" />
<rect x="230" y="340" width="10" height="10" fill="#8CB53B" />
<rect x="240" y="340" width="10" height="10" fill="#5FAE3A" />
<rect x="250" y="340" width="10" height="10" fill="#238F51" />
<rect x="260" y="340" width="10" height="10" fill="#238F51" />
<rect x="270" y="340" width="10" height="10" fill="#5FAE3A" />
<rect x="290" y="340" width="10" height="10" fill="#DBC892" />
<rect x="300" y="340" width="10" height="10" fill="#DBC892" />
<rect x="50" y="350" width="10" height="10" fill="#DBC892" />
<rect x="170" y="350" width="10" height="10" fill="#8CB53B" />
<rect x="180" y="350" width="10" height="10" fill="#5FAE3A" />
<rect x="190" y="350" width="10" height="10" fill="#5FAE3A" />
<rect x="200" y="350" width="10" height="10" fill="#238F51" />
<rect x="210" y="350" width="10" height="10" fill="#5FAE3A" />
<rect x="220" y="350" width="10" height="10" fill="#5FAE3A" />
<rect x="230" y="350" width="10" height="10" fill="#8CB53B" />
<rect x="240" y="350" width="10" height="10" fill="#5FAE3A" />
<rect x="250" y="350" width="10" height="10" fill="#238F51" />
<rect x="260" y="350" width="10" height="10" fill="#8CB53B" />
<rect x="270" y="350" width="10" height="10" fill="#DBC892" />
<rect x="280" y="350" width="10" height="10" fill="#DBC892" />
<rect x="290" y="350" width="10" height="10" fill="#D2B76B" />
<rect x="300" y="350" width="10" height="10" fill="#D2B76B" />
<rect x="310" y="350" width="10" height="10" fill="#DBC892" />
<rect x="320" y="350" width="10" height="10" fill="#DBC892" />
<rect x="200" y="360" width="10" height="10" fill="#8CB53B" />
<rect x="210" y="360" width="10" height="10" fill="#5FAE3A" />
<rect x="220" y="360" width="10" height="10" fill="#8CB53B" />
<rect x="230" y="360" width="10" height="10" fill="#8CB53B" />
<rect x="240" y="360" width="10" height="10" fill="#5FAE3A" />
<rect x="250" y="360" width="10" height="10" fill="#238F51" />
<rect x="260" y="360" width="10" height="10" fill="#D2B76B" />
<rect x="270" y="360" width="10" height="10" fill="#D2B76B" />
<rect x="310" y="360" width="10" height="10" fill="#D2B76B" />
<rect x="320" y="360" width="10" height="10" fill="#DBC892" />
<rect x="210" y="370" width="10" height="10" fill="#5FAE3A" />
<rect x="220" y="370" width="10" height="10" fill="#8CB53B" />
<rect x="230" y="370" width="10" height="10" fill="#5FAE3A" />
<rect x="240" y="370" width="10" height="10" fill="#8CB53B" />
<rect x="250" y="370" width="10" height="10" fill="#D2B76B" />
<rect x="260" y="370" width="10" height="10" fill="#D2B76B" />
<rect x="320" y="370" width="10" height="10" fill="#D2B76B" />
<rect x="330" y="370" width="10" height="10" fill="#DBC892" />
<rect x="210" y="380" width="10" height="10" fill="#5FAE3A" />
<rect x="220" y="380" width="10" height="10" fill="#8CB53B" />
<rect x="230" y="380" width="10" height="10" fill="#5FAE3A" />
<rect x="240" y="380" width="10" height="10" fill="#5FAE3A" />
<rect x="250" y="380" width="10" height="10" fill="#D2B76B" />
<rect x="260" y="380" width="10" height="10" fill="#5FAE3A" />
<rect x="210" y="390" width="10" height="10" fill="#8CB53B" />
<rect x="220" y="390" width="10" height="10" fill="#5FAE3A" />
<rect x="230" y="390" width="10" height="10" fill="#5FAE3A" />
<rect x="240" y="390" width="10" height="10" fill="#8CB53B" />
<rect x="250" y="390" width="10" height="10" fill="#D2B76B" />
<rect x="260" y="390" width="10" height="10" fill="#5FAE3A" />
<rect x="220" y="400" width="10" height="10" fill="#5FAE3A" />
<rect x="230" y="400" width="10" height="10" fill="#5FAE3A" />
<rect x="240" y="400" width="10" height="10" fill="#8CB53B" />
<rect x="250" y="400" width="10" height="10" fill="#5FAE3A" />
<rect x="220" y="410" width="10" height="10" fill="#5FAE3A" />
<rect x="230" y="410" width="10" height="10" fill="#5FAE3A" />
<rect x="240" y="410" width="10" height="10" fill="#8CB53B" />
<rect x="250" y="410" width="10" height="10" fill="#5FAE3A" />
<rect x="220" y="420" width="10" height="10" fill="#5FAE3A" />
<rect x="230" y="420" width="10" height="10" fill="#5FAE3A" />
<rect x="240" y="420" width="10" height="10" fill="#8CB53B" />
<rect x="250" y="420" width="10" height="10" fill="#5FAE3A" />
<rect x="220" y="430" width="10" height="10" fill="#238F51" />
<rect x="230" y="430" width="10" height="10" fill="#5FAE3A" />
<rect x="240" y="430" width="10" height="10" fill="#8CB53B" />
<rect x="250" y="430" width="10" height="10" fill="#5FAE3A" />
<rect x="220" y="440" width="10" height="10" fill="#238F51" />
<rect x="230" y="440" width="10" height="10" fill="#5FAE3A" />
<rect x="240" y="440" width="10" height="10" fill="#8CB53B" />
<rect x="250" y="440" width="10" height="10" fill="#5FAE3A" />
<rect x="220" y="450" width="10" height="10" fill="#238F51" />
<rect x="230" y="450" width="10" height="10" fill="#8CB53B" />
<rect x="240" y="450" width="10" height="10" fill="#8CB53B" />
<rect x="250" y="450" width="10" height="10" fill="#5FAE3A" />
<rect x="220" y="460" width="10" height="10" fill="#238F51" />
<rect x="230" y="460" width="10" height="10" fill="#5FAE3A" />
<rect x="240" y="460" width="10" height="10" fill="#8CB53B" />
<rect x="250" y="460" width="10" height="10" fill="#5FAE3A" />
<rect x="220" y="470" width="10" height="10" fill="#238F51" />
<rect x="230" y="470" width="10" height="10" fill="#5FAE3A" />
<rect x="240" y="470" width="10" height="10" fill="#8CB53B" />
<rect x="250" y="470" width="10" height="10" fill="#5FAE3A" />
<rect x="220" y="480" width="10" height="10" fill="#238F51" />
<rect x="230" y="480" width="10" height="10" fill="#5FAE3A" />
<rect x="240" y="480" width="10" height="10" fill="#8CB53B" />
<rect x="250" y="480" width="10" height="10" fill="#5FAE3A" />
<rect x="220" y="490" width="10" height="10" fill="#238F51" />
<rect x="230" y="490" width="10" height="10" fill="#5FAE3A" />
<rect x="240" y="490" width="10" height="10" fill="#8CB53B" />
</svg>