<?xml version="1.0" encoding="UTF-8" ?>
<svg version="1.1" width="500" height="500" xmlns="http://www.w3.org/2000/svg" shape-rendering="crispEdges">
<rect x="230" y="0" width="10" height="10" fill="#B7793A" />
<rect x="230" y="10" width="10" height="10" fill="#D9A066" />
<rect x="230" y="20" width="10" height="10" fill="#B7793A" />
<rect x="240" y="20" width="10" height="10" fill="#C9B651" />
<rect x="160" y="30" width="10" height="10" fill="#8CB53B" />
<rect x="220" y="30" width="10" height="10" fill="#D9A066" />
<rect x="230" y="30" width="10" height="10" fill="#D9A066" />
<rect x="240" y="30" width="10" height="10" fill="#ADB33F" />
<rect x="160" y="40" width="10" height="10" fill="#8CB53B" />
<rect x="210" y="40" width="10" height="10" fill="#D9A066" />
<rect x="220" y="40" width="10" height="10" fill="#C9B651" />
<rect x="230" y="40" width="10" height="10" fill="#B7793A" />
<rect x="240" y="40" width="10" height="10" fill="#B7793A" />
<rect x="250" y="40" width="10" height="10" fill="#D9A066" />
<rect x="150" y="50" width="10" height="10" fill="#8CB53B" />
<rect x="160" y="50" width="10" height="10" fill="#8CB53B" />
<rect x="220" y="50" width="10" height="10" fill="#D9A066" />
<rect x="230" y="50" width="10" height="10" fill="#D9A066" />
<rect x="240" y="50" width="10" height="10" fill="#B7793A" />
<rect x="250" y="50" width="10" height="10" fill="#B7793A" />
<rect x="150" y="60" width="10" height="10" fill="#8CB53B" />
<rect x="160" y="60" width="10" height="10" fill="#8CB53B" />
<rect x="210" y="60" width="10" height="10" fill="#C9B651" />
<rect x="220" y="60" width="10" height="10" fill="#D9A066" />
<rect x="230" y="60" width="10" height="10" fill="#B7793A" />
<rect x="240" y="60" width="10" height="10" fill="#C9B651" />
<rect x="150" y="70" width="10" height="10" fill="#8CB53B" />
<rect x="160" y="70" width="10" height="10" fill="#8CB53B" />
<rect x="170" y="70" width="10" height="10" fill="#8CB53B" />
<rect x="210" y="70" width="10" height="10" fill="#B7793A" />
<rect x="220" y="70" width="10" height="10" fill="#B7793A" />
<rect x="230" y="70" width="10" height="10" fill="#B7793A" />
<rect x="240" y="70" width="10" height="10" fill="#D9A066" />
<rect x="250" y="70" width="10" height="10" fill="#8CB53B" />
<rect x="150" y="80" width="10" height="10" fill="#8CB53B" />
<rect x="160" y="80" width="10" height="10" fill="#8CB53B" />
<rect x="170" y="80" width="10" height="10" fill="#5FAE3A" />
<rect x="210" y="80" width="10" height="10" fill="#B7793A" />
<rect x="220" y="80" width="10" height="10" fill="#B7793A" />
<rect x="230" y="80" width="10" height="10" fill="#B7793A" />
<rect x="240" y="80" width="10" height="10" fill="#B7793A" />
<rect x="250" y="80" width="10" height="10" fill="#D9A066" />
<rect x="270" y="80" width="10" height="10" fill="#5FAE3A" />
<rect x="160" y="90" width="10" height="10" fill="#8CB53B" />
<rect x="170" y="90" width="10" height="10" fill="#5FAE3A" />
<rect x="180" y="90" width="10" height="10" fill="#5FAE3A" />
<rect x="220" y="90" width="10" height="10" fill="#C9B651" />
<rect x="230" y="90" width="10" height="10" fill="#B7793A" />
<rect x="240" y="90" width="10" height="10" fill="#B7793A" />
<rect x="270" y="90" width="10" height="10" fill="#5FAE3A" />
<rect x="170" y="100" width="10" height="10" fill="#8CB53B" />
<rect x="180" y="100" width="10" height="10" fill="#5FAE3A" />
<rect x="190" y="100" width="10" height="10" fill="#539D31" />
<rect x="200" y="100" width="10" height="10" fill="#539D31" />
<rect x="220" y="100" width="10" height="10" fill="#ADB33F" />
<rect x="230" y="100" width="10" height="10" fill="#D9A066" />
<rect x="240" y="100" width="10" height="10" fill="#C9B651" />
<rect x="270" y="100" width="10" height="10" fill="#5FAE3A" />
<rect x="170" y="110" width="10" height="10" fill="#8CB53B" />
<rect x="180" y="110" width="10" height="10" fill="#5FAE3A" />
<rect x="190" y="110" width="10" height="10" fill="#5FAE3A" />
<rect x="200" y="110" width="10" height="10" fill="#539D31" />
<rect x="210" y="110" width="10" height="10" fill="#539D31" />
<rect x="220" y="110" width="10" height="10" fill="#B7793A" />
<rect x="230" y="110" width="10" height="10" fill="#B7793A" />
<rect x="240" y="110" width="10" height="10" fill="#D9A066" />
<rect x="270" y="110" width="10" height="10" fill="#5FAE3A" />
<rect x="180" y="120" width="10" height="10" fill="#8CB53B" />
<rect x="190" y="120" width="10" height="10" fill="#8CB53B" />
<rect x="200" y="120" width="10" height="10" fill="#539D31" />
<rect x="210" y="120" width="10" height="10" fill="#539D31" />
<rect x="230" y="120" width="10" height="10" fill="#ADB33F" />
<rect x="260" y="120" width="10" height="10" fill="#5FAE3A" />
<rect x="270" y="120" width="10" height="10" fill="#5FAE3A" />
<rect x="190" y="130" width="10" height="10" fill="#8CB53B" />
<rect x="200" y="130" width="10" height="10" fill="#539D31" />
<rect x="210" y="130" width="10" height="10" fill="#5FAE3A" />
<rect x="220" y="130" width="10" height="10" fill="#5FAE3A" />
<rect x="230" y="130" width="10" height="10" fill="#ADB33F" />
<rect x="260" y="130" width="10" height="10" fill="#5FAE3A" />
<rect x="200" y="140" width="10" height="10" fill="#8CB53B" />
<rect x="210" y="140" width="10" height="10" fill="#8CB53B" />
<rect x="220" y="140" width="10" height="10" fill="#5FAE3A" />
<rect x="230" y="140" width="10" height="10" fill="#ADB33F" />
<rect x="240" y="140" width="10" height="10" fill="#5FAE3A" />
<rect x="250" y="140" width="10" height="10" fill="#5FAE3A" />
<rect x="260" y="140" width="10" height="10" fill="#5FAE3A" />
<rect x="210" y="150" width="10" height="10" fill="#8CB53B" />
<rect x="220" y="150" width="10" height="10" fill="#8CB53B" />
<rect x="230" y="150" width="10" height="10" fill="#ADB33F" />
<rect x="240" y="150" width="10" height="10" fill="#5FAE3A" />
<rect x="250" y="150" width="10" height="10" fill="#5FAE3A" />
<rect x="310" y="150" width="10" height="10" fill="#8CB53B" />
<rect x="320" y="150" width="10" height="10" fill="#8CB53B" />
<rect x="220" y="160" width="10" height="10" fill="#8CB53B" />
<rect x="230" y="160" width="10" height="10" fill="#ADB33F" />
<rect x="240" y="160" width="10" height="10" fill="#5FAE3A" />
<rect x="250" y="160" width="10" height="10" fill="#238F51" />
<rect x="300" y="160" width="10" height="10" fill="#8CB53B" />
<rect x="310" y="160" width="10" height="10" fill="#8CB53B" />
<rect x="320" y="160" width="10" height="10" fill="#8CB53B" />
<rect x="330" y="160" width="10" height="10" fill="#8CB53B" />
<rect x="340" y="160" width="10" height="10" fill="#8CB53B" />
<rect x="350" y="160" width="10" height="10" fill="#8CB53B" />
<rect x="70" y="170" width="10" height="10" fill="#8CB53B" />
<rect x="80" y="170" width="10" height="10" fill="#8CB53B" />
<rect x="90" y="170" width="10" height="10" fill="#8CB53B" />
<rect x="100" y="170" width="10" height="10" fill="#8CB53B" />
<rect x="110" y="170" width="10" height="10" fill="#8CB53B" />
<rect x="120" y="170" width="10" height="10" fill="#8CB53B" />
<rect x="130" y="170" width="10" height="10" fill="#8CB53B" />
<rect x="220" y="170" width="10" height="10" fill="#8CB53B" />
<rect x="230" y="170" width="10" height="10" fill="#ADB33F" />
<rect x="240" y="170" width="10" height="10" fill="#5FAE3A" />
<rect x="250" y="170" width="10" height="10" fill="#238F51" />
<rect x="290" y="170" width="10" height="10" fill="#8CB53B" />
<rect x="300" y="170" width="10" height="10" fill="#238F51" />
<rect x="100" y="180" width="10" height="10" fill="#8CB53B" />
<rect x="110" y="180" width="10" height="10" fill="#8CB53B" />
<rect x="120" y="180" width="10" height="10" fill="#8CB53B" />
<rect x="130" y="180" width="10" height="10" fill="#8CB53B" />
<rect x="140" y="180" width="10" height="10" fill="#8CB53B" />
<rect x="150" y="180" width="10" height="10" fill="#8CB53B" />
<rect x="160" y="180" width="10" height="10" fill="#8CB53B" />
<rect x="170" y="180" width="10" height="10" fill="#8CB53B" />
<rect x="220" y="180" width="10" height="10" fill="#5FAE3A" />
<rect x="230" y="180" width="10" height="10" fill="#ADB33F" />
<rect x="240" y="180" width="10" height="10" fill="#5FAE3A" />
<rect x="250" y="180" width="10" height="10" fill="#238F51" />
<rect x="280" y="180" width="10" height="10" fill="#8CB53B" />
<rect x="290" y="180" width="10" height="10" fill="#8CB53B" />
<rect x="300" y="180" width="10" height="10" fill="#238F51" />
<rect x="140" y="190" width="10" height="10" fill="#8CB53B" />
<rect x="150" y="190" width="10" height="10" fill="#8CB53B" />
<rect x="160" y="190" width="10" height="10" fill="#8CB53B" />
<rect x="170" y="190" width="10" height="10" fill="#8CB53B" />
<rect x="180" y="190" width="10" height="10" fill="#8CB53B" />
<rect x="190" y="190" width="10" height="10" fill="#8CB53B" />
<rect x="220" y="190" width="10" height="10" fill="#5FAE3A" />
<rect x="230" y="190" width="10" height="10" fill="#ADB33F" />
<rect x="240" y="190" width="10" height="10" fill="#238F51" />
<rect x="250" y="190" width="10" height="10" fill="#238F51" />
<rect x="260" y="190" width="10" height="10" fill="#8CB53B" />
<rect x="270" y="190" width="10" height="10" fill="#5FAE3A" />
<rect x="280" y="190" width="10" height="10" fill="#5FAE3A" />
<rect x="290" y="190" width="10" height="10" fill="#238F51" />
<rect x="150" y="200" width="10" height="10" fill="#238F51" />
<rect x="160" y="200" width="10" height="10" fill="#238F51" />
<rect x="170" y="200" width="10" height="10" fill="#8CB53B" />
<rect x="180" y="200" width="10" height="10" fill="#8CB53B" />
<rect x="190" y="200" width="10" height="10" fill="#8CB53B" />
<rect x="200" y="200" width="10" height="10" fill="#8CB53B" />
<rect x="220" y="200" width="10" height="10" fill="#5FAE3A" />
<rect x="230" y="200" width="10" height="10" fill="#ADB33F" />
<rect x="240" y="200" width="10" height="10" fill="#238F51" />
<rect x="260" y="200" width="10" height="10" fill="#8CB53B" />
<rect x="270" y="200" width="10" height="10" fill="#5FAE3A" />
<rect x="280" y="200" width="10" height="10" fill="#5FAE3A" />
<rect x="290" y="200" width="10" height="10" fill="#238F51" />
<rect x="180" y="210" width="10" height="10" fill="#238F51" />
<rect x="190" y="210" width="10" height="10" fill="#238F51" />
<rect x="200" y="210" width="10" height="10" fill="#8CB53B" />
<rect x="210" y="210" width="10" height="10" fill="#8CB53B" />
<rect x="220" y="210" width="10" height="10" fill="#5FAE3A" />
<rect x="230" y="210" width="10" height="10" fill="#ADB33F" />
<rect x="260" y="210" width="10" height="10" fill="#5FAE3A" />
<rect x="270" y="210" width="10" height="10" fill="#5FAE3A" />
<rect x="280" y="210" width="10" height="10" fill="#238F51" />
<rect x="200" y="220" width="10" height="10" fill="#8CB53B" />
<rect x="210" y="220" width="10" height="10" fill="#8CB53B" />
<rect x="230" y="220" width="10" height="10" fill="#ADB33F" />
<rect x="250" y="220" width="10" height="10" fill="#5FAE3A" />
<rect x="260" y="220" width="10" height="10" fill="#5FAE3A" />
<rect x="270" y="220" width="10" height="10" fill="#238F51" />
<rect x="280" y="220" width="10" height="10" fill="#238F51" />
<rect x="210" y="230" width="10" height="10" fill="#8CB53B" />
<rect x="220" y="230" width="10" height="10" fill="#5FAE3A" />
<rect x="230" y="230" width="10" height="10" fill="#ADB33F" />
<rect x="240" y="230" width="10" height="10" fill="#5FAE3A" />
<rect x="250" y="230" width="10" height="10" fill="#5FAE3A" />
<rect x="260" y="230" width="10" height="10" fill="#5FAE3A" />
<rect x="270" y="230" width="10" height="10" fill="#238F51" />
<rect x="220" y="240" width="10" height="10" fill="#5FAE3A" />
<rect x="230" y="240" width="10" height="10" fill="#ADB33F" />
<rect x="240" y="240" width="10" height="10" fill="#5FAE3A" />
<rect x="250" y="240" width="10" height="10" fill="#5FAE3A" />
<rect x="260" y="240" width="10" height="10" fill="#238F51" />
<rect x="270" y="240" width="10" height="10" fill="#238F51" />
<rect x="340" y="240" width="10" height="10" fill="#8CB53B" />
<rect x="350" y="240" width="10" height="10" fill="#8CB53B" />
<rect x="360" y="240" width="10" height="10" fill="#8CB53B" />
<rect x="160" y="250" width="10" height="10" fill="#8CB53B" />
<rect x="170" y="250" width="10" height="10" fill="#8CB53B" />
<rect x="180" y="250" width="10" height="10" fill="#8CB53B" />
<rect x="220" y="250" width="10" height="10" fill="#5FAE3A" />
<rect x="230" y="250" width="10" height="10" fill="#8CB53B" />
<rect x="240" y="250" width="10" height="10" fill="#5FAE3A" />
<rect x="250" y="250" width="10" height="10" fill="#238F51" />
<rect x="260" y="250" width="10" height="10" fill="#238F51" />
<rect x="330" y="250" width="10" height="10" fill="#8CB53B" />
<rect x="340" y="250" width="10" height="10" fill="#5FAE3A" />
<rect x="350" y="250" width="10" height="10" fill="#5FAE3A" />
<rect x="360" y="250" width="10" height="10" fill="#5FAE3A" />
<rect x="370" y="250" width="10" height="10" fill="#5FAE3A" />
<rect x="380" y="250" width="10" height="10" fill="#5FAE3A" />
<rect x="150" y="260" width="10" height="10" fill="#8CB53B" />
<rect x="160" y="260" width="10" height="10" fill="#8CB53B" />
<rect x="170" y="260" width="10" height="10" fill="#8CB53B" />
<rect x="180" y="260" width="10" height="10" fill="#8CB53B" />
<rect x="220" y="260" width="10" height="10" fill="#5FAE3A" />
<rect x="230" y="260" width="10" height="10" fill="#8CB53B" />
<rect x="240" y="260" width="10" height="10" fill="#238F51" />
<rect x="250" y="260" width="10" height="10" fill="#238F51" />
<rect x="280" y="260" width="10" height="10" fill="#8CB53B" />
<rect x="290" y="260" width="10" height="10" fill="#8CB53B" />
<rect x="300" y="260" width="10" height="10" fill="#8CB53B" />
<rect x="310" y="260" width="10" height="10" fill="#8CB53B" />
<rect x="320" y="260" width="10" height="10" fill="#8CB53B" />
<rect x="330" y="260" width="10" height="10" fill="#5FAE3A" />
<rect x="340" y="260" width="10" height="10" fill="#5FAE3A" />
<rect x="350" y="260" width="10" height="10" fill="#238F51" />
<rect x="360" y="260" width="10" height="10" fill="#238F51" />
<rect x="370" y="260" width="10" height="10" fill="#238F51" />
<rect x="380" y="260" width="10" height="10" fill="#5FAE3A" />
<rect x="390" y="260" width="10" height="10" fill="#5FAE3A" />
<rect x="110" y="270" width="10" height="10" fill="#8CB53B" />
<rect x="120" y="270" width="10" height="10" fill="#8CB53B" />
<rect x="130" y="270" width="10" height="10" fill="#8CB53B" />
<rect x="140" y="270" width="10" height="10" fill="#8CB53B" />
<rect x="150" y="270" width="10" height="10" fill="#8CB53B" />
<rect x="160" y="270" width="10" height="10" fill="#8CB53B" />
<rect x="170" y="270" width="10" height="10" fill="#8CB53B" />
<rect x="180" y="270" width="10" height="10" fill="#8CB53B" />
<rect x="190" y="270" width="10" height="10" fill="#8CB53B" />
<rect x="200" y="270" width="10" height="10" fill="#8CB53B" />
<rect x="220" y="270" width="10" height="10" fill="#8CB53B" />
<rect x="230" y="270" width="10" height="10" fill="#8CB53B" />
<rect x="260" y="270" width="10" height="10" fill="#8CB53B" />
<rect x="270" y="270" width="10" height="10" fill="#8CB53B" />
<rect x="280" y="270" width="10" height="10" fill="#8CB53B" />
<rect x="290" y="270" width="10" height="10" fill="#8CB53B" />
<rect x="300" y="270" width="10" height="10" fill="#8CB53B" />
<rect x="310" y="270" width="10" height="10" fill="#5FAE3A" />
<rect x="320" y="270" width="10" height="10" fill="#5FAE3A" />
<rect x="330" y="270" width="10" height="10" fill="#5FAE3A" />
<rect x="340" y="270" width="10" height="10" fill="#238F51" />
<rect x="350" y="270" width="10" height="10" fill="#238F51" />
<rect x="400" y="270" width="10" height="10" fill="#5FAE3A" />
<rect x="100" y="280" width="10" height="10" fill="#8CB53B" />
<rect x="110" y="280" width="10" height="10" fill="#5FAE3A" />
<rect x="120" y="280" width="10" height="10" fill="#5FAE3A" />
<rect x="130" y="280" width="10" height="10" fill="#5FAE3A" />
<rect x="140" y="280" width="10" height="10" fill="#238F51" />
<rect x="150" y="280" width="10" height="10" fill="#5FAE3A" />
<rect x="160" y="280" width="10" height="10" fill="#238F51" />
<rect x="170" y="280" width="10" height="10" fill="#238F51" />
<rect x="180" y="280" width="10" height="10" fill="#5FAE3A" />
<rect x="190" y="280" width="10" height="10" fill="#5FAE3A" />
<rect x="200" y="280" width="10" height="10" fill="#5FAE3A" />
<rect x="210" y="280" width="10" height="10" fill="#8CB53B" />
<rect x="230" y="280" width="10" height="10" fill="#5FAE3A" />
<rect x="260" y="280" width="10" height="10" fill="#8CB53B" />
<rect x="270" y="280" width="10" height="10" fill="#8CB53B" />
<rect x="280" y="280" width="10" height="10" fill="#8CB53B" />
<rect x="290" y="280" width="10" height="10" fill="#8CB53B" />
<rect x="300" y="280" width="10" height="10" fill="#5FAE3A" />
<rect x="310" y="280" width="10" height="10" fill="#5FAE3A" />
<rect x="320" y="280" width="10" height="10" fill="#8CB53B" />
<rect x="100" y="290" width="10" height="10" fill="#5FAE3A" />
<rect x="110" y="290" width="10" height="10" fill="#5FAE3A" />
<rect x="200" y="290" width="10" height="10" fill="#5FAE3A" />
<rect x="210" y="290" width="10" height="10" fill="#5FAE3A" />
<rect x="220" y="290" width="10" height="10" fill="#8CB53B" />
<rect x="230" y="290" width="10" height="10" fill="#8CB53B" />
<rect x="250" y="290" width="10" height="10" fill="#8CB53B" />
<rect x="260" y="290" width="10" height="10" fill="#5FAE3A" />
<rect x="270" y="290" width="10" height="10" fill="#5FAE3A" />
<rect x="280" y="290" width="10" height="10" fill="#5FAE3A" />
<rect x="290" y="290" width="10" height="10" fill="#238F51" />
<rect x="300" y="290" width="10" height="10" fill="#238F51" />
<rect x="90" y="300" width="10" height="10" fill="#5FAE3A" />
<rect x="100" y="300" width="10" height="10" fill="#5FAE3A" />
<rect x="210" y="300" width="10" height="10" fill="#5FAE3A" />
<rect x="220" y="300" width="10" height="10" fill="#5FAE3A" />
<rect x="230" y="300" width="10" height="10" fill="#8CB53B" />
<rect x="240" y="300" width="10" height="10" fill="#8CB53B" />
<rect x="250" y="300" width="10" height="10" fill="#8CB53B" />
<rect x="260" y="300" width="10" height="10" fill="#238F51" />
<rect x="270" y="300" width="10" height="10" fill="#238F51" />
<rect x="280" y="300" width="10" height="10" fill="#238F51" />
<rect x="330" y="300" width="10" height="10" fill="#8CB53B" />
<rect x="340" y="300" width="10" height="10" fill="#8CB53B" />
<rect x="350" y="300" width="10" height="10" fill="#8CB53B" />
<rect x="380" y="300" width="10" height="10" fill="#8CB53B" />
<rect x="390" y="300" width="10" height="10" fill="#8CB53B" />
<rect x="80" y="310" width="10" height="10" fill="#5FAE3A" />
<rect x="90" y="310" width="10" height="10" fill="#5FAE3A" />
<rect x="220" y="310" width="10" height="10" fill="#8CB53B" />
<rect x="230" y="310" width="10" height="10" fill="#8CB53B" />
<rect x="240" y="310" width="10" height="10" fill="#8CB53B" />
<rect x="250" y="310" width="10" height="10" fill="#238F51" />
<rect x="260" y="310" width="10" height="10" fill="#238F51" />
<rect x="330" y="310" width="10" height="10" fill="#5FAE3A" />
<rect x="340" y="310" width="10" height="10" fill="#5FAE3A" />
<rect x="350" y="310" width="10" height="10" fill="#5FAE3A" />
<rect x="360" y="310" width="10" height="10" fill="#5FAE3A" />
<rect x="370" y="310" width="10" height="10" fill="#5FAE3A" />
<rect x="380" y="310" width="10" height="10" fill="#5FAE3A" />
<rect x="390" y="310" width="10" height="10" fill="#5FAE3A" />
<rect x="400" y="310" width="10" height="10" fill="#5FAE3A" />
<rect x="410" y="310" width="10" height="10" fill="#5FAE3A" />
<rect x="140" y="320" width="10" height="10" fill="#8CB53B" />
<rect x="150" y="320" width="10" height="10" fill="#8CB53B" />
<rect x="160" y="320" width="10" height="10" fill="#8CB53B" />
<rect x="180" y="320" width="10" height="10" fill="#8CB53B" />
<rect x="190" y="320" width="10" height="10" fill="#8CB53B" />
<rect x="200" y="320" width="10" height="10" fill="#8CB53B" />
<rect x="220" y="320" width="10" height="10" fill="#8CB53B" />
<rect x="230" y="320" width="10" height="10" fill="#8CB53B" />
<rect x="240" y="320" width="10" height="10" fill="#238F51" />
<rect x="250" y="320" width="10" height="10" fill="#238F51" />
<rect x="290" y="320" width="10" height="10" fill="#8CB53B" />
<rect x="300" y="320" width="10" height="10" fill="#8CB53B" />
<rect x="310" y="320" width="10" height="10" fill="#8CB53B" />
<rect x="320" y="320" width="10" height="10" fill="#5FAE3A" />
<rect x="330" y="320" width="10" height="10" fill="#5FAE3A" />
<rect x="340" y="320" width="10" height="10" fill="#238F51" />
<rect x="350" y="320" width="10" height="10" fill="#238F51" />
<rect x="360" y="320" width="10" height="10" fill="#238F51" />
<rect x="370" y="320" width="10" height="10" fill="#238F51" />
<rect x="380" y="320" width="10" height="10" fill="#238F51" />
<rect x="390" y="320" width="10" height="10" fill="#238F51" />
<rect x="400" y="320" width="10" height="10" fill="#238F51" />
<rect x="410" y="320" width="10" height="10" fill="#5FAE3A" />
<rect x="420" y="320" width="10" height="10" fill="#5FAE3A" />
<rect x="100" y="330" width="10" height="10" fill="#8CB53B" />
<rect x="110" y="330" width="10" height="10" fill="#8CB53B" />
<rect x="120" y="330" width="10" height="10" fill="#8CB53B" />
<rect x="130" y="330" width="10" height="10" fill="#8CB53B" />
<rect x="140" y="330" width="10" height="10" fill="#5FAE3A" />
<rect x="150" y="330" width="10" height="10" fill="#5FAE3A" />
<rect x="160" y="330" width="10" height="10" fill="#8CB53B" />
<rect x="170" y="330" width="10" height="10" fill="#5FAE3A" />
<rect x="180" y="330" width="10" height="10" fill="#5FAE3A" />
<rect x="190" y="330" width="10" height="10" fill="#5FAE3A" />
<rect x="200" y="330" width="10" height="10" fill="#5FAE3A" />
<rect x="220" y="330" width="10" height="10" fill="#8CB53B" />
<rect x="230" y="330" width="10" height="10" fill="#8CB53B" />
<rect x="240" y="330" width="10" height="10" fill="#238F51" />
<rect x="250" y="330" width="10" height="10" fill="#238F51" />
<rect x="290" y="330" width="10" height="10" fill="#8CB53B" />
<rect x="300" y="330" width="10" height="10" fill="#5FAE3A" />
<rect x="310" y="330" width="10" height="10" fill="#5FAE3A" />
<rect x="320" y="330" width="10" height="10" fill="#238F51" />
<rect x="330" y="330" width="10" height="10" fill="#238F51" />
<rect x="420" y="330" width="10" height="10" fill="#5FAE3A" />
<rect x="100" y="340" width="10" height="10" fill="#8CB53B" />
<rect x="110" y="340" width="10" height="10" fill="#5FAE3A" />
<rect x="120" y="340" width="10" height="10" fill="#5FAE3A" />
<rect x="130" y="340" width="10" height="10" fill="#5FAE3A" />
<rect x="140" y="340" width="10" height="10" fill="#5FAE3A" />
<rect x="190" y="340" width="10" height="10" fill="#238F51" />
<rect x="200" y="340" width="10" height="10" fill="#5FAE3A" />
<rect x="210" y="340" width="10" height="10" fill="#8CB53B" />
<rect x="220" y="340" width="10" height="10" fill="#8CB53B" />
<rect x="230" y="340" width="10" height="10" fill="#8CB53B" />
<rect x="240" y="340" width="10" height="10" fill="#238F51" />
<rect x="250" y="340" width="10" height="10" fill="#238F51" />
<rect x="290" y="340" width="10" height="10" fill="#5FAE3A" />
<rect x="300" y="340" width="10" height="10" fill="#238F51" />
<rect x="310" y="340" width="10" height="10" fill="#238F51" />
<rect x="320" y="340" width="10" height="10" fill="#238F51" />
<rect x="100" y="350" width="10" height="10" fill="#5FAE3A" />
<rect x="110" y="350" width="10" height="10" fill="#5FAE3A" />
<rect x="190" y="350" width="10" height="10" fill="#238F51" />
<rect x="200" y="350" width="10" height="10" fill="#238F51" />
<rect x="210" y="350" width="10" height="10" fill="#8CB53B" />
<rect x="220" y="350" width="10" height="10" fill="#8CB53B" />
<rect x="230" y="350" width="10" height="10" fill="#8CB53B" />
<rect x="270" y="350" width="10" height="10" fill="#8CB53B" />
<rect x="280" y="350" width="10" height="10" fill="#8CB53B" />
<rect x="290" y="350" width="10" height="10" fill="#238F51" />
<rect x="300" y="350" width="10" height="10" fill="#238F51" />
<rect x="90" y="360" width="10" height="10" fill="#5FAE3A" />
<rect x="100" y="360" width="10" height="10" fill="#5FAE3A" />
<rect x="200" y="360" width="10" height="10" fill="#238F51" />
<rect x="210" y="360" width="10" height="10" fill="#238F51" />
<rect x="220" y="360" width="10" height="10" fill="#8CB53B" />
<rect x="230" y="360" width="10" height="10" fill="#ADB33F" />
<rect x="260" y="360" width="10" height="10" fill="#8CB53B" />
<rect x="270" y="360" width="10" height="10" fill="#5FAE3A" />
<rect x="280" y="360" width="10" height="10" fill="#5FAE3A" />
<rect x="290" y="360" width="10" height="10" fill="#238F51" />
<rect x="90" y="370" width="10" height="10" fill="#5FAE3A" />
<rect x="210" y="370" width="10" height="10" fill="#238F51" />
<rect x="220" y="370" width="10" height="10" fill="#238F51" />
<rect x="230" y="370" width="10" height="10" fill="#ADB33F" />
<rect x="250" y="370" width="10" height="10" fill="#8CB53B" />
<rect x="260" y="370" width="10" height="10" fill="#5FAE3A" />
<rect x="270" y="370" width="10" height="10" fill="#5FAE3A" />
<rect x="280" y="370" width="10" height="10" fill="#238F51" />
<rect x="290" y="370" width="10" height="10" fill="#238F51" />
<rect x="220" y="380" width="10" height="10" fill="#238F51" />
<rect x="230" y="380" width="10" height="10" fill="#ADB33F" />
<rect x="250" y="380" width="10" height="10" fill="#8CB53B" />
<rect x="260" y="380" width="10" height="10" fill="#5FAE3A" />
<rect x="270" y="380" width="10" height="10" fill="#238F51" />
<rect x="280" y="380" width="10" height="10" fill="#238F51" />
<rect x="220" y="390" width="10" height="10" fill="#238F51" />
<rect x="230" y="390" width="10" height="10" fill="#ADB33F" />
<rect x="240" y="390" width="10" height="10" fill="#5FAE3A" />
<rect x="250" y="390" width="10" height="10" fill="#5FAE3A" />
<rect x="260" y="390" width="10" height="10" fill="#29A685" />
<rect x="270" y="390" width="10" height="10" fill="#29A685" />
<rect x="220" y="400" width="10" height="10" fill="#8CB53B" />
<rect x="230" y="400" width="10" height="10" fill="#ADB33F" />
<rect x="240" y="400" width="10" height="10" fill="#5FAE3A" />
<rect x="250" y="400" width="10" height="10" fill="#5FAE3A" />
<rect x="260" y="400" width="10" height="10" fill="#29A685" />
<rect x="230" y="410" width="10" height="10" fill="#5FAE3A" />
<rect x="240" y="410" width="10" height="10" fill="#5FAE3A" />
<rect x="250" y="410" width="10" height="10" fill="#29A685" />
<rect x="260" y="410" width="10" height="10" fill="#29A685" />
<rect x="230" y="420" width="10" height="10" fill="#5FAE3A" />
<rect x="240" y="420" width="10" height="10" fill="#29A685" />
<rect x="250" y="420" width="10" height="10" fill="#29A685" />
<rect x="230" y="430" width="10" height="10" fill="#5FAE3A" />
<rect x="240" y="430" width="10" height="10" fill="#29A685" />
<rect x="230" y="440" width="10" height="10" fill="#5FAE3A" />
<rect x="240" y="440" width="10" height="10" fill="#29A685" />
<rect x="230" y="450" width="10" height="10" fill="#5FAE3A" />
<rect x="230" y="460" width="10" height="10" fill="#ADB33F" />
<rect x="230" y="470" width="10" height="10" fill="#ADB33F" />
<rect x="230" y="480" width="10" height="10" fill="#ADB33F" />
<rect x="230" y="490" width="10" height="10" fill="#ADB33F" />
</svg>